<?xml version="1.0" encoding="UTF-8"?>
<svg id="RE" xmlns="http://www.w3.org/2000/svg" xmlns:xlink="http://www.w3.org/1999/xlink" viewBox="0 0 453.5433 453.5433">
  <defs>
    <style>
      .cls-1 {
        fill: url(#Degradado_sin_nombre_28-4);
      }

      .cls-1, .cls-2, .cls-3, .cls-4, .cls-5, .cls-6, .cls-7 {
        stroke-width: 0px;
      }

      .cls-2 {
        fill: url(#Degradado_sin_nombre_33);
      }

      .cls-3 {
        fill: url(#Degradado_sin_nombre_28-2);
      }

      .cls-4 {
        fill: url(#Degradado_sin_nombre_28-3);
      }

      .cls-5 {
        fill: url(#Degradado_sin_nombre_28);
      }

      .cls-6 {
        fill: url(#Degradado_sin_nombre_28-5);
      }

      .cls-7 {
        fill: #fff;
      }
    </style>
    <linearGradient id="Degradado_sin_nombre_33" data-name="Degradado sin nombre 33" x1="226.7717" y1="393.4244" x2="226.7717" y2="60.1189" gradientUnits="userSpaceOnUse">
      <stop offset="0" stop-color="#738ea0"/>
      <stop offset=".7087" stop-color="#88a7ba"/>
    </linearGradient>
    <linearGradient id="Degradado_sin_nombre_28" data-name="Degradado sin nombre 28" x1="14.4541" y1="175.1242" x2="234.3511" y2="175.1242" gradientUnits="userSpaceOnUse">
      <stop offset=".1067" stop-color="#738ea0"/>
      <stop offset="1" stop-color="#88a7ba"/>
    </linearGradient>
    <linearGradient id="Degradado_sin_nombre_28-2" data-name="Degradado sin nombre 28" x1="-181.8243" y1="-367.8163" x2="40.6437" y2="-367.8163" gradientTransform="translate(543.0131 257.6909) rotate(-90)" xlink:href="#Degradado_sin_nombre_28"/>
    <linearGradient id="Degradado_sin_nombre_28-3" data-name="Degradado sin nombre 28" x1="314.2624" y1="-585.6242" x2="535.4932" y2="-585.6242" gradientTransform="translate(753.3515 -307.2051) rotate(-180)" xlink:href="#Degradado_sin_nombre_28"/>
    <linearGradient id="Degradado_sin_nombre_28-4" data-name="Degradado sin nombre 28" x1="117.6042" y1="14.1612" x2="122.7773" y2="14.1612" xlink:href="#Degradado_sin_nombre_28"/>
    <linearGradient id="Degradado_sin_nombre_28-5" data-name="Degradado sin nombre 28" x1="134.9218" y1="124.6425" x2="439.0892" y2="124.6425" xlink:href="#Degradado_sin_nombre_28"/>
  </defs>
  <g>
    <rect class="cls-2" x="56.7178" y="60.1189" width="340.1077" height="333.3056"/>
    <path class="cls-5" d="M124.4026,14.0281C63.6799,14.0281,14.4541,62.6329,14.4541,122.5894v213.6309c60.7232,0,109.9485-48.6043,109.9485-108.5614v-105.0695c0-59.9566,49.2258-108.5614,109.9485-108.5614h-109.9485Z"/>
    <path class="cls-3" d="M14.4541,328.2812c0,61.4329,48.4982,111.234,108.3232,111.234h213.1623c0-61.4329-48.4977-111.234-108.3227-111.234h-104.8396c-59.825,0-108.3232-49.8009-108.3232-111.234v111.234Z"/>
    <path class="cls-4" d="M328.4739,439.5152c61.0911,0,110.6151-48.6045,110.6151-108.5614V117.323c-61.0911,0-110.6151,48.6048-110.6151,108.5614v105.0695c0,59.9568-49.5245,108.5614-110.6156,108.5614h110.6156Z"/>
    <g>
      <path class="cls-1" d="M122.7773,14.0281h-5.1731c0,.0903.0123.1765.0128.2663,1.7221-.083,3.4187-.2663,5.1603-.2663Z"/>
      <path class="cls-6" d="M330.7665,14.0281h-99.666c-41.8918,0-78.1576,24.3255-96.1787,59.8592,19.2851,30.5087,52.7999,50.7552,91.0051,50.7552h104.8396c59.825,0,108.3227,49.5235,108.3227,110.6144v-110.6144c0-61.0904-48.4977-110.6144-108.3227-110.6144Z"/>
    </g>
  </g>
  <g>
    <path class="cls-7" d="M168.801,303.1841h-52.1237l-13.8686,32.8152c-.6662,1.5116-1.7229,2.554-3.1736,3.1277-1.4496.5732-2.9612.5278-4.5325-.1361-1.5105-.6645-2.492-1.7224-2.9457-3.1731-.4537-1.4502-.3486-2.9003.3176-4.351l45.2342-104.6098c1.0269-2.2961,2.7786-3.4447,5.2573-3.4447,1.1475,0,2.1755.3032,3.0818.9063.9074.6047,1.6012,1.4507,2.0859,2.5385l44.962,104.6098c.6639,1.5116.7702,2.9772.3176,4.3964-.4537,1.4208-1.4053,2.4632-2.856,3.1277-1.4507.6639-2.9313.7093-4.4418.1361-1.5116-.5738-2.5993-1.5868-3.2633-3.037l-14.0512-32.906ZM121.482,291.7622h42.5154l-21.3036-50.1291-21.2118,50.1291Z"/>
    <path class="cls-7" d="M199.5315,305.3597c0-3.6854.498-7.0704,1.495-10.1527.997-3.0818,2.357-5.8925,4.0799-8.4304,1.7218-2.5385,3.7302-4.8047,6.0275-6.7987,2.2961-1.9946,4.7737-3.7463,7.4339-5.2579l-2.4477-2.357-.4537-.3624c-1.2692-1.2084-2.5241-2.5977-3.7612-4.1701-1.2394-1.5708-2.357-3.2771-3.354-5.1217-.9981-1.8424-1.7993-3.7916-2.4024-5.8465-.6053-2.0538-.9063-4.1701-.9063-6.3456,0-3.8669.7248-7.4926,2.1755-10.8781,1.4496-3.3839,3.4127-6.3456,5.8914-8.8835,2.4776-2.5385,5.4078-4.5325,8.7939-5.9832,3.3839-1.4502,7.009-2.1755,10.8775-2.1755,3.8663,0,7.4782.7254,10.8322,2.1755,3.3551,1.4507,6.2698,3.4154,8.7485,5.8925,2.4765,2.4787,4.4263,5.4094,5.8471,8.7928,1.4186,3.3855,2.1301,7.0112,2.1301,10.8781,0,6.5271-1.89,12.102-5.6656,16.7252-3.7778,4.6232-9.3527,8.2644-16.7258,10.9229l28.5549,26.5609,13.416-15.6828c1.0269-1.2078,2.326-1.8878,3.8984-2.0394,1.5713-.1499,2.9601.317,4.1695,1.4048,1.2084.9677,1.859,2.2662,1.9498,3.8984.0907,1.6316-.4083,3.0519-1.4961,4.2603l-13.6882,15.773,18.9455,17.5861c1.5105,1.3301,2.357,2.6602,2.5385,3.9886.1815,1.3301-.1516,2.4787-.997,3.4447-1.1486,1.391-2.4477,2.1755-3.8984,2.357-1.4496.1815-2.7797-.2722-3.9881-1.36l-19.5807-17.9485-6.4358,7.4334c-1.693,1.9348-3.5808,3.7026-5.6656,5.3027-2.0848,1.6023-4.2758,2.9778-6.5719,4.1247-2.2983,1.1486-4.6841,2.0256-7.1617,2.6292-2.4787.6031-4.9264.9063-7.3432.9063-4.8943,0-9.4722-.9378-13.7325-2.8101-4.2614-1.8723-7.9927-4.4108-11.1962-7.6148-3.2035-3.2024-5.7265-6.9343-7.5689-11.1951-1.8435-4.2603-2.7642-8.8072-2.7642-13.6429ZM259.722,312.6115l-33.3586-30.7299c-4.8357,2.1158-8.7474,5.0919-11.7396,8.9289-2.991,3.8381-4.4871,8.4459-4.4871,13.8238,0,3.3247.6352,6.4817,1.9044,9.4733,1.2681,2.991,2.991,5.6203,5.1666,7.8865s4.7284,4.065,7.6597,5.3934c2.9313,1.3301,6.0883,1.9946,9.4733,1.9946,1.7517,0,3.4901-.2407,5.2119-.7254,1.7229-.483,3.3839-1.1176,4.9862-1.9038,1.6001-.7846,3.0962-1.6908,4.4871-2.7194,1.3898-1.0269,2.6292-2.0848,3.717-3.1725l.4526-.5439,6.5265-7.7056ZM229.6267,270.0065l2.8107-.8161h.1804c2.9014-.7846,5.4532-1.8269,7.6608-3.1272,2.2054-1.2991,4.0334-2.7653,5.4841-4.3969,1.4496-1.6316,2.5385-3.3839,3.2633-5.2573.7248-1.8729,1.0878-3.8077,1.0878-5.8017,0-2.357-.4083-4.5624-1.2239-6.6178-.8155-2.0538-1.9796-3.8525-3.4901-5.3934-1.5116-1.5409-3.2942-2.7493-5.348-3.6262-2.0549-.8753-4.3211-1.314-6.7987-1.314-2.357,0-4.548.4388-6.5719,1.314-2.0261.877-3.7778,2.0709-5.2584,3.5808-1.4817,1.5116-2.6447,3.2948-3.4901,5.3486-.8465,2.0549-1.2692,4.2603-1.2692,6.6173,0,1.4502.2722,2.9009.8166,4.351.5433,1.4507,1.2239,2.8417,2.0394,4.1701.8155,1.3301,1.7218,2.5694,2.7199,3.7164.997,1.1492,1.9177,2.1163,2.7642,2.9009l4.6232,4.3516Z"/>
    <path class="cls-7" d="M370.0423,223.4123c1.5713,0,2.9014.5439,3.9892,1.6316,1.0878,1.0878,1.6311,2.4477,1.6311,4.0794s-.5433,2.991-1.6311,4.0794c-1.0878,1.0878-2.4178,1.6316-3.9892,1.6316h-46.5931v40.7017h33.8122c1.5702,0,2.9147.5594,4.0334,1.677,1.1176,1.1187,1.6776,2.4632,1.6776,4.034,0,1.5719-.5599,2.871-1.6776,3.8979-1.1187,1.028-2.4632,1.5409-4.0334,1.5409h-33.8122v47.1381c0,1.6316-.5599,2.9772-1.6776,4.034-1.1187,1.0579-2.4632,1.5863-4.0334,1.5863-1.6322,0-2.9922-.5439-4.0799-1.6316s-1.6311-2.4162-1.6311-3.9886v-104.882c0-.6036.104-1.2377.3165-1.9038.2114-.6639.5444-1.2687.997-1.8126.4537-.5439,1.0435-.9815,1.7683-1.3146.7248-.3314,1.6001-.4985,2.6292-.4985h52.3041Z"/>
  </g>
  <g>
    <path class="cls-7" d="M108.3729,148.5516c-2.6359-.9974-4.9904-2.2596-7.0614-3.785s-3.7469-3.3514-5.0268-5.4797c-1.281-2.1272-1.9209-4.6412-1.9209-7.5413,0-2.9376.6399-5.5829,1.9209-7.9369,1.2799-2.3534,2.9658-4.3499,5.0555-5.9884,2.0897-1.6379,4.4531-2.8996,7.0901-3.785,2.6348-.8843,5.3093-1.3273,8.0213-1.3273,2.1835,0,4.3119.2262,6.3839.678,2.0699.4518,4.0106,1.121,5.8179,2.0053,1.8084.8854,3.4457,1.9772,4.9154,3.2764,1.4685,1.2992,2.6922,2.8157,3.6719,4.5474.4138.678.5075,1.3659.2825,2.0621-.2262.6973-.5473,1.2523-.961,1.6666-.5274.4899-1.2148.7817-2.0621.8755-.8474.0943-1.666-.16-2.4571-.7624-2.1846-2.6739-4.5193-4.548-7.0051-5.621-2.4847-1.0736-5.3093-1.6103-8.4737-1.6103-1.7698,0-3.5395.2543-5.3093.763-1.7709.5081-3.3806,1.2523-4.8304,2.2315-1.4498.9798-2.637,2.2127-3.5594,3.7001-.9224,1.4879-1.3836,3.2113-1.3836,5.1686,0,2.0721.5451,3.7949,1.6385,5.1692,1.0912,1.3753,2.4759,2.5333,4.1519,3.4744,1.6749.9417,3.5108,1.7041,5.5079,2.2878,1.9959.5842,3.8981,1.1017,5.7054,1.5535,2.787.8667,5.5079,1.8453,8.1636,2.9376,2.6546,1.0923,5.0081,2.429,7.0614,4.0106,2.0522,1.5816,3.6995,3.4656,4.943,5.6491,1.2424,2.1846,1.8635,4.8017,1.8635,7.8525,0,3.2764-.6499,6.2422-1.9485,8.8973-1.2997,2.6546-3.0507,4.9341-5.2541,6.8352-2.2034,1.9022-4.7642,3.3707-7.6826,4.4062-2.9194,1.0355-5.979,1.5535-9.1798,1.5535-2.6745,0-5.2541-.358-7.7388-1.073-2.4858-.715-4.7742-1.6854-6.8639-2.9095-2.0908-1.2236-3.918-2.6734-5.4803-4.3499-1.5623-1.6754-2.7584-3.4739-3.587-5.3948-.5649-1.2048-.6499-2.2122-.2538-3.0221.395-.8099.9687-1.4211,1.7223-1.836.8661-.4893,1.6859-.5936,2.4582-.3111.7712.2825,1.5712.9516,2.4009,2.0059.715,1.5066,1.6848,2.8621,2.9084,4.0669,1.2236,1.206,2.6083,2.2315,4.153,3.0789,1.5436.8474,3.2195,1.4972,5.0268,1.9491,1.8084.4518,3.6719.678,5.5928.678,1.9959,0,3.9831-.3012,5.9602-.9042,1.9772-.6019,3.7569-1.5055,5.338-2.7115,1.5822-1.2048,2.8621-2.7015,3.8418-4.4911.9787-1.788,1.4685-3.8501,1.4685-6.1853,0-2.1471-.4899-3.945-1.4685-5.3953-.9798-1.4492-2.2795-2.6922-3.8981-3.7282-1.6197-1.0355-3.4457-1.9209-5.4792-2.6552-2.0346-.7343-4.0868-1.4404-6.1577-2.1184-2.712-.6399-5.3865-1.4592-8.0224-2.4571Z"/>
    <path class="cls-7" d="M158.7614,182.0788c0,.9798-.3487,1.8078-1.0449,2.4858-.6973.678-1.5347,1.0167-2.5134,1.0167-.9798,0-1.8183-.3387-2.5145-1.0167-.6973-.678-1.0449-1.5061-1.0449-2.4858v-65.3034c0-1.0167.3476-1.8547,1.0449-2.514.6962-.6587,1.5347-.9886,2.5145-.9886.9787,0,1.8161.3299,2.5134.9886.6962.6592,1.0449,1.4972,1.0449,2.514v65.3034Z"/>
    <path class="cls-7" d="M180.5656,127.565l-5.9316-8.4737c-.3762-.4888-.5925-1.0636-.6499-1.7229-.0563-.6587.0287-1.2799.2549-1.8641.2262-.5837.5737-1.0824,1.0449-1.4972.47-.4138,1.0449-.6212,1.7234-.6212h.2825c.3751.0756.7525.1887,1.1298.3387h.1125c.075.0761.1501.123.2262.1412.075.0193.1501.0662.2262.1412l.2251.1131c.1136.0761.2163.1694.3111.2825.0938.1131.1975.2262.3111.3387l.1688.2825,39.5443,56.3217v-54.5139c0-.9787.3476-1.8167,1.0449-2.514.6973-.6962,1.5535-1.0449,2.5708-1.0449s1.8547.3487,2.5134,1.0449c.6587.6973.9886,1.5353.9886,2.514v65.2472c0,.8667-.2736,1.6197-.8187,2.2596-.5462.641-1.2335,1.0366-2.0621,1.1866-.1512.0375-.3762.0563-.6775.0563-1.0548,0-1.9408-.3575-2.6557-1.0736l-.2251-.3387-.1699-.1694-39.488-56.4348v54.5139c0,.9798-.3487,1.8078-1.0449,2.4858-.6973.678-1.5347,1.0167-2.5134,1.0167-.9798,0-1.8183-.3387-2.5145-1.0167-.6973-.678-1.0449-1.5061-1.0449-2.4858v-65.1903c0-.9792.3476-1.8078,1.0449-2.4858.6962-.678,1.5347-1.0167,2.5145-1.0167h.2825c.4138.0756.79.1887,1.1298.3387h.1125c.075.0761.1501.123.2262.1412.075.0193.1501.0662.2262.1412.075,0,.1501.0381.2251.1131.4149.3018.7437.6973.9886,1.1861.2449.4899.3674,1.0173.3674,1.5822v10.6765Z"/>
    <path class="cls-7" d="M298.0675,126.1527c0,.9417-.3398,1.7709-1.0173,2.4858-.7161.678-1.5734,1.0267-2.5708,1.0449-.9974.0193-1.8172-.3106-2.4571-.9886-2.9757-2.9376-6.2703-5.1405-9.8859-6.6096-3.6156-1.4685-7.3626-2.2028-11.2419-2.2028-4.0669,0-7.8999.7723-11.4957,2.3159-3.5969,1.5447-6.7315,3.6537-9.406,6.3271-2.6745,2.6745-4.783,5.8185-6.3266,9.4341-1.5447,3.6151-2.3159,7.4762-2.3159,11.5807,0,3.9544.7425,7.7206,2.231,11.2982,1.4873,3.5781,3.5395,6.7221,6.1577,9.4341,2.6171,2.7115,5.7241,4.8679,9.321,6.4678,3.5958,1.6015,7.5038,2.4009,11.7219,2.4009,3.8782.0381,7.6064-.6212,11.1857-1.9772,3.577-1.3555,6.8716-3.5395,9.8859-6.5527.715-.678,1.5623-1.0256,2.5421-1.0449.9787-.0188,1.8073.2918,2.4847.9318.715.678,1.0636,1.5254,1.046,2.5421-.0199,1.0167-.3487,1.8459-.9886,2.4858-3.6918,3.6912-7.7774,6.4115-12.2592,8.1631-4.4818,1.751-9.1147,2.6265-13.8966,2.6265-3.3519,0-6.5914-.443-9.716-1.3273-3.1269-.8843-6.0452-2.1184-8.7561-3.7001-2.712-1.5822-5.1791-3.4932-7.4012-5.7341-2.2221-2.2403-4.1232-4.7256-5.7054-7.4569-1.5811-2.7302-2.8058-5.6579-3.6719-8.7842-.8661-3.1258-1.2986-6.3834-1.2986-9.7728,0-3.2008.4138-6.3459,1.2424-9.4341.8275-3.0877,2.0059-5.9878,3.5307-8.6998,1.5248-2.7115,3.3795-5.2155,5.5641-7.5132,2.1835-2.2966,4.6418-4.2738,7.3725-5.9316,2.7297-1.6567,5.6855-2.9465,8.8687-3.8694,3.182-.9224,6.5616-1.3841,10.1408-1.3841,4.7444,0,9.3674.9235,13.8679,2.7683,4.5005,1.8453,8.5586,4.5756,12.1743,8.1912.715.7155,1.0736,1.5447,1.0736,2.4853Z"/>
    <path class="cls-7" d="M353.9076,115.6456c4.4619,1.9204,8.36,4.5474,11.6932,7.8806,3.3332,3.3326,5.9691,7.2219,7.9087,11.6651,1.9397,4.4443,2.9095,9.2079,2.9095,14.2921,0,3.3895-.4435,6.6576-1.3273,9.8015-.886,3.1451-2.1184,6.0728-3.7006,8.7842-1.5822,2.7115-3.502,5.1973-5.7616,7.4569-2.2596,2.2596-4.7455,4.18-7.4575,5.7622-2.7109,1.5816-5.6403,2.8157-8.7837,3.7001-3.1456.8843-6.4126,1.3273-9.8021,1.3273s-6.6565-.443-9.801-1.3273-6.0728-2.1184-8.7837-3.7001c-2.712-1.5822-5.1791-3.5026-7.4012-5.7622-2.2221-2.2596-4.1232-4.7455-5.7054-7.4569-1.5811-2.7115-2.8058-5.6392-3.6719-8.7842-.8661-3.144-1.2986-6.4121-1.2986-9.8015s.4325-6.6465,1.2986-9.7728c.8661-3.1252,2.0908-6.0447,3.6719-8.7561,1.5822-2.7115,3.4832-5.1874,5.7054-7.4282,2.2221-2.2403,4.6892-4.1612,7.4012-5.7622,2.7109-1.6004,5.6392-2.8334,8.7837-3.7001,3.1445-.8661,6.4115-1.2997,9.801-1.2997,5.0842,0,9.8583.9605,14.3214,2.8814ZM328.0343,122.2551c-3.5969,1.5447-6.7227,3.6532-9.3773,6.3266-2.6557,2.6745-4.7554,5.8003-6.299,9.3778-1.5447,3.5781-2.3159,7.4194-2.3159,11.5238,0,4.1436.7712,8.013,2.3159,11.6094,1.5436,3.5969,3.6432,6.732,6.299,9.4054,2.6546,2.6745,5.7804,4.7835,9.3773,6.3271,3.5958,1.5447,7.4652,2.3159,11.6094,2.3159,4.1044,0,7.9551-.7712,11.552-2.3159,3.5958-1.5436,6.7315-3.6526,9.406-6.3271s4.7819-5.8085,6.3266-9.4054c1.5436-3.5963,2.3159-7.4658,2.3159-11.6094,0-4.1044-.7723-7.9457-2.3159-11.5238-1.5447-3.5776-3.6532-6.7033-6.3266-9.3778-2.6745-2.6734-5.8102-4.7819-9.406-6.3266-3.5969-1.5441-7.4476-2.3165-11.552-2.3165-4.1441,0-8.0136.7723-11.6094,2.3165Z"/>
  </g>
</svg>