<?xml version="1.0" encoding="UTF-8"?>
<svg id="RE" xmlns="http://www.w3.org/2000/svg" xmlns:xlink="http://www.w3.org/1999/xlink" viewBox="0 0 453.5433 453.5433">
  <defs>
    <style>
      .cls-1 {
        fill: url(#Degradado_sin_nombre_11-2);
      }

      .cls-1, .cls-2, .cls-3, .cls-4, .cls-5, .cls-6, .cls-7 {
        stroke-width: 0px;
      }

      .cls-2 {
        fill: url(#Degradado_sin_nombre_11-3);
      }

      .cls-3 {
        fill: url(#Degradado_sin_nombre_11-5);
      }

      .cls-4 {
        fill: url(#Degradado_sin_nombre_11);
      }

      .cls-5 {
        fill: #fff;
      }

      .cls-6 {
        fill: url(#Degradado_sin_nombre_22);
      }

      .cls-7 {
        fill: url(#Degradado_sin_nombre_11-4);
      }
    </style>
    <linearGradient id="Degradado_sin_nombre_22" data-name="Degradado sin nombre 22" x1="226.7717" y1="393.4244" x2="226.7717" y2="60.1189" gradientUnits="userSpaceOnUse">
      <stop offset="0" stop-color="#953e49"/>
      <stop offset=".0319" stop-color="#963e4a"/>
      <stop offset=".4053" stop-color="#a34659"/>
      <stop offset=".7087" stop-color="#a8495f"/>
    </linearGradient>
    <linearGradient id="Degradado_sin_nombre_11" data-name="Degradado sin nombre 11" x1="-14.0718" y1="319.7509" x2="180.4158" y2="-17.1115" gradientUnits="userSpaceOnUse">
      <stop offset="0" stop-color="#953e49"/>
      <stop offset=".4321" stop-color="#963e4a"/>
      <stop offset=".5875" stop-color="#9c4251"/>
      <stop offset=".6981" stop-color="#a6485d"/>
      <stop offset=".7087" stop-color="#a8495f"/>
    </linearGradient>
    <linearGradient id="Degradado_sin_nombre_11-2" data-name="Degradado sin nombre 11" x1="-649.569" y1="1049.7156" x2="-427.1009" y2="1049.7156" gradientTransform="translate(-874.5188 -210.0538) rotate(-90)" xlink:href="#Degradado_sin_nombre_11"/>
    <linearGradient id="Degradado_sin_nombre_11-3" data-name="Degradado sin nombre 11" x1="-1623.4917" y1="454.6054" x2="-1329.1999" y2="207.6652" gradientTransform="translate(-1131.9251 642.5821) rotate(-180)" xlink:href="#Degradado_sin_nombre_11"/>
    <linearGradient id="Degradado_sin_nombre_11-4" data-name="Degradado sin nombre 11" x1="117.6042" y1="14.1612" x2="122.7773" y2="14.1612" xlink:href="#Degradado_sin_nombre_11"/>
    <linearGradient id="Degradado_sin_nombre_11-5" data-name="Degradado sin nombre 11" x1="134.9218" y1="124.6425" x2="439.0892" y2="124.6425" xlink:href="#Degradado_sin_nombre_11"/>
  </defs>
  <g>
    <rect class="cls-6" x="56.7178" y="60.1189" width="340.1077" height="333.3056"/>
    <path class="cls-4" d="M124.4026,14.0281C63.6799,14.0281,14.4541,62.6329,14.4541,122.5894v213.6309c60.7232,0,109.9485-48.6043,109.9485-108.5614v-105.0695c0-59.9566,49.2258-108.5614,109.9485-108.5614h-109.9485Z"/>
    <path class="cls-1" d="M14.4541,328.2812c0,61.4329,48.4982,111.234,108.3232,111.234h213.1623c0-61.4329-48.4977-111.234-108.3227-111.234h-104.8396c-59.825,0-108.3232-49.8009-108.3232-111.234v111.234Z"/>
    <path class="cls-2" d="M328.4739,439.5152c61.0911,0,110.6151-48.6045,110.6151-108.5614V117.323c-61.0911,0-110.6151,48.6048-110.6151,108.5614v105.0695c0,59.9568-49.5245,108.5614-110.6156,108.5614h110.6156Z"/>
    <g>
      <path class="cls-7" d="M122.7773,14.0281h-5.1731c0,.0903.0123.1765.0128.2663,1.7221-.083,3.4187-.2663,5.1603-.2663Z"/>
      <path class="cls-3" d="M330.7665,14.0281h-99.666c-41.8918,0-78.1576,24.3255-96.1787,59.8592,19.2851,30.5087,52.7999,50.7552,91.0051,50.7552h104.8396c59.825,0,108.3227,49.5235,108.3227,110.6144v-110.6144c0-61.0904-48.4977-110.6144-108.3227-110.6144Z"/>
    </g>
  </g>
  <g>
    <path class="cls-5" d="M195.9501,241.8429c0,1.5401-.5536,2.8954-1.6619,4.064-1.1703,1.1083-2.5718,1.6788-4.2033,1.7087-1.6315.0321-2.9709-.5079-4.0172-1.6163-4.8651-4.8031-10.2522-8.4048-16.1636-10.8064-5.9114-2.4015-12.0393-3.6023-18.3803-3.6023-6.651,0-12.9165,1.2628-18.7963,3.7872-5.881,2.5256-11.0077,5.9729-15.3789,10.3447-4.3724,4.3724-7.8202,9.5132-10.3447,15.4246-2.5256,5.9114-3.7872,12.2236-3.7872,18.9344,0,6.4656,1.2154,12.6233,3.6485,18.4727,2.432,5.8505,5.7874,10.9913,10.0685,15.4246,4.2788,4.4338,9.3581,7.9595,15.2391,10.5758,5.8798,2.618,12.2693,3.9253,19.1661,3.9253,6.341.062,12.4373-1.0159,18.2878-3.2325,5.8494-2.2166,11.2365-5.7874,16.1636-10.7145,1.1692-1.1083,2.5549-1.6766,4.1559-1.7087,1.601-.0299,2.9563.4781,4.0646,1.5244,1.1692,1.1083,1.7386,2.4934,1.7081,4.1565-.0316,1.6625-.5694,3.0172-1.6157,4.0635-6.0354,6.0354-12.7158,10.4834-20.0433,13.3466-7.3287,2.8633-14.902,4.2952-22.7211,4.2952-5.4818,0-10.7765-.7244-15.8863-2.1704-5.112-1.446-9.8835-3.4636-14.3168-6.0501-4.4333-2.5859-8.4674-5.7107-12.1002-9.3751-3.6339-3.6626-6.7424-7.7267-9.3277-12.1915-2.5865-4.4643-4.5889-9.251-6.0039-14.3631-1.4173-5.1103-2.1242-10.4371-2.1242-15.9787,0-5.2327.6765-10.3751,2.0317-15.4246,1.353-5.0483,3.2787-9.7905,5.7727-14.2244,2.494-4.4333,5.5258-8.5277,9.0977-12.284,3.5708-3.7551,7.588-6.9882,12.0528-9.6981,4.4648-2.7094,9.2973-4.8178,14.5017-6.3275,5.2022-1.508,10.728-2.2629,16.5797-2.2629,7.7582,0,15.3158,1.5097,22.6749,4.5263,7.3569,3.0177,13.9932,7.4814,19.9046,13.3923,1.1681,1.1709,1.7544,2.5256,1.7544,4.064Z"/>
    <path class="cls-5" d="M217.7456,339.0097c-1.6022,0-2.9721-.5542-4.1108-1.6625-1.1399-1.1083-1.7081-2.4619-1.7081-4.064v-106.7724c0-1.6625.5683-3.0324,1.7081-4.1103,1.1388-1.0767,2.5087-1.6163,4.1108-1.6163h31.865c4.2484,0,8.2205.8169,11.9153,2.4478,3.6936,1.632,6.9273,3.8329,9.6975,6.6037,2.7714,2.7708,4.9418,6.0197,6.5124,9.7443,1.5695,3.7263,2.3553,7.7126,2.3553,11.9615,0,5.0494-1.1252,9.6834-3.3723,13.9002-2.2482,4.2185-5.2496,7.7126-9.0052,10.4834,2.6473,1.4173,5.0489,3.1406,7.2046,5.1723,2.1546,2.0323,4.0015,4.3109,5.5416,6.8348,1.539,2.5256,2.7398,5.2648,3.6023,8.2205.8614,2.9557,1.2932,6.0659,1.2932,9.3288,0,4.8031-.9088,9.2522-2.7251,13.3466-1.8164,4.0956-4.2946,7.6359-7.4346,10.6221-3.1401,2.9873-6.8348,5.3268-11.0843,7.0192-4.2484,1.6946-8.8057,2.5402-13.6696,2.5402h-32.696ZM223.5645,232.4221v39.2546h25.2151c2.8311,0,5.4491-.5542,7.8507-1.6625,2.4015-1.1089,4.4795-2.5865,6.2339-4.4338,1.7555-1.8474,3.1254-3.9558,4.1108-6.3269.9843-2.3694,1.4781-4.8172,1.4781-7.3428s-.4938-4.9559-1.4781-7.2965c-.9854-2.3395-2.3553-4.4181-4.1108-6.235-1.7544-1.8153-3.8019-3.2629-6.1414-4.3408-2.3407-1.0767-4.8955-1.6163-7.6669-1.6163h-25.4913ZM223.5645,282.2057v45.166h26.5083c3.3847,0,6.5259-.6145,9.4202-1.8474,2.8943-1.2307,5.3883-2.8773,7.482-4.9412,2.0926-2.0622,3.741-4.4637,4.9418-7.2046,1.2008-2.7387,1.8006-5.6481,1.8006-8.7279,0-3.1406-.5998-6.0805-1.8006-8.8209-1.2008-2.7392-2.8638-5.1261-4.988-7.1584-2.1242-2.0317-4.6498-3.6164-7.5733-4.7569-2.9258-1.1382-6.0817-1.7087-9.4675-1.7087h-26.3234Z"/>
    <path class="cls-5" d="M375.9635,254.5891c0,4.188-.6923,8.114-2.078,11.7766-1.3857,3.6643-3.3103,6.9273-5.7727,9.7905-2.4636,2.8633-5.3883,5.2806-8.7741,7.2503-3.387,1.9714-7.0817,3.3255-11.0843,4.064l26.7857,42.8569c.8614,1.6022,1.0159,3.1722.4623,4.7106-.5547,1.5396-1.5706,2.6479-3.0487,3.325-1.4161.7391-2.848.8777-4.2946.4155-1.4477-.4617-2.5718-1.3693-3.3712-2.7246l-29.4635-47.9368h-19.4886v45.166c0,1.6022-.5705,2.9557-1.7093,4.064-1.1399,1.1083-2.5098,1.6625-4.1097,1.6625-1.6022,0-2.9721-.5542-4.1108-1.6625-1.1399-1.1083-1.7081-2.4619-1.7081-4.064v-106.7724c0-1.6625.5683-3.0324,1.7081-4.1103,1.1388-1.0767,2.5087-1.6163,4.1108-1.6163h31.0341c4.8628,0,9.4213.8631,13.6696,2.5859,4.2484,1.7251,7.9431,4.0962,11.0832,7.1122,3.1412,3.0177,5.6183,6.5896,7.4358,10.7139,1.8153,4.126,2.724,8.5903,2.724,13.3929ZM315.8358,232.2372v44.242h25.3076c3.325,0,6.403-.6004,9.2364-1.8012,2.8311-1.2002,5.2789-2.817,7.3422-4.8488,2.0622-2.0323,3.679-4.3876,4.8493-7.066,1.1692-2.6783,1.7555-5.4954,1.7555-8.4511,0-3.1406-.601-6.0501-1.8017-8.7284-1.2008-2.6789-2.8334-5.0021-4.8955-6.9735-2.0633-1.9697-4.5257-3.5245-7.3884-4.6644-2.8638-1.1388-5.9576-1.7087-9.2826-1.7087h-25.1227Z"/>
  </g>
  <g>
    <path class="cls-5" d="M107.7935,147.93c-2.6359-.9974-4.9904-2.2596-7.0614-3.785s-3.7469-3.3514-5.0268-5.4797c-1.281-2.1272-1.9209-4.6412-1.9209-7.5413,0-2.9376.6399-5.5829,1.9209-7.9369,1.2799-2.3534,2.9658-4.3499,5.0555-5.9884,2.0897-1.6379,4.4531-2.8996,7.0901-3.785,2.6348-.8843,5.3093-1.3273,8.0213-1.3273,2.1835,0,4.3119.2262,6.3839.678,2.0699.4518,4.0106,1.121,5.8179,2.0053,1.8084.8854,3.4457,1.9772,4.9154,3.2764,1.4685,1.2992,2.6922,2.8157,3.6719,4.5474.4138.678.5075,1.3659.2825,2.0621-.2262.6973-.5473,1.2523-.961,1.6666-.5274.4899-1.2148.7817-2.0621.8755-.8474.0943-1.666-.16-2.4571-.7624-2.1846-2.6739-4.5193-4.548-7.0051-5.621-2.4847-1.0736-5.3093-1.6103-8.4737-1.6103-1.7698,0-3.5395.2543-5.3093.763-1.7709.5081-3.3806,1.2523-4.8304,2.2315-1.4498.9798-2.637,2.2127-3.5594,3.7001-.9224,1.4879-1.3836,3.2113-1.3836,5.1686,0,2.0721.5451,3.7949,1.6385,5.1692,1.0912,1.3753,2.4759,2.5333,4.1519,3.4744,1.6749.9417,3.5108,1.7041,5.5079,2.2878,1.9959.5842,3.8981,1.1017,5.7054,1.5535,2.787.8667,5.5079,1.8453,8.1636,2.9376,2.6546,1.0923,5.0081,2.429,7.0614,4.0106,2.0522,1.5816,3.6995,3.4656,4.943,5.6491,1.2424,2.1846,1.8635,4.8017,1.8635,7.8525,0,3.2764-.6499,6.2422-1.9485,8.8973-1.2997,2.6546-3.0507,4.9341-5.2541,6.8352-2.2034,1.9022-4.7642,3.3707-7.6826,4.4062-2.9194,1.0355-5.979,1.5535-9.1798,1.5535-2.6745,0-5.2541-.358-7.7388-1.073-2.4858-.715-4.7742-1.6854-6.8639-2.9095-2.0908-1.2236-3.918-2.6734-5.4803-4.3499-1.5623-1.6754-2.7584-3.4739-3.587-5.3948-.5649-1.2048-.6499-2.2122-.2538-3.0221.395-.8099.9687-1.4211,1.7223-1.836.8661-.4893,1.6859-.5936,2.4582-.3111.7712.2825,1.5712.9516,2.4009,2.0059.715,1.5066,1.6848,2.8621,2.9084,4.0669,1.2236,1.206,2.6083,2.2315,4.153,3.0789,1.5436.8474,3.2195,1.4972,5.0268,1.9491,1.8084.4518,3.6719.678,5.5928.678,1.9959,0,3.9831-.3012,5.9602-.9042,1.9772-.6019,3.7569-1.5055,5.338-2.7115,1.5822-1.2048,2.8621-2.7015,3.8418-4.4911.9787-1.788,1.4685-3.8501,1.4685-6.1853,0-2.1471-.4899-3.945-1.4685-5.3953-.9798-1.4492-2.2795-2.6922-3.8981-3.7282-1.6197-1.0355-3.4457-1.9209-5.4792-2.6552-2.0346-.7343-4.0868-1.4404-6.1577-2.1184-2.712-.6399-5.3865-1.4592-8.0224-2.4571Z"/>
    <path class="cls-5" d="M158.1819,181.4572c0,.9798-.3487,1.8078-1.0449,2.4858-.6973.678-1.5347,1.0167-2.5134,1.0167-.9798,0-1.8183-.3387-2.5145-1.0167-.6973-.678-1.0449-1.5061-1.0449-2.4858v-65.3034c0-1.0167.3476-1.8547,1.0449-2.514.6962-.6587,1.5347-.9886,2.5145-.9886.9787,0,1.8161.3299,2.5134.9886.6962.6592,1.0449,1.4972,1.0449,2.514v65.3034Z"/>
    <path class="cls-5" d="M179.9861,126.9433l-5.9316-8.4737c-.3762-.4888-.5925-1.0636-.6499-1.7229-.0563-.6587.0287-1.2799.2549-1.8641.2262-.5837.5737-1.0824,1.0449-1.4972.47-.4138,1.0449-.6212,1.7234-.6212h.2825c.3751.0756.7525.1887,1.1298.3387h.1125c.075.0761.1501.123.2262.1412.075.0193.1501.0662.2262.1412l.2251.1131c.1136.0761.2163.1694.3111.2825.0938.1131.1975.2262.3111.3387l.1688.2825,39.5443,56.3217v-54.5139c0-.9787.3476-1.8167,1.0449-2.514.6973-.6962,1.5535-1.0449,2.5708-1.0449s1.8547.3487,2.5134,1.0449c.6587.6973.9886,1.5353.9886,2.514v65.2472c0,.8667-.2736,1.6197-.8187,2.2596-.5462.641-1.2335,1.0366-2.0621,1.1866-.1512.0375-.3762.0563-.6775.0563-1.0548,0-1.9408-.3575-2.6557-1.0736l-.2251-.3387-.1699-.1694-39.488-56.4348v54.5139c0,.9798-.3487,1.8078-1.0449,2.4858-.6973.678-1.5347,1.0167-2.5134,1.0167-.9798,0-1.8183-.3387-2.5145-1.0167-.6973-.678-1.0449-1.5061-1.0449-2.4858v-65.1903c0-.9792.3476-1.8078,1.0449-2.4858.6962-.678,1.5347-1.0167,2.5145-1.0167h.2825c.4138.0756.79.1887,1.1298.3387h.1125c.075.0761.1501.123.2262.1412.075.0193.1501.0662.2262.1412.075,0,.1501.0381.2251.1131.4149.3018.7437.6973.9886,1.1861.2449.4899.3674,1.0173.3674,1.5822v10.6765Z"/>
    <path class="cls-5" d="M297.4881,125.531c0,.9417-.3398,1.7709-1.0173,2.4858-.7161.678-1.5734,1.0267-2.5708,1.0449-.9974.0193-1.8172-.3106-2.4571-.9886-2.9757-2.9376-6.2703-5.1405-9.8859-6.6096-3.6156-1.4685-7.3626-2.2028-11.2419-2.2028-4.0669,0-7.8999.7723-11.4957,2.3159-3.5969,1.5447-6.7315,3.6537-9.406,6.3271-2.6745,2.6745-4.783,5.8185-6.3266,9.4341-1.5447,3.6151-2.3159,7.4762-2.3159,11.5807,0,3.9544.7425,7.7206,2.231,11.2982,1.4873,3.5781,3.5395,6.7221,6.1577,9.4341,2.6171,2.7115,5.7241,4.8679,9.321,6.4678,3.5958,1.6015,7.5038,2.4009,11.7219,2.4009,3.8782.0381,7.6064-.6212,11.1857-1.9772,3.577-1.3555,6.8716-3.5395,9.8859-6.5527.715-.678,1.5623-1.0256,2.5421-1.0449.9787-.0188,1.8073.2918,2.4847.9318.715.678,1.0636,1.5254,1.046,2.5421-.0199,1.0167-.3487,1.8459-.9886,2.4858-3.6918,3.6912-7.7774,6.4115-12.2592,8.1631-4.4818,1.751-9.1147,2.6265-13.8966,2.6265-3.3519,0-6.5914-.443-9.716-1.3273-3.1269-.8843-6.0452-2.1184-8.7561-3.7001-2.712-1.5822-5.1791-3.4932-7.4012-5.7341-2.2221-2.2403-4.1232-4.7256-5.7054-7.4569-1.5811-2.7302-2.8058-5.6579-3.6719-8.7842-.8661-3.1258-1.2986-6.3834-1.2986-9.7728,0-3.2008.4138-6.3459,1.2424-9.4341.8275-3.0877,2.0059-5.9878,3.5307-8.6998,1.5248-2.7115,3.3795-5.2155,5.5641-7.5132,2.1835-2.2966,4.6418-4.2738,7.3725-5.9316,2.7297-1.6567,5.6855-2.9465,8.8687-3.8694,3.182-.9224,6.5616-1.3841,10.1408-1.3841,4.7444,0,9.3674.9235,13.8679,2.7683,4.5005,1.8453,8.5586,4.5756,12.1743,8.1912.715.7155,1.0736,1.5447,1.0736,2.4853Z"/>
    <path class="cls-5" d="M353.3282,115.0239c4.4619,1.9204,8.36,4.5474,11.6932,7.8806,3.3332,3.3326,5.9691,7.2219,7.9087,11.6651,1.9397,4.4443,2.9095,9.2079,2.9095,14.2921,0,3.3895-.4435,6.6576-1.3273,9.8015-.886,3.1451-2.1184,6.0728-3.7006,8.7842s-3.502,5.1973-5.7616,7.4569c-2.2596,2.2596-4.7455,4.18-7.4575,5.7622-2.7109,1.5816-5.6403,2.8157-8.7837,3.7001-3.1456.8843-6.4126,1.3273-9.8021,1.3273s-6.6565-.443-9.801-1.3273c-3.1445-.8843-6.0728-2.1184-8.7837-3.7001-2.712-1.5822-5.1791-3.5026-7.4012-5.7622-2.2221-2.2596-4.1232-4.7455-5.7054-7.4569-1.5811-2.7115-2.8058-5.6392-3.6719-8.7842-.8661-3.144-1.2986-6.4121-1.2986-9.8015s.4325-6.6465,1.2986-9.7728c.8661-3.1252,2.0908-6.0447,3.6719-8.7561,1.5822-2.7115,3.4832-5.1874,5.7054-7.4282,2.2221-2.2403,4.6892-4.1612,7.4012-5.7622,2.7109-1.6004,5.6392-2.8334,8.7837-3.7001,3.1445-.8661,6.4115-1.2997,9.801-1.2997,5.0842,0,9.8583.9605,14.3214,2.8814ZM327.4548,121.6335c-3.5969,1.5447-6.7227,3.6532-9.3773,6.3266-2.6557,2.6745-4.7554,5.8003-6.299,9.3778-1.5447,3.5781-2.3159,7.4194-2.3159,11.5238,0,4.1436.7712,8.013,2.3159,11.6094,1.5436,3.5969,3.6432,6.732,6.299,9.4054,2.6546,2.6745,5.7804,4.7835,9.3773,6.3271,3.5958,1.5447,7.4652,2.3159,11.6094,2.3159,4.1044,0,7.9551-.7712,11.552-2.3159,3.5958-1.5436,6.7315-3.6526,9.406-6.3271,2.6734-2.6734,4.7819-5.8085,6.3266-9.4054,1.5436-3.5963,2.3159-7.4658,2.3159-11.6094,0-4.1044-.7723-7.9457-2.3159-11.5238-1.5447-3.5776-3.6532-6.7033-6.3266-9.3778-2.6745-2.6734-5.8102-4.7819-9.406-6.3266-3.5969-1.5441-7.4476-2.3165-11.552-2.3165-4.1441,0-8.0136.7723-11.6094,2.3165Z"/>
  </g>
</svg>