<?xml version="1.0" encoding="UTF-8"?>
<svg id="RE" xmlns="http://www.w3.org/2000/svg" xmlns:xlink="http://www.w3.org/1999/xlink" viewBox="0 0 453.5433 453.5433">
  <defs>
    <style>
      .cls-1 {
        fill: url(#Degradado_sin_nombre_14);
      }

      .cls-1, .cls-2, .cls-3, .cls-4, .cls-5, .cls-6, .cls-7 {
        stroke-width: 0px;
      }

      .cls-2 {
        fill: url(#Degradado_sin_nombre_14-2);
      }

      .cls-3 {
        fill: url(#Degradado_sin_nombre_14-3);
      }

      .cls-4 {
        fill: url(#Degradado_sin_nombre_14-4);
      }

      .cls-5 {
        fill: url(#Degradado_sin_nombre_14-5);
      }

      .cls-6 {
        fill: url(#Degradado_sin_nombre_14-6);
      }

      .cls-7 {
        fill: #fff;
      }
    </style>
    <linearGradient id="Degradado_sin_nombre_14" data-name="Degradado sin nombre 14" x1="56.7178" y1="226.7717" x2="396.8255" y2="226.7717" gradientUnits="userSpaceOnUse">
      <stop offset="0" stop-color="#5c8045"/>
      <stop offset="1" stop-color="#76a258"/>
    </linearGradient>
    <linearGradient id="Degradado_sin_nombre_14-2" data-name="Degradado sin nombre 14" x1="14.4541" y1="175.1242" x2="234.3511" y2="175.1242" xlink:href="#Degradado_sin_nombre_14"/>
    <linearGradient id="Degradado_sin_nombre_14-3" data-name="Degradado sin nombre 14" x1="-1597.8243" y1="1048.1837" x2="-1375.3563" y2="1048.1837" gradientTransform="translate(-872.9869 -1158.3091) rotate(-90)" xlink:href="#Degradado_sin_nombre_14"/>
    <linearGradient id="Degradado_sin_nombre_14-4" data-name="Degradado sin nombre 14" x1="-2517.7376" y1="-585.6242" x2="-2296.5068" y2="-585.6242" gradientTransform="translate(-2078.6485 -307.2051) rotate(-180)" xlink:href="#Degradado_sin_nombre_14"/>
    <linearGradient id="Degradado_sin_nombre_14-5" data-name="Degradado sin nombre 14" x1="117.6042" y1="14.1612" x2="122.7773" y2="14.1612" xlink:href="#Degradado_sin_nombre_14"/>
    <linearGradient id="Degradado_sin_nombre_14-6" data-name="Degradado sin nombre 14" x1="134.9218" y1="124.6425" x2="439.0892" y2="124.6425" xlink:href="#Degradado_sin_nombre_14"/>
  </defs>
  <g>
    <rect class="cls-1" x="56.7178" y="60.1189" width="340.1077" height="333.3056"/>
    <path class="cls-2" d="M124.4026,14.0281C63.6799,14.0281,14.4541,62.6329,14.4541,122.5894v213.6309c60.7232,0,109.9485-48.6043,109.9485-108.5614v-105.0695c0-59.9566,49.2258-108.5614,109.9485-108.5614h-109.9485Z"/>
    <path class="cls-3" d="M14.4541,328.2812c0,61.4329,48.4982,111.234,108.3232,111.234h213.1623c0-61.4329-48.4977-111.234-108.3227-111.234h-104.8396c-59.825,0-108.3232-49.8009-108.3232-111.234v111.234Z"/>
    <path class="cls-4" d="M328.4739,439.5152c61.0911,0,110.6151-48.6045,110.6151-108.5614V117.323c-61.0911,0-110.6151,48.6048-110.6151,108.5614v105.0695c0,59.9568-49.5245,108.5614-110.6156,108.5614h110.6156Z"/>
    <g>
      <path class="cls-5" d="M122.7773,14.0281h-5.1731c0,.0903.0123.1765.0128.2663,1.7221-.083,3.4187-.2663,5.1603-.2663Z"/>
      <path class="cls-6" d="M330.7665,14.0281h-99.666c-41.8918,0-78.1576,24.3255-96.1787,59.8592,19.2851,30.5087,52.7999,50.7552,91.0051,50.7552h104.8396c59.825,0,108.3227,49.5235,108.3227,110.6144v-110.6144c0-61.0904-48.4977-110.6144-108.3227-110.6144Z"/>
    </g>
  </g>
  <g>
    <path class="cls-7" d="M107.8365,150.2376c-2.6359-.9974-4.9904-2.2596-7.0614-3.785-2.071-1.5254-3.7469-3.3514-5.0268-5.4797-1.281-2.1272-1.9209-4.6412-1.9209-7.5413,0-2.9376.6399-5.5829,1.9209-7.9369,1.2799-2.3534,2.9658-4.3499,5.0555-5.9884,2.0897-1.6379,4.4531-2.8996,7.0901-3.785,2.6348-.8843,5.3093-1.3273,8.0213-1.3273,2.1835,0,4.3119.2262,6.3839.678,2.0699.4518,4.0106,1.121,5.8179,2.0053,1.8084.8854,3.4457,1.9772,4.9154,3.2764,1.4685,1.2992,2.6922,2.8157,3.6719,4.5474.4138.678.5075,1.3659.2825,2.0621-.2262.6973-.5473,1.2523-.961,1.6666-.5274.4899-1.2148.7817-2.0621.8755-.8474.0943-1.666-.16-2.4571-.7624-2.1846-2.6739-4.5193-4.548-7.0051-5.621-2.4847-1.0736-5.3093-1.6103-8.4737-1.6103-1.7698,0-3.5395.2543-5.3093.763-1.7709.5081-3.3806,1.2523-4.8304,2.2315-1.4498.9798-2.637,2.2127-3.5594,3.7001-.9224,1.4879-1.3836,3.2113-1.3836,5.1686,0,2.0721.5451,3.7949,1.6385,5.1692,1.0912,1.3753,2.4759,2.5333,4.1519,3.4744,1.6749.9417,3.5108,1.7041,5.5079,2.2878,1.9959.5842,3.8981,1.1017,5.7054,1.5535,2.787.8667,5.5079,1.8453,8.1636,2.9376,2.6546,1.0923,5.0081,2.429,7.0614,4.0106,2.0522,1.5816,3.6995,3.4656,4.943,5.6491,1.2424,2.1846,1.8635,4.8017,1.8635,7.8525,0,3.2764-.6499,6.2422-1.9485,8.8973-1.2997,2.6546-3.0507,4.9341-5.2541,6.8352-2.2034,1.9022-4.7642,3.3707-7.6826,4.4062-2.9194,1.0355-5.979,1.5535-9.1798,1.5535-2.6745,0-5.2541-.358-7.7388-1.073-2.4858-.715-4.7742-1.6854-6.8639-2.9095-2.0908-1.2236-3.918-2.6734-5.4803-4.3499-1.5623-1.6754-2.7584-3.4739-3.587-5.3948-.5649-1.2048-.6499-2.2122-.2538-3.0221.395-.8099.9687-1.4211,1.7223-1.836.8661-.4893,1.6859-.5936,2.4582-.3111.7712.2825,1.5712.9516,2.4009,2.0059.715,1.5066,1.6848,2.8621,2.9084,4.0669,1.2236,1.206,2.6083,2.2315,4.153,3.0789,1.5436.8474,3.2195,1.4972,5.0268,1.9491,1.8084.4518,3.6719.678,5.5928.678,1.9959,0,3.9831-.3012,5.9602-.9042,1.9772-.6019,3.7569-1.5055,5.338-2.7115,1.5822-1.2048,2.8621-2.7015,3.8418-4.4911.9787-1.788,1.4685-3.8501,1.4685-6.1853,0-2.1471-.4899-3.945-1.4685-5.3953-.9798-1.4492-2.2795-2.6922-3.8981-3.7282-1.6197-1.0355-3.4457-1.9209-5.4792-2.6552-2.0346-.7343-4.0868-1.4404-6.1577-2.1184-2.712-.6399-5.3865-1.4592-8.0224-2.4571Z"/>
    <path class="cls-7" d="M158.225,183.7648c0,.9798-.3487,1.8078-1.0449,2.4858-.6973.678-1.5347,1.0167-2.5134,1.0167-.9798,0-1.8183-.3387-2.5145-1.0167-.6973-.678-1.0449-1.5061-1.0449-2.4858v-65.3034c0-1.0167.3476-1.8547,1.0449-2.514.6962-.6587,1.5347-.9886,2.5145-.9886.9787,0,1.8161.3299,2.5134.9886.6962.6592,1.0449,1.4972,1.0449,2.514v65.3034Z"/>
    <path class="cls-7" d="M180.0292,129.251l-5.9316-8.4737c-.3762-.4888-.5925-1.0636-.6499-1.7229-.0563-.6587.0287-1.2799.2549-1.8641.2262-.5837.5737-1.0824,1.0449-1.4972.47-.4138,1.0449-.6212,1.7234-.6212h.2825c.3751.0756.7525.1887,1.1298.3387h.1125c.075.0761.1501.123.2262.1412.075.0193.1501.0662.2262.1412l.2251.1131c.1136.0761.2163.1694.3111.2825.0938.1131.1975.2262.3111.3387l.1688.2825,39.5443,56.3217v-54.5139c0-.9787.3476-1.8167,1.0449-2.514.6973-.6962,1.5535-1.0449,2.5708-1.0449s1.8547.3487,2.5134,1.0449c.6587.6973.9886,1.5353.9886,2.514v65.2472c0,.8667-.2736,1.6197-.8187,2.2596-.5462.641-1.2335,1.0366-2.0621,1.1866-.1512.0375-.3762.0563-.6775.0563-1.0548,0-1.9408-.3575-2.6557-1.0736l-.2251-.3387-.1699-.1694-39.488-56.4348v54.5139c0,.9798-.3487,1.8078-1.0449,2.4858-.6973.678-1.5347,1.0167-2.5134,1.0167-.9798,0-1.8183-.3387-2.5145-1.0167-.6973-.678-1.0449-1.5061-1.0449-2.4858v-65.1903c0-.9792.3476-1.8078,1.0449-2.4858.6962-.678,1.5347-1.0167,2.5145-1.0167h.2825c.4138.0756.79.1887,1.1298.3387h.1125c.075.0761.1501.123.2262.1412.075.0193.1501.0662.2262.1412.075,0,.1501.0381.2251.1131.4149.3018.7437.6973.9886,1.1861.2449.4899.3674,1.0173.3674,1.5822v10.6765Z"/>
    <path class="cls-7" d="M297.5312,127.8387c0,.9417-.3398,1.7709-1.0173,2.4858-.7161.678-1.5734,1.0267-2.5708,1.0449-.9974.0193-1.8172-.3106-2.4571-.9886-2.9757-2.9376-6.2703-5.1405-9.8859-6.6096-3.6156-1.4685-7.3626-2.2028-11.2419-2.2028-4.0669,0-7.8999.7723-11.4957,2.3159-3.5969,1.5447-6.7315,3.6537-9.406,6.3271-2.6745,2.6745-4.783,5.8185-6.3266,9.4341-1.5447,3.6151-2.3159,7.4762-2.3159,11.5807,0,3.9544.7425,7.7206,2.231,11.2982,1.4873,3.5781,3.5395,6.7221,6.1577,9.4341,2.6171,2.7115,5.7241,4.8679,9.321,6.4678,3.5958,1.6015,7.5038,2.4009,11.7219,2.4009,3.8782.0381,7.6064-.6212,11.1857-1.9772,3.577-1.3555,6.8716-3.5395,9.8859-6.5527.715-.678,1.5623-1.0256,2.5421-1.0449.9787-.0188,1.8073.2918,2.4847.9318.715.678,1.0636,1.5254,1.046,2.5421-.0199,1.0167-.3487,1.8459-.9886,2.4858-3.6918,3.6912-7.7774,6.4115-12.2592,8.1631-4.4818,1.751-9.1147,2.6265-13.8966,2.6265-3.3519,0-6.5914-.443-9.716-1.3273-3.1269-.8843-6.0452-2.1184-8.7561-3.7001-2.712-1.5822-5.1791-3.4932-7.4012-5.7341-2.2221-2.2403-4.1232-4.7256-5.7054-7.4569-1.5811-2.7302-2.8058-5.6579-3.6719-8.7842-.8661-3.1258-1.2986-6.3834-1.2986-9.7728,0-3.2008.4138-6.3459,1.2424-9.4341.8275-3.0877,2.0059-5.9878,3.5307-8.6998,1.5248-2.7115,3.3795-5.2155,5.5641-7.5132,2.1835-2.2966,4.6418-4.2738,7.3725-5.9316,2.7297-1.6567,5.6855-2.9465,8.8687-3.8694,3.182-.9224,6.5616-1.3841,10.1408-1.3841,4.7444,0,9.3674.9235,13.8679,2.7683,4.5005,1.8453,8.5586,4.5756,12.1743,8.1912.715.7155,1.0736,1.5447,1.0736,2.4853Z"/>
    <path class="cls-7" d="M353.3712,117.3316c4.4619,1.9204,8.36,4.5474,11.6932,7.8806,3.3332,3.3326,5.9691,7.2219,7.9087,11.6651,1.9397,4.4443,2.9095,9.2079,2.9095,14.2921,0,3.3895-.4435,6.6576-1.3273,9.8015-.886,3.1451-2.1184,6.0728-3.7006,8.7842s-3.502,5.1973-5.7616,7.4569-4.7455,4.18-7.4575,5.7622c-2.7109,1.5816-5.6403,2.8157-8.7837,3.7001-3.1456.8843-6.4126,1.3273-9.8021,1.3273s-6.6565-.443-9.801-1.3273c-3.1445-.8843-6.0728-2.1184-8.7837-3.7001-2.712-1.5822-5.1791-3.5026-7.4012-5.7622-2.2221-2.2596-4.1232-4.7455-5.7054-7.4569-1.5811-2.7115-2.8058-5.6392-3.6719-8.7842-.8661-3.144-1.2986-6.4121-1.2986-9.8015s.4325-6.6465,1.2986-9.7728c.8661-3.1252,2.0908-6.0447,3.6719-8.7561,1.5822-2.7115,3.4832-5.1874,5.7054-7.4282,2.2221-2.2403,4.6892-4.1612,7.4012-5.7622,2.7109-1.6004,5.6392-2.8334,8.7837-3.7001,3.1445-.8661,6.4115-1.2997,9.801-1.2997,5.0842,0,9.8583.9605,14.3214,2.8814ZM327.4979,123.9412c-3.5969,1.5447-6.7227,3.6532-9.3773,6.3266-2.6557,2.6745-4.7554,5.8003-6.299,9.3778-1.5447,3.5781-2.3159,7.4194-2.3159,11.5238,0,4.1436.7712,8.013,2.3159,11.6094,1.5436,3.5969,3.6432,6.732,6.299,9.4054,2.6546,2.6745,5.7804,4.7835,9.3773,6.3271,3.5958,1.5447,7.4652,2.3159,11.6094,2.3159,4.1044,0,7.9551-.7712,11.552-2.3159,3.5958-1.5436,6.7315-3.6526,9.406-6.3271,2.6734-2.6734,4.7819-5.8085,6.3266-9.4054,1.5436-3.5963,2.3159-7.4658,2.3159-11.6094,0-4.1044-.7723-7.9457-2.3159-11.5238-1.5447-3.5776-3.6532-6.7033-6.3266-9.3778-2.6745-2.6734-5.8102-4.7819-9.406-6.3266-3.5969-1.5441-7.4476-2.3165-11.552-2.3165-4.1441,0-8.0136.7723-11.6094,2.3165Z"/>
  </g>
  <g>
    <path class="cls-7" d="M117.2218,280.9088c-4.1751-1.5793-7.9015-3.5779-11.1802-5.9924-3.2798-2.4151-5.934-5.3068-7.9604-8.6761-2.0275-3.3677-3.0407-7.3479-3.0407-11.9406,0-4.6506,1.0132-8.8393,3.0407-12.5662,2.0264-3.7258,4.6959-6.8872,8.0052-9.4808s7.0498-4.5911,11.2249-5.9924c4.1729-1.4003,8.407-2.1023,12.7-2.1023,3.4578,0,6.8271.3581,10.1069,1.0733,3.2787.7157,6.3511,1.7753,9.2127,3.1755,2.8627,1.4013,5.4558,3.1302,7.7814,5.1877,2.3256,2.057,4.2624,4.4579,5.8139,7.2.6551,1.0733.8047,2.1618.4476,3.2645-.3581,1.1038-.8658,1.9827-1.5209,2.6384-.8363.7757-1.9227,1.2381-3.2645,1.3866-1.3418.1496-2.6389-.2533-3.8912-1.2075-3.4589-4.233-7.1547-7.2-11.0906-8.8994-3.9349-1.6994-8.407-2.5494-13.4162-2.5494-2.8027,0-5.6054.4029-8.407,1.2075-2.8038.8052-5.3532,1.9833-7.6471,3.5331-2.2961,1.5509-4.1751,3.5036-5.6348,5.8581-1.4619,2.3561-2.1913,5.0846-2.1913,8.1842,0,3.2798.8636,6.0077,2.5931,8.1837,1.7294,2.1771,3.9207,4.0108,6.5738,5.5006,2.6531,1.4914,5.5595,2.699,8.7214,3.6226,3.1597.9248,6.1709,1.7442,9.0337,2.4593,4.4109,1.3724,8.7203,2.9222,12.9238,4.6511,4.2035,1.73,7.9298,3.8459,11.1802,6.3505,3.2492,2.5041,5.8587,5.4864,7.8261,8.9441,1.9674,3.4589,2.9512,7.6023,2.9512,12.4319,0,5.1877-1.0285,9.8836-3.0855,14.0871-2.057,4.204-4.8302,7.8125-8.3174,10.8226-3.4883,3.0118-7.5444,5.3368-12.165,6.9761-4.6216,1.6394-9.466,2.4599-14.5342,2.4599-4.2341,0-8.3174-.5672-12.2534-1.6994-3.9349-1.1322-7.5575-2.6678-10.8668-4.6064-3.3093-1.9369-6.2026-4.233-8.6755-6.8866-2.4751-2.6526-4.3683-5.5011-5.6796-8.5418-.8942-1.9079-1.0285-3.5025-.4029-4.7854.6267-1.2812,1.5351-2.2497,2.7284-2.9064,1.3713-.7746,2.6673-.9395,3.8901-.4924,1.2217.4476,2.4893,1.5067,3.8017,3.1755,1.1322,2.3856,2.6673,4.5321,4.6064,6.4395,1.9369,1.909,4.1281,3.5331,6.5738,4.8749,2.4446,1.3413,5.0977,2.3698,7.9604,3.0855,2.8616.7157,5.8139,1.0733,8.8546,1.0733,3.1597,0,6.3052-.4766,9.4354-1.4308,3.1313-.9532,5.9482-2.3845,8.4528-4.2936,2.5046-1.9074,4.531-4.2777,6.0814-7.1104,1.5504-2.8316,2.3256-6.0961,2.3256-9.7936,0-3.3988-.7752-6.2457-2.3256-8.5418-1.5504-2.295-3.6074-4.2624-6.1709-5.9034-2.5647-1.6388-5.4558-3.0407-8.6755-4.2035s-6.4712-2.2808-9.7499-3.354c-4.293-1.0132-8.5271-2.3103-12.7-3.8907Z"/>
    <path class="cls-7" d="M189.2192,282.3844c0,6.5602,1.2217,12.6869,3.6674,18.3801,2.4446,5.6949,5.7691,10.6588,9.9726,14.8923,4.2046,4.2346,9.1527,7.5728,14.8476,10.0174,5.6933,2.4457,11.8194,3.6669,18.3801,3.6669,5.3062,0,10.2248-.7446,14.7569-2.236,4.531-1.4898,8.5718-3.6221,12.1202-6.3947,3.5462-2.7727,6.529-6.1114,8.9441-10.0174,2.414-3.9049,4.1882-8.2738,5.3215-13.1034h-27.5486c-1.5504,0-2.8616-.5508-3.9349-1.6546-1.0733-1.1027-1.6104-2.4287-1.6104-3.9802,0-1.4898.5372-2.7869,1.6104-3.8907,1.0733-1.1027,2.3845-1.6546,3.9349-1.6546h33.8986c1.6683.06,3.0855.5967,4.2482,1.6099,1.1628,1.0148,1.7141,2.3561,1.6552,4.025-.6573,6.9177-2.4599,13.342-5.411,19.2743-2.9523,5.934-6.7834,11.077-11.4935,15.429-4.7112,4.3531-10.1822,7.7672-16.4121,10.2412-6.2321,2.4746-12.9555,3.7116-20.1691,3.7116-5.3674,0-10.5404-.6862-15.5179-2.057-4.9792-1.3713-9.6151-3.3235-13.9081-5.8587-4.293-2.5336-8.1995-5.5748-11.7173-9.1232-3.5189-3.5468-6.529-7.4822-9.0326-11.8058-2.5046-4.323-4.4437-8.9583-5.8139-13.9086-1.3724-4.9486-2.057-10.1069-2.057-15.4732,0-5.2462.6704-10.3444,2.0122-15.2947,1.3418-4.9486,3.2492-9.5839,5.7244-13.9081,2.473-4.3225,5.47-8.2732,8.9889-11.8505,3.5167-3.5779,7.4232-6.648,11.7162-9.2127,4.293-2.563,8.9288-4.5463,13.9081-5.9477,4.9776-1.4003,10.1801-2.1023,15.6075-2.1023,7.8108,0,15.2341,1.4467,22.2708,4.3383,7.0346,2.8928,13.4457,7.2305,19.2301,13.0133,1.1912,1.1338,1.7731,2.4457,1.7436,3.9354-.0306,1.4914-.5808,2.8038-1.6541,3.9354-1.0743,1.0733-2.3856,1.6257-3.936,1.6546-1.5515.0311-2.8933-.5213-4.0244-1.6546-4.6511-4.5905-9.8842-8.0494-15.697-10.375-5.8139-2.3256-11.7621-3.4883-17.8435-3.4883-6.3216,0-12.3135,1.1934-17.9772,3.5779-5.6654,2.3856-10.6299,5.6796-14.8923,9.8831-4.2635,4.2035-7.6471,9.168-10.1517,14.8918-2.5046,5.7244-3.7569,11.8958-3.7569,18.5144Z"/>
    <path class="cls-7" d="M317.6574,290.2553v43.7369c0,1.5515-.5525,2.8622-1.6552,3.9354-1.1038,1.0733-2.4304,1.6099-3.9797,1.6099-1.5515,0-2.878-.5366-3.9808-1.6099-1.1038-1.0733-1.6541-2.384-1.6541-3.9354v-103.3941c0-1.6099.5503-2.9364,1.6541-3.9802,1.1027-1.0427,2.4293-1.5651,3.9808-1.5651h30.0522c4.709,0,9.1232.8358,13.2371,2.5041,4.114,1.6705,7.6918,3.9666,10.7325,6.8872,3.0418,2.9222,5.4405,6.3811,7.2005,10.375,1.7578,3.9955,2.6378,8.3185,2.6378,12.9691s-.88,8.9594-2.6378,12.9243c-1.76,3.966-4.1587,7.3943-7.2005,10.286-3.0407,2.8928-6.6186,5.1583-10.7325,6.7976-4.114,1.6404-8.5282,2.4593-13.2371,2.4593h-24.4173ZM317.6574,236.1434v42.8422h24.5068c3.2198,0,6.2004-.5814,8.9441-1.7442,2.7415-1.1622,5.1119-2.7279,7.1099-4.6953,1.9969-1.968,3.5626-4.2488,4.6959-6.8424,1.1322-2.5936,1.7-5.3215,1.7-8.1837,0-3.0412-.5819-5.8587-1.7447-8.4523-1.1628-2.5941-2.7437-4.8438-4.7407-6.7529-1.998-1.9074-4.3825-3.413-7.1547-4.5168-2.7732-1.1027-5.7691-1.6546-8.9889-1.6546h-24.3278Z"/>
  </g>
</svg>