<?xml version="1.0" encoding="UTF-8"?>
<svg id="RE" xmlns="http://www.w3.org/2000/svg" xmlns:xlink="http://www.w3.org/1999/xlink" viewBox="0 0 453.5433 453.5433">
  <defs>
    <style>
      .cls-1 {
        fill: url(#Degradado_sin_nombre_102);
      }

      .cls-1, .cls-2, .cls-3, .cls-4, .cls-5, .cls-6, .cls-7 {
        stroke-width: 0px;
      }

      .cls-2 {
        fill: url(#Degradado_sin_nombre_105);
      }

      .cls-3 {
        fill: url(#Degradado_sin_nombre_108);
      }

      .cls-4 {
        fill: url(#Degradado_sin_nombre_102-2);
      }

      .cls-5 {
        fill: url(#Degradado_sin_nombre_102-3);
      }

      .cls-6 {
        fill: #fff;
      }

      .cls-7 {
        fill: url(#Degradado_sin_nombre_102-4);
      }
    </style>
    <linearGradient id="Degradado_sin_nombre_102" data-name="Degradado sin nombre 102" x1="56.7178" y1="226.7717" x2="396.8255" y2="226.7717" gradientUnits="userSpaceOnUse">
      <stop offset=".0045" stop-color="#586b30"/>
      <stop offset="1" stop-color="#6a843c"/>
    </linearGradient>
    <linearGradient id="Degradado_sin_nombre_102-2" data-name="Degradado sin nombre 102" x1="14.4541" y1="175.1242" x2="234.3511" y2="175.1242" xlink:href="#Degradado_sin_nombre_102"/>
    <linearGradient id="Degradado_sin_nombre_108" data-name="Degradado sin nombre 108" x1="-1602.4201" y1="96.8646" x2="-1379.952" y2="96.8646" gradientTransform="translate(78.3323 -1162.9049) rotate(-90)" gradientUnits="userSpaceOnUse">
      <stop offset="0" stop-color="#586b30"/>
      <stop offset="1" stop-color="#6a843c"/>
    </linearGradient>
    <linearGradient id="Degradado_sin_nombre_105" data-name="Degradado sin nombre 105" x1="-1571.0142" y1="-1541.5391" x2="-1349.7834" y2="-1541.5391" gradientTransform="translate(-1131.9251 -1263.12) rotate(-180)" gradientUnits="userSpaceOnUse">
      <stop offset="0" stop-color="#586b30"/>
      <stop offset="1" stop-color="#6a843c"/>
    </linearGradient>
    <linearGradient id="Degradado_sin_nombre_102-3" data-name="Degradado sin nombre 102" x1="117.6042" y1="14.1612" x2="122.7773" y2="14.1612" xlink:href="#Degradado_sin_nombre_102"/>
    <linearGradient id="Degradado_sin_nombre_102-4" data-name="Degradado sin nombre 102" x1="134.9218" y1="124.6425" x2="439.0892" y2="124.6425" xlink:href="#Degradado_sin_nombre_102"/>
  </defs>
  <g>
    <rect class="cls-1" x="56.7178" y="60.1189" width="340.1077" height="333.3056"/>
    <path class="cls-4" d="M124.4026,14.0281C63.6799,14.0281,14.4541,62.6329,14.4541,122.5894v213.6309c60.7232,0,109.9485-48.6043,109.9485-108.5614v-105.0695c0-59.9566,49.2258-108.5614,109.9485-108.5614h-109.9485Z"/>
    <path class="cls-3" d="M14.4541,328.2812c0,61.4329,48.4982,111.234,108.3232,111.234h213.1623c0-61.4329-48.4977-111.234-108.3227-111.234h-104.8396c-59.825,0-108.3232-49.8009-108.3232-111.234v111.234Z"/>
    <path class="cls-2" d="M328.4739,439.5152c61.0911,0,110.6151-48.6045,110.6151-108.5614V117.323c-61.0911,0-110.6151,48.6048-110.6151,108.5614v105.0695c0,59.9568-49.5245,108.5614-110.6156,108.5614h110.6156Z"/>
    <g>
      <path class="cls-5" d="M122.7773,14.0281h-5.1731c0,.0903.0123.1765.0128.2663,1.7221-.083,3.4187-.2663,5.1603-.2663Z"/>
      <path class="cls-7" d="M330.7665,14.0281h-99.666c-41.8918,0-78.1576,24.3255-96.1787,59.8592,19.2851,30.5087,52.7999,50.7552,91.0051,50.7552h104.8396c59.825,0,108.3227,49.5235,108.3227,110.6144v-110.6144c0-61.0904-48.4977-110.6144-108.3227-110.6144Z"/>
    </g>
  </g>
  <g>
    <path class="cls-6" d="M115.0649,284.5248c-3.8572-1.4591-7.2999-3.3055-10.329-5.5362-3.0301-2.2312-5.4822-4.9027-7.3544-8.0156-1.8731-3.1113-2.8092-6.7885-2.8092-11.0315,0-4.2965.9361-8.1664,2.8092-11.6095,1.8721-3.4422,4.3384-6.3628,7.3957-8.759s6.5131-4.2415,10.3703-5.5362c3.8552-1.2936,7.7669-1.9422,11.7331-1.9422,3.1945,0,6.3073.3309,9.3374.9915,3.0291.6612,5.8676,1.6401,8.5113,2.9338,2.6448,1.2947,5.0404,2.8919,7.1889,4.7928,2.1485,1.9004,3.9379,4.1185,5.3713,6.6518.6052.9915.7434,1.9972.4136,3.016-.3309,1.0198-.7999,1.8318-1.4051,2.4375-.7727.7167-1.7763,1.1439-3.016,1.281-1.2397.1382-2.438-.234-3.595-1.1156-3.1955-3.9107-6.6099-6.6518-10.2463-8.2218-3.6353-1.57-7.7669-2.3553-12.3948-2.3553-2.5893,0-5.1786.3722-7.7669,1.1156-2.5903.7439-4.9456,1.8323-7.0649,3.2641-2.1213,1.4328-3.8572,3.2369-5.2059,5.4121-1.3506,2.1768-2.0244,4.6975-2.0244,7.5611,0,3.0301.7979,5.5503,2.3956,7.5606,1.5978,2.0113,3.6222,3.7054,6.0733,5.0818,2.4511,1.3779,5.1363,2.4935,8.0574,3.3468,2.9191.8544,5.7011,1.6114,8.3459,2.2721,4.0751,1.2679,8.0564,2.6998,11.9399,4.297,3.8835,1.5983,7.3261,3.5531,10.329,5.867,3.0019,2.3134,5.4126,5.0687,7.2303,8.2632,1.8177,3.1955,2.7265,7.0235,2.7265,11.4855,0,4.7928-.9502,9.1312-2.8506,13.0146-1.9004,3.884-4.4624,7.2177-7.6842,9.9986-3.2228,2.7825-6.97,4.9305-11.2388,6.445-4.2698,1.5145-8.7453,2.2726-13.4277,2.2726-3.9117,0-7.6842-.524-11.3205-1.57-3.6353-1.046-6.9822-2.4647-10.0395-4.2557-3.0573-1.7894-5.7304-3.9107-8.0151-6.3623-2.2867-2.4506-4.0358-5.0823-5.2472-7.8915-.8261-1.7627-.9502-3.2359-.3722-4.4211.579-1.1837,1.4182-2.0784,2.5207-2.6851,1.2669-.7157,2.4642-.868,3.594-.4549,1.1287.4136,2.2998,1.392,3.5123,2.9338,1.046,2.204,2.4642,4.1871,4.2557,5.9493,1.7894,1.7637,3.8139,3.2641,6.0733,4.5038,2.2585,1.2392,4.7096,2.1894,7.3544,2.8506,2.6438.6612,5.3713.9915,8.1805.9915,2.9191,0,5.8252-.4403,8.7171-1.3219,2.8929-.8806,5.4953-2.203,7.8093-3.9667,2.3139-1.7622,4.1861-3.952,5.6184-6.5691,1.4323-2.616,2.1485-5.632,2.1485-9.048,0-3.1401-.7162-5.7702-2.1485-7.8915-1.4323-2.1203-3.3327-3.9379-5.7011-5.454-2.3694-1.514-5.0404-2.8092-8.0151-3.8835-2.9746-1.0743-5.9785-2.1072-9.0076-3.0987-3.9662-.9361-7.8779-2.1344-11.7331-3.5945Z"/>
    <path class="cls-6" d="M181.5809,285.8881c0,6.0607,1.1287,11.721,3.3882,16.9808,2.2585,5.2613,5.3299,9.8473,9.2134,13.7585,3.8845,3.9122,8.4559,6.9963,13.7172,9.2547,5.2603,2.2595,10.9201,3.3877,16.9813,3.3877,4.9022,0,9.4464-.6879,13.6335-2.0658,4.1861-1.3764,7.9192-3.3463,11.1975-5.9079,3.2762-2.5616,6.032-5.6461,8.2632-9.2547,2.2302-3.6076,3.8693-7.6439,4.9164-12.1058h-25.4513c-1.4323,0-2.6438-.5089-3.6353-1.5287-.9915-1.0188-1.4878-2.2438-1.4878-3.6772,0-1.3764.4963-2.5747,1.4878-3.5945.9915-1.0188,2.203-1.5287,3.6353-1.5287h31.3178c1.5413.0555,2.8506.5512,3.9248,1.4873,1.0743.9376,1.5836,2.1768,1.5292,3.7185-.6072,6.3911-2.2726,12.3262-4.9991,17.8069-2.7275,5.4822-6.267,10.2337-10.6185,14.2543-4.3525,4.0216-9.407,7.1758-15.1626,9.4615-5.7576,2.2862-11.9691,3.429-18.6335,3.429-4.9587,0-9.7379-.634-14.3365-1.9004-4.6006-1.2669-8.8835-3.0705-12.8497-5.4126-3.9662-2.3407-7.5753-5.1504-10.8253-8.4286-3.251-3.2767-6.032-6.9126-8.3449-10.907-2.3139-3.9939-4.1054-8.2763-5.3713-12.8497-1.2679-4.5719-1.9004-9.3374-1.9004-14.2952,0-4.8468.6193-9.5568,1.859-14.1302,1.2397-4.5719,3.0019-8.8543,5.2886-12.8492,2.2847-3.9934,5.0535-7.6434,8.3045-10.9483,3.249-3.3055,6.8581-6.1419,10.8243-8.5113,3.9662-2.3679,8.2491-4.2002,12.8497-5.4948,4.5986-1.2936,9.405-1.9422,14.4192-1.9422,7.2162,0,14.0743,1.3365,20.5753,4.008,6.499,2.6725,12.422,6.6801,17.7661,12.0226,1.1005,1.0475,1.6381,2.2595,1.6109,3.6358-.0282,1.3779-.5366,2.5903-1.5282,3.6358-.9926.9915-2.204,1.5019-3.6363,1.5287-1.4333.0287-2.673-.4816-3.718-1.5287-4.297-4.241-9.1317-7.4366-14.5019-9.5851-5.3713-2.1485-10.8666-3.2228-16.485-3.2228-5.8403,0-11.376,1.1025-16.6091,3.3055-5.2341,2.204-9.8206,5.2472-13.7585,9.1307-3.9389,3.8835-7.0649,8.47-9.3788,13.758-2.3139,5.2886-3.4709,10.9902-3.4709,17.1049Z"/>
    <path class="cls-6" d="M376.014,251.7611c0,1.3779-.4953,2.5903-1.4868,3.6358-1.047.9915-2.3008,1.5019-3.7604,1.5287-1.4596.0287-2.6579-.4544-3.594-1.446-4.3525-4.297-9.172-7.5193-14.4606-9.6678s-10.7708-3.2228-16.4437-3.2228c-5.9503,0-11.5556,1.1297-16.8159,3.3882-5.2613,2.2595-9.8478,5.3435-13.7585,9.2547-3.9117,3.9117-6.9963,8.5108-9.2547,13.7994-2.2595,5.2886-3.3882,10.9357-3.3882,16.9394,0,5.7843,1.0874,11.2933,3.2641,16.5264,2.1757,5.2341,5.1776,9.8332,9.0076,13.7994,3.828,3.9667,8.3721,7.1208,13.6335,9.4615,5.2603,2.3422,10.9766,3.5118,17.1467,3.5118,5.6729.0555,11.1269-.9088,16.361-2.8919,5.2331-1.9831,10.0526-5.1776,14.4606-9.5856,1.046-.9915,2.2857-1.4999,3.718-1.5287,1.4323-.0267,2.6448.4277,3.6363,1.3637,1.046.9915,1.5554,2.2307,1.5282,3.7185-.0282,1.4873-.5094,2.6993-1.4455,3.6353-5.3995,5.3995-11.376,9.3788-17.9315,11.9404-6.5565,2.5616-13.3319,3.8426-20.3271,3.8426-4.9043,0-9.6411-.6481-14.2124-1.9417-4.5734-1.2936-8.8422-3.0987-12.8083-5.4126-3.9662-2.3134-7.5753-5.109-10.8253-8.3873-3.251-3.2767-6.032-6.9126-8.3449-10.907-2.3139-3.9939-4.1054-8.2763-5.3713-12.8497-1.2679-4.5719-1.9004-9.3374-1.9004-14.2952,0-4.6813.6052-9.282,1.8177-13.7994,1.2104-4.5164,2.9333-8.759,5.1645-12.7256,2.2312-3.9662,4.9436-7.6292,8.1391-10.9897,3.1945-3.3594,6.7885-6.2519,10.7829-8.6762,3.9944-2.4239,8.3177-4.3101,12.9738-5.6608,4.6541-1.3491,9.5977-2.0244,14.8328-2.0244,6.9408,0,13.702,1.3506,20.2858,4.0494,6.5817,2.6998,12.5189,6.6932,17.8074,11.9812,1.045,1.0475,1.5695,2.2595,1.5695,3.6358Z"/>
  </g>
  <g>
    <path class="cls-6" d="M107.7935,149.4229c-2.6359-.9974-4.9904-2.2596-7.0614-3.785-2.071-1.5254-3.7469-3.3514-5.0268-5.4797-1.281-2.1272-1.9209-4.6412-1.9209-7.5413,0-2.9376.6399-5.5829,1.9209-7.9369,1.2799-2.3534,2.9658-4.3499,5.0555-5.9884,2.0897-1.6379,4.4531-2.8996,7.0901-3.785,2.6348-.8843,5.3093-1.3273,8.0213-1.3273,2.1835,0,4.3119.2262,6.3839.678,2.0699.4518,4.0106,1.121,5.8179,2.0053,1.8084.8854,3.4457,1.9772,4.9154,3.2764,1.4685,1.2992,2.6922,2.8157,3.6719,4.5474.4138.678.5075,1.3659.2825,2.0621-.2262.6973-.5473,1.2523-.961,1.6666-.5274.4899-1.2148.7817-2.0621.8755-.8474.0943-1.666-.16-2.4571-.7624-2.1846-2.6739-4.5193-4.548-7.0051-5.621-2.4847-1.0736-5.3093-1.6103-8.4737-1.6103-1.7698,0-3.5395.2543-5.3093.763-1.7709.5081-3.3806,1.2523-4.8304,2.2315-1.4498.9798-2.637,2.2127-3.5594,3.7001-.9224,1.4879-1.3836,3.2113-1.3836,5.1686,0,2.0721.5451,3.7949,1.6385,5.1692,1.0912,1.3753,2.4759,2.5333,4.1519,3.4744,1.6749.9417,3.5108,1.7041,5.5079,2.2878,1.9959.5842,3.8981,1.1017,5.7054,1.5535,2.787.8667,5.5079,1.8453,8.1636,2.9376,2.6546,1.0923,5.0081,2.429,7.0614,4.0106,2.0522,1.5816,3.6995,3.4656,4.943,5.6491,1.2424,2.1846,1.8635,4.8017,1.8635,7.8525,0,3.2764-.6499,6.2422-1.9485,8.8973-1.2997,2.6546-3.0507,4.9341-5.2541,6.8352-2.2034,1.9022-4.7642,3.3707-7.6826,4.4062-2.9194,1.0355-5.979,1.5535-9.1798,1.5535-2.6745,0-5.2541-.358-7.7388-1.073-2.4858-.715-4.7742-1.6854-6.8639-2.9095-2.0908-1.2236-3.918-2.6734-5.4803-4.3499-1.5623-1.6754-2.7584-3.4739-3.587-5.3948-.5649-1.2048-.6499-2.2122-.2538-3.0221.395-.8099.9687-1.4211,1.7223-1.836.8661-.4893,1.6859-.5936,2.4582-.3111.7712.2825,1.5712.9516,2.4009,2.0059.715,1.5066,1.6848,2.8621,2.9084,4.0669,1.2236,1.206,2.6083,2.2315,4.153,3.0789,1.5436.8474,3.2195,1.4972,5.0268,1.9491,1.8084.4518,3.6719.678,5.5928.678,1.9959,0,3.9831-.3012,5.9602-.9042,1.9772-.6019,3.7569-1.5055,5.338-2.7115,1.5822-1.2048,2.8621-2.7015,3.8418-4.4911.9787-1.788,1.4685-3.8501,1.4685-6.1853,0-2.1471-.4899-3.945-1.4685-5.3953-.9798-1.4492-2.2795-2.6922-3.8981-3.7282-1.6197-1.0355-3.4457-1.9209-5.4792-2.6552-2.0346-.7343-4.0868-1.4404-6.1577-2.1184-2.712-.6399-5.3865-1.4592-8.0224-2.4571Z"/>
    <path class="cls-6" d="M158.1819,182.9502c0,.9798-.3487,1.8078-1.0449,2.4858-.6973.678-1.5347,1.0167-2.5134,1.0167-.9798,0-1.8183-.3387-2.5145-1.0167-.6973-.678-1.0449-1.5061-1.0449-2.4858v-65.3034c0-1.0167.3476-1.8547,1.0449-2.514.6962-.6587,1.5347-.9886,2.5145-.9886.9787,0,1.8161.3299,2.5134.9886.6962.6592,1.0449,1.4972,1.0449,2.514v65.3034Z"/>
    <path class="cls-6" d="M179.9861,128.4363l-5.9316-8.4737c-.3762-.4888-.5925-1.0636-.6499-1.7229-.0563-.6587.0287-1.2799.2549-1.8641.2262-.5837.5737-1.0824,1.0449-1.4972.47-.4138,1.0449-.6212,1.7234-.6212h.2825c.3751.0756.7525.1887,1.1298.3387h.1125c.075.0761.1501.123.2262.1412.075.0193.1501.0662.2262.1412l.2251.1131c.1136.0761.2163.1694.3111.2825.0938.1131.1975.2262.3111.3387l.1688.2825,39.5443,56.3217v-54.5139c0-.9787.3476-1.8167,1.0449-2.514.6973-.6962,1.5535-1.0449,2.5708-1.0449s1.8547.3487,2.5134,1.0449c.6587.6973.9886,1.5353.9886,2.514v65.2472c0,.8667-.2736,1.6197-.8187,2.2596-.5462.641-1.2335,1.0366-2.0621,1.1866-.1512.0375-.3762.0563-.6775.0563-1.0548,0-1.9408-.3575-2.6557-1.0736l-.2251-.3387-.1699-.1694-39.488-56.4348v54.5139c0,.9798-.3487,1.8078-1.0449,2.4858-.6973.678-1.5347,1.0167-2.5134,1.0167-.9798,0-1.8183-.3387-2.5145-1.0167-.6973-.678-1.0449-1.5061-1.0449-2.4858v-65.1903c0-.9792.3476-1.8078,1.0449-2.4858.6962-.678,1.5347-1.0167,2.5145-1.0167h.2825c.4138.0756.79.1887,1.1298.3387h.1125c.075.0761.1501.123.2262.1412.075.0193.1501.0662.2262.1412.075,0,.1501.0381.2251.1131.4149.3018.7437.6973.9886,1.1861.2449.4899.3674,1.0173.3674,1.5822v10.6765Z"/>
    <path class="cls-6" d="M297.4881,127.024c0,.9417-.3398,1.7709-1.0173,2.4858-.7161.678-1.5734,1.0267-2.5708,1.0449-.9974.0193-1.8172-.3106-2.4571-.9886-2.9757-2.9376-6.2703-5.1405-9.8859-6.6096-3.6156-1.4685-7.3626-2.2028-11.2419-2.2028-4.0669,0-7.8999.7723-11.4957,2.3159-3.5969,1.5447-6.7315,3.6537-9.406,6.3271-2.6745,2.6745-4.783,5.8185-6.3266,9.4341-1.5447,3.6151-2.3159,7.4762-2.3159,11.5807,0,3.9544.7425,7.7206,2.231,11.2982,1.4873,3.5781,3.5395,6.7221,6.1577,9.4341,2.6171,2.7115,5.7241,4.8679,9.321,6.4678,3.5958,1.6015,7.5038,2.4009,11.7219,2.4009,3.8782.0381,7.6064-.6212,11.1857-1.9772,3.577-1.3555,6.8716-3.5395,9.8859-6.5527.715-.678,1.5623-1.0256,2.5421-1.0449.9787-.0188,1.8073.2918,2.4847.9318.715.678,1.0636,1.5254,1.046,2.5421-.0199,1.0167-.3487,1.8459-.9886,2.4858-3.6918,3.6912-7.7774,6.4115-12.2592,8.1631-4.4818,1.751-9.1147,2.6265-13.8966,2.6265-3.3519,0-6.5914-.443-9.716-1.3273-3.1269-.8843-6.0452-2.1184-8.7561-3.7001-2.712-1.5822-5.1791-3.4932-7.4012-5.7341-2.2221-2.2403-4.1232-4.7256-5.7054-7.4569-1.5811-2.7302-2.8058-5.6579-3.6719-8.7842-.8661-3.1258-1.2986-6.3834-1.2986-9.7728,0-3.2008.4138-6.3459,1.2424-9.4341.8275-3.0877,2.0059-5.9878,3.5307-8.6998,1.5248-2.7115,3.3795-5.2155,5.5641-7.5132,2.1835-2.2966,4.6418-4.2738,7.3725-5.9316,2.7297-1.6567,5.6855-2.9465,8.8687-3.8694,3.182-.9224,6.5616-1.3841,10.1408-1.3841,4.7444,0,9.3674.9235,13.8679,2.7683,4.5005,1.8453,8.5586,4.5756,12.1743,8.1912.715.7155,1.0736,1.5447,1.0736,2.4853Z"/>
    <path class="cls-6" d="M353.3282,116.5169c4.4619,1.9204,8.36,4.5474,11.6932,7.8806,3.3332,3.3326,5.9691,7.2219,7.9087,11.6651,1.9397,4.4443,2.9095,9.2079,2.9095,14.2921,0,3.3895-.4435,6.6576-1.3273,9.8015-.886,3.1451-2.1184,6.0728-3.7006,8.7842-1.5822,2.7115-3.502,5.1973-5.7616,7.4569-2.2596,2.2596-4.7455,4.18-7.4575,5.7622-2.7109,1.5816-5.6403,2.8157-8.7837,3.7001-3.1456.8843-6.4126,1.3273-9.8021,1.3273s-6.6565-.443-9.801-1.3273c-3.1445-.8843-6.0728-2.1184-8.7837-3.7001-2.712-1.5822-5.1791-3.5026-7.4012-5.7622-2.2221-2.2596-4.1232-4.7455-5.7054-7.4569-1.5811-2.7115-2.8058-5.6392-3.6719-8.7842-.8661-3.144-1.2986-6.4121-1.2986-9.8015s.4325-6.6465,1.2986-9.7728c.8661-3.1252,2.0908-6.0447,3.6719-8.7561,1.5822-2.7115,3.4832-5.1874,5.7054-7.4282,2.2221-2.2403,4.6892-4.1612,7.4012-5.7622,2.7109-1.6004,5.6392-2.8334,8.7837-3.7001,3.1445-.8661,6.4115-1.2997,9.801-1.2997,5.0842,0,9.8583.9605,14.3214,2.8814ZM327.4548,123.1265c-3.5969,1.5447-6.7227,3.6532-9.3773,6.3266-2.6557,2.6745-4.7554,5.8003-6.299,9.3778-1.5447,3.5781-2.3159,7.4194-2.3159,11.5238,0,4.1436.7712,8.013,2.3159,11.6094,1.5436,3.5969,3.6432,6.732,6.299,9.4054,2.6546,2.6745,5.7804,4.7835,9.3773,6.3271,3.5958,1.5447,7.4652,2.3159,11.6094,2.3159,4.1044,0,7.9551-.7712,11.552-2.3159,3.5958-1.5436,6.7315-3.6526,9.406-6.3271,2.6734-2.6734,4.7819-5.8085,6.3266-9.4054,1.5436-3.5963,2.3159-7.4658,2.3159-11.6094,0-4.1044-.7723-7.9457-2.3159-11.5238-1.5447-3.5776-3.6532-6.7033-6.3266-9.3778-2.6745-2.6734-5.8102-4.7819-9.406-6.3266-3.5969-1.5441-7.4476-2.3165-11.552-2.3165-4.1441,0-8.0136.7723-11.6094,2.3165Z"/>
  </g>
</svg>