<?xml version="1.0" encoding="UTF-8"?>
<svg id="RE" xmlns="http://www.w3.org/2000/svg" xmlns:xlink="http://www.w3.org/1999/xlink" viewBox="0 0 453.5433 453.5433">
  <defs>
    <style>
      .cls-1 {
        fill: url(#Degradado_sin_nombre_11-2);
      }

      .cls-1, .cls-2, .cls-3, .cls-4, .cls-5, .cls-6, .cls-7 {
        stroke-width: 0px;
      }

      .cls-2 {
        fill: url(#Degradado_sin_nombre_11-3);
      }

      .cls-3 {
        fill: url(#Degradado_sin_nombre_11-5);
      }

      .cls-4 {
        fill: url(#Degradado_sin_nombre_11);
      }

      .cls-5 {
        fill: #fff;
      }

      .cls-6 {
        fill: url(#Degradado_sin_nombre_22);
      }

      .cls-7 {
        fill: url(#Degradado_sin_nombre_11-4);
      }
    </style>
    <linearGradient id="Degradado_sin_nombre_22" data-name="Degradado sin nombre 22" x1="226.7717" y1="393.4244" x2="226.7717" y2="60.1189" gradientUnits="userSpaceOnUse">
      <stop offset="0" stop-color="#953e49"/>
      <stop offset=".0319" stop-color="#963e4a"/>
      <stop offset=".4053" stop-color="#a34659"/>
      <stop offset=".7087" stop-color="#a8495f"/>
    </linearGradient>
    <linearGradient id="Degradado_sin_nombre_11" data-name="Degradado sin nombre 11" x1="-14.0718" y1="319.7509" x2="180.4158" y2="-17.1115" gradientUnits="userSpaceOnUse">
      <stop offset="0" stop-color="#953e49"/>
      <stop offset=".4321" stop-color="#963e4a"/>
      <stop offset=".5875" stop-color="#9c4251"/>
      <stop offset=".6981" stop-color="#a6485d"/>
      <stop offset=".7087" stop-color="#a8495f"/>
    </linearGradient>
    <linearGradient id="Degradado_sin_nombre_11-2" data-name="Degradado sin nombre 11" x1="-1122.9307" y1="1523.0773" x2="-900.4626" y2="1523.0773" gradientTransform="translate(-1347.8805 -683.4155) rotate(-90)" xlink:href="#Degradado_sin_nombre_11"/>
    <linearGradient id="Degradado_sin_nombre_11-3" data-name="Degradado sin nombre 11" x1="-2570.2151" y1="454.6054" x2="-2275.9233" y2="207.6652" gradientTransform="translate(-2078.6485 642.5821) rotate(-180)" xlink:href="#Degradado_sin_nombre_11"/>
    <linearGradient id="Degradado_sin_nombre_11-4" data-name="Degradado sin nombre 11" x1="117.6042" y1="14.1612" x2="122.7773" y2="14.1612" xlink:href="#Degradado_sin_nombre_11"/>
    <linearGradient id="Degradado_sin_nombre_11-5" data-name="Degradado sin nombre 11" x1="134.9218" y1="124.6425" x2="439.0892" y2="124.6425" xlink:href="#Degradado_sin_nombre_11"/>
  </defs>
  <g>
    <rect class="cls-6" x="56.7178" y="60.1189" width="340.1077" height="333.3056"/>
    <path class="cls-4" d="M124.4026,14.0281C63.6799,14.0281,14.4541,62.6329,14.4541,122.5894v213.6309c60.7232,0,109.9485-48.6043,109.9485-108.5614v-105.0695c0-59.9566,49.2258-108.5614,109.9485-108.5614h-109.9485Z"/>
    <path class="cls-1" d="M14.4541,328.2812c0,61.4329,48.4982,111.234,108.3232,111.234h213.1623c0-61.4329-48.4977-111.234-108.3227-111.234h-104.8396c-59.825,0-108.3232-49.8009-108.3232-111.234v111.234Z"/>
    <path class="cls-2" d="M328.4739,439.5152c61.0911,0,110.6151-48.6045,110.6151-108.5614V117.323c-61.0911,0-110.6151,48.6048-110.6151,108.5614v105.0695c0,59.9568-49.5245,108.5614-110.6156,108.5614h110.6156Z"/>
    <g>
      <path class="cls-7" d="M122.7773,14.0281h-5.1731c0,.0903.0123.1765.0128.2663,1.7221-.083,3.4187-.2663,5.1603-.2663Z"/>
      <path class="cls-3" d="M330.7665,14.0281h-99.666c-41.8918,0-78.1576,24.3255-96.1787,59.8592,19.2851,30.5087,52.7999,50.7552,91.0051,50.7552h104.8396c59.825,0,108.3227,49.5235,108.3227,110.6144v-110.6144c0-61.0904-48.4977-110.6144-108.3227-110.6144Z"/>
    </g>
  </g>
  <g>
    <path class="cls-5" d="M107.3729,148.568c-2.6359-.9974-4.9904-2.2596-7.0614-3.785s-3.7469-3.3514-5.0268-5.4797c-1.281-2.1272-1.9209-4.6412-1.9209-7.5413,0-2.9376.6399-5.5829,1.9209-7.9369,1.2799-2.3534,2.9658-4.3499,5.0555-5.9884,2.0897-1.6379,4.4531-2.8996,7.0901-3.785,2.6348-.8843,5.3093-1.3273,8.0213-1.3273,2.1835,0,4.3119.2262,6.3839.678,2.0699.4518,4.0106,1.121,5.8179,2.0053,1.8084.8854,3.4457,1.9772,4.9154,3.2764,1.4685,1.2992,2.6922,2.8157,3.6719,4.5474.4138.678.5075,1.3659.2825,2.0621-.2262.6973-.5473,1.2523-.961,1.6666-.5274.4899-1.2148.7817-2.0621.8755-.8474.0943-1.666-.16-2.4571-.7624-2.1846-2.6739-4.5193-4.548-7.0051-5.621-2.4847-1.0736-5.3093-1.6103-8.4737-1.6103-1.7698,0-3.5395.2543-5.3093.763-1.7709.5081-3.3806,1.2523-4.8304,2.2315-1.4498.9798-2.637,2.2127-3.5594,3.7001-.9224,1.4879-1.3836,3.2113-1.3836,5.1686,0,2.0721.5451,3.7949,1.6385,5.1692,1.0912,1.3753,2.4759,2.5333,4.1519,3.4744,1.6749.9417,3.5108,1.7041,5.5079,2.2878,1.9959.5842,3.8981,1.1017,5.7054,1.5535,2.787.8667,5.5079,1.8453,8.1636,2.9376,2.6546,1.0923,5.0081,2.429,7.0614,4.0106,2.0522,1.5816,3.6995,3.4656,4.943,5.6491,1.2424,2.1846,1.8635,4.8017,1.8635,7.8525,0,3.2764-.6499,6.2422-1.9485,8.8973-1.2997,2.6546-3.0507,4.9341-5.2541,6.8352-2.2034,1.9022-4.7642,3.3707-7.6826,4.4062-2.9194,1.0355-5.979,1.5535-9.1798,1.5535-2.6745,0-5.2541-.358-7.7388-1.073-2.4858-.715-4.7742-1.6854-6.8639-2.9095-2.0908-1.2236-3.918-2.6734-5.4803-4.3499-1.5623-1.6754-2.7584-3.4739-3.587-5.3948-.5649-1.2048-.6499-2.2122-.2538-3.0221.395-.8099.9687-1.4211,1.7223-1.836.8661-.4893,1.6859-.5936,2.4582-.3111.7712.2825,1.5712.9516,2.4009,2.0059.715,1.5066,1.6848,2.8621,2.9084,4.0669,1.2236,1.206,2.6083,2.2315,4.153,3.0789,1.5436.8474,3.2195,1.4972,5.0268,1.9491,1.8084.4518,3.6719.678,5.5928.678,1.9959,0,3.9831-.3012,5.9602-.9042,1.9772-.6019,3.7569-1.5055,5.338-2.7115,1.5822-1.2048,2.8621-2.7015,3.8418-4.4911.9787-1.788,1.4685-3.8501,1.4685-6.1853,0-2.1471-.4899-3.945-1.4685-5.3953-.9798-1.4492-2.2795-2.6922-3.8981-3.7282-1.6197-1.0355-3.4457-1.9209-5.4792-2.6552-2.0346-.7343-4.0868-1.4404-6.1577-2.1184-2.712-.6399-5.3865-1.4592-8.0224-2.4571Z"/>
    <path class="cls-5" d="M157.7614,182.0952c0,.9798-.3487,1.8078-1.0449,2.4858-.6973.678-1.5347,1.0167-2.5134,1.0167-.9798,0-1.8183-.3387-2.5145-1.0167-.6973-.678-1.0449-1.5061-1.0449-2.4858v-65.3034c0-1.0167.3476-1.8547,1.0449-2.514.6962-.6587,1.5347-.9886,2.5145-.9886.9787,0,1.8161.3299,2.5134.9886.6962.6592,1.0449,1.4972,1.0449,2.514v65.3034Z"/>
    <path class="cls-5" d="M179.5656,127.5813l-5.9316-8.4737c-.3762-.4888-.5925-1.0636-.6499-1.7229-.0563-.6587.0287-1.2799.2549-1.8641.2262-.5837.5737-1.0824,1.0449-1.4972.47-.4138,1.0449-.6212,1.7234-.6212h.2825c.3751.0756.7525.1887,1.1298.3387h.1125c.075.0761.1501.123.2262.1412.075.0193.1501.0662.2262.1412l.2251.1131c.1136.0761.2163.1694.3111.2825.0938.1131.1975.2262.3111.3387l.1688.2825,39.5443,56.3217v-54.5139c0-.9787.3476-1.8167,1.0449-2.514.6973-.6962,1.5535-1.0449,2.5708-1.0449s1.8547.3487,2.5134,1.0449c.6587.6973.9886,1.5353.9886,2.514v65.2472c0,.8667-.2736,1.6197-.8187,2.2596-.5462.641-1.2335,1.0366-2.0621,1.1866-.1512.0375-.3762.0563-.6775.0563-1.0548,0-1.9408-.3575-2.6557-1.0736l-.2251-.3387-.1699-.1694-39.488-56.4348v54.5139c0,.9798-.3487,1.8078-1.0449,2.4858-.6973.678-1.5347,1.0167-2.5134,1.0167-.9798,0-1.8183-.3387-2.5145-1.0167-.6973-.678-1.0449-1.5061-1.0449-2.4858v-65.1903c0-.9792.3476-1.8078,1.0449-2.4858.6962-.678,1.5347-1.0167,2.5145-1.0167h.2825c.4138.0756.79.1887,1.1298.3387h.1125c.075.0761.1501.123.2262.1412.075.0193.1501.0662.2262.1412.075,0,.1501.0381.2251.1131.4149.3018.7437.6973.9886,1.1861.2449.4899.3674,1.0173.3674,1.5822v10.6765Z"/>
    <path class="cls-5" d="M297.0675,126.1691c0,.9417-.3398,1.7709-1.0173,2.4858-.7161.678-1.5734,1.0267-2.5708,1.0449-.9974.0193-1.8172-.3106-2.4571-.9886-2.9757-2.9376-6.2703-5.1405-9.8859-6.6096-3.6156-1.4685-7.3626-2.2028-11.2419-2.2028-4.0669,0-7.8999.7723-11.4957,2.3159-3.5969,1.5447-6.7315,3.6537-9.406,6.3271-2.6745,2.6745-4.783,5.8185-6.3266,9.4341-1.5447,3.6151-2.3159,7.4762-2.3159,11.5807,0,3.9544.7425,7.7206,2.231,11.2982,1.4873,3.5781,3.5395,6.7221,6.1577,9.4341,2.6171,2.7115,5.7241,4.8679,9.321,6.4678,3.5958,1.6015,7.5038,2.4009,11.7219,2.4009,3.8782.0381,7.6064-.6212,11.1857-1.9772,3.577-1.3555,6.8716-3.5395,9.8859-6.5527.715-.678,1.5623-1.0256,2.5421-1.0449.9787-.0188,1.8073.2918,2.4847.9318.715.678,1.0636,1.5254,1.046,2.5421-.0199,1.0167-.3487,1.8459-.9886,2.4858-3.6918,3.6912-7.7774,6.4115-12.2592,8.1631-4.4818,1.751-9.1147,2.6265-13.8966,2.6265-3.3519,0-6.5914-.443-9.716-1.3273-3.1269-.8843-6.0452-2.1184-8.7561-3.7001-2.712-1.5822-5.1791-3.4932-7.4012-5.7341-2.2221-2.2403-4.1232-4.7256-5.7054-7.4569-1.5811-2.7302-2.8058-5.6579-3.6719-8.7842-.8661-3.1258-1.2986-6.3834-1.2986-9.7728,0-3.2008.4138-6.3459,1.2424-9.4341.8275-3.0877,2.0059-5.9878,3.5307-8.6998,1.5248-2.7115,3.3795-5.2155,5.5641-7.5132,2.1835-2.2966,4.6418-4.2738,7.3725-5.9316,2.7297-1.6567,5.6855-2.9465,8.8687-3.8694,3.182-.9224,6.5616-1.3841,10.1408-1.3841,4.7444,0,9.3674.9235,13.8679,2.7683,4.5005,1.8453,8.5586,4.5756,12.1743,8.1912.715.7155,1.0736,1.5447,1.0736,2.4853Z"/>
    <path class="cls-5" d="M352.9076,115.662c4.4619,1.9204,8.36,4.5474,11.6932,7.8806,3.3332,3.3326,5.9691,7.2219,7.9087,11.6651,1.9397,4.4443,2.9095,9.2079,2.9095,14.2921,0,3.3895-.4435,6.6576-1.3273,9.8015-.886,3.1451-2.1184,6.0728-3.7006,8.7842s-3.502,5.1973-5.7616,7.4569c-2.2596,2.2596-4.7455,4.18-7.4575,5.7622-2.7109,1.5816-5.6403,2.8157-8.7837,3.7001-3.1456.8843-6.4126,1.3273-9.8021,1.3273s-6.6565-.443-9.801-1.3273-6.0728-2.1184-8.7837-3.7001c-2.712-1.5822-5.1791-3.5026-7.4012-5.7622-2.2221-2.2596-4.1232-4.7455-5.7054-7.4569-1.5811-2.7115-2.8058-5.6392-3.6719-8.7842-.8661-3.144-1.2986-6.4121-1.2986-9.8015s.4325-6.6465,1.2986-9.7728c.8661-3.1252,2.0908-6.0447,3.6719-8.7561,1.5822-2.7115,3.4832-5.1874,5.7054-7.4282,2.2221-2.2403,4.6892-4.1612,7.4012-5.7622,2.7109-1.6004,5.6392-2.8334,8.7837-3.7001,3.1445-.8661,6.4115-1.2997,9.801-1.2997,5.0842,0,9.8583.9605,14.3214,2.8814ZM327.0343,122.2715c-3.5969,1.5447-6.7227,3.6532-9.3773,6.3266-2.6557,2.6745-4.7554,5.8003-6.299,9.3778-1.5447,3.5781-2.3159,7.4194-2.3159,11.5238,0,4.1436.7712,8.013,2.3159,11.6094,1.5436,3.5969,3.6432,6.732,6.299,9.4054,2.6546,2.6745,5.7804,4.7835,9.3773,6.3271,3.5958,1.5447,7.4652,2.3159,11.6094,2.3159,4.1044,0,7.9551-.7712,11.552-2.3159,3.5958-1.5436,6.7315-3.6526,9.406-6.3271,2.6734-2.6734,4.7819-5.8085,6.3266-9.4054,1.5436-3.5963,2.3159-7.4658,2.3159-11.6094,0-4.1044-.7723-7.9457-2.3159-11.5238-1.5447-3.5776-3.6532-6.7033-6.3266-9.3778-2.6745-2.6734-5.8102-4.7819-9.406-6.3266-3.5969-1.5441-7.4476-2.3165-11.552-2.3165-4.1441,0-8.0136.7723-11.6094,2.3165Z"/>
  </g>
  <g>
    <path class="cls-5" d="M181.8537,254.6941c0,1.334-.4795,2.5078-1.4395,3.52-1.0137.96-2.2275,1.4541-3.6406,1.48-1.4131.0278-2.5732-.4399-3.4795-1.3999-4.2139-4.1602-8.8799-7.2798-14-9.3599s-10.4277-3.1201-15.9199-3.1201c-5.7607,0-11.1875,1.0938-16.2803,3.2803-5.0938,2.1875-9.5342,5.1733-13.3203,8.96-3.7871,3.7871-6.7734,8.2397-8.96,13.3599-2.1875,5.1201-3.2803,10.5874-3.2803,16.3999,0,5.6001,1.0527,10.9336,3.1602,16,2.1064,5.0674,5.0127,9.52,8.7207,13.3599,3.7061,3.8403,8.1055,6.894,13.1992,9.1602,5.0928,2.2676,10.627,3.3999,16.6006,3.3999,5.4922.0537,10.7725-.8799,15.8398-2.7998,5.0664-1.9199,9.7324-5.0127,14-9.2803,1.0127-.96,2.2129-1.4521,3.5996-1.48,1.3867-.0259,2.5605.4141,3.5205,1.3203,1.0127.96,1.5059,2.1597,1.4795,3.6001-.0273,1.4399-.4932,2.6133-1.3994,3.5195-5.2275,5.2275-11.0137,9.0801-17.3604,11.5601-6.3477,2.48-12.9072,3.7202-19.6797,3.7202-4.748,0-9.334-.6274-13.7598-1.8799-4.4277-1.2524-8.5605-3-12.4004-5.2402-3.8398-2.2397-7.334-4.9463-10.4805-8.1201-3.1475-3.1724-5.8398-6.6924-8.0791-10.5596-2.2402-3.8667-3.9746-8.0127-5.2002-12.4404-1.2275-4.4263-1.8398-9.04-1.8398-13.8398,0-4.5322.5859-8.9863,1.7598-13.3599,1.1719-4.3726,2.8398-8.48,5-12.3203,2.1602-3.8398,4.7861-7.3862,7.8799-10.6396,3.0928-3.2524,6.5723-6.0527,10.4395-8.3999,3.8672-2.3467,8.0527-4.1729,12.5605-5.4805,4.5059-1.3062,9.292-1.96,14.3604-1.96,6.7197,0,13.2656,1.3076,19.6396,3.9204,6.3721,2.6138,12.1201,6.48,17.2402,11.5996,1.0117,1.0142,1.5195,2.1875,1.5195,3.52Z"/>
    <path class="cls-5" d="M257.8507,265.7341c0,3.6274-.5996,7.0278-1.7998,10.2002-1.2002,3.1738-2.8672,6-5,8.48-2.1338,2.48-4.667,4.5737-7.5996,6.2798-2.9336,1.7075-6.1338,2.8804-9.6006,3.52l23.2002,37.1201c.7461,1.3877.8799,2.7476.4004,4.0801-.4805,1.3335-1.3604,2.2935-2.6406,2.8799-1.2266.6401-2.4668.7603-3.7197.3599-1.2539-.3999-2.2275-1.186-2.9199-2.3599l-25.5195-41.52h-16.8799v39.1201c0,1.3877-.4941,2.5601-1.4805,3.52-.9873.96-2.1738,1.4399-3.5596,1.4399-1.3877,0-2.5742-.48-3.5605-1.4399-.9873-.96-1.4795-2.1323-1.4795-3.52v-92.48c0-1.4399.4922-2.6265,1.4795-3.5601.9863-.9326,2.1729-1.3999,3.5605-1.3999h26.8799c4.2119,0,8.1602.7476,11.8398,2.2397,3.6797,1.4941,6.8799,3.5479,9.5996,6.1602,2.7207,2.6138,4.8662,5.7075,6.4404,9.2798,1.5723,3.5737,2.3594,7.4404,2.3594,11.6001ZM205.7716,246.3742v38.3198h21.9199c2.8799,0,5.5459-.52,8-1.5601,2.4521-1.0396,4.5723-2.4399,6.3594-4.1997,1.7861-1.7603,3.1865-3.8003,4.2002-6.1201,1.0127-2.3198,1.5205-4.7598,1.5205-7.3198,0-2.7202-.5205-5.2402-1.5605-7.5601-1.04-2.3203-2.4541-4.3325-4.2402-6.04-1.7871-1.7061-3.9199-3.0527-6.3994-4.04-2.4805-.9863-5.1602-1.48-8.04-1.48h-21.7598Z"/>
    <path class="cls-5" d="M285.3703,260.6941l-9.7598,73.6001c-.2139,1.3877-.8682,2.48-1.96,3.2803-1.0938.7998-2.334,1.1196-3.7207.96-1.3867-.2666-2.4932-.9326-3.3193-2-.8281-1.0664-1.1338-2.2925-.9199-3.6802l12.1602-91.52c.1592-1.2261.666-2.2124,1.5195-2.96.4268-.4263,1.0127-.8262,1.7598-1.2002,1.2266-.5322,2.4932-.5459,3.7998-.04,1.3066.5078,2.2529,1.4004,2.8408,2.6802l33.04,81.1201,33.04-81.1201c.5322-1.2261,1.4121-2.1064,2.6396-2.6401,1.2266-.5322,2.5059-.5322,3.8398,0l.8799.48c.6406.4277,1.1729.9478,1.6006,1.5601.4258.6138.6924,1.3203.7998,2.1201l11.5996,91.6802c.1602,1.3872-.1875,2.6138-1.04,3.6797-.8535,1.0679-1.9736,1.6802-3.3594,1.8403-1.3877.1597-2.6279-.1729-3.7207-1-1.0938-.8267-1.7197-1.9326-1.8799-3.3203l-9.2803-73.1196-30.5596,74.8799c-.4795,1.0674-1.1738,1.8672-2.0801,2.3999-.9072.5327-1.8672.7461-2.8799.6401-.9072-.0537-1.7471-.3325-2.5195-.8403-.7744-.5059-1.374-1.2397-1.8008-2.1997l-30.7197-75.2803Z"/>
  </g>
</svg>