<?xml version="1.0" encoding="UTF-8"?>
<svg id="Interno_-_BD" data-name="Interno - BD" xmlns="http://www.w3.org/2000/svg" xmlns:xlink="http://www.w3.org/1999/xlink" viewBox="0 0 453.5433 453.5433">
  <defs>
    <style>
      .cls-1 {
        fill: url(#Degradado_sin_nombre_7-5);
      }

      .cls-1, .cls-2, .cls-3, .cls-4, .cls-5, .cls-6, .cls-7 {
        stroke-width: 0px;
      }

      .cls-2 {
        fill: url(#Degradado_sin_nombre_7-3);
      }

      .cls-3 {
        fill: url(#Degradado_sin_nombre_7-2);
      }

      .cls-4 {
        fill: url(#Degradado_sin_nombre_7-4);
      }

      .cls-5 {
        fill: url(#Degradado_sin_nombre_7);
      }

      .cls-6 {
        fill: #fff;
      }

      .cls-7 {
        fill: url(#Degradado_sin_nombre_5);
      }
    </style>
    <linearGradient id="Degradado_sin_nombre_5" data-name="Degradado sin nombre 5" x1="228.0298" y1="393.0074" x2="228.0298" y2="57.4333" gradientUnits="userSpaceOnUse">
      <stop offset="0" stop-color="#63636f"/>
      <stop offset=".3615" stop-color="#646470"/>
      <stop offset="1" stop-color="#7f7c94"/>
    </linearGradient>
    <linearGradient id="Degradado_sin_nombre_7" data-name="Degradado sin nombre 7" x1="14.1845" y1="175.1721" x2="231.106" y2="175.1721" gradientUnits="userSpaceOnUse">
      <stop offset="0" stop-color="#63636f"/>
      <stop offset="1" stop-color="#7f7c94"/>
    </linearGradient>
    <linearGradient id="Degradado_sin_nombre_7-2" data-name="Degradado sin nombre 7" x1="2387.187" y1="-1986.9087" x2="2604.1085" y2="-1986.9087" gradientTransform="translate(2162.0401 2826.5051) rotate(-90)" xlink:href="#Degradado_sin_nombre_7"/>
    <linearGradient id="Degradado_sin_nombre_7-3" data-name="Degradado sin nombre 7" x1="4501.8339" y1="364.2108" x2="4718.7549" y2="364.2108" gradientTransform="translate(4941.1927 642.5821) rotate(-180)" xlink:href="#Degradado_sin_nombre_7"/>
    <linearGradient id="Degradado_sin_nombre_7-4" data-name="Degradado sin nombre 7" x1="117.4656" y1="14.3558" x2="122.6453" y2="14.3558" xlink:href="#Degradado_sin_nombre_7"/>
    <linearGradient id="Degradado_sin_nombre_7-5" data-name="Degradado sin nombre 7" x1="134.8052" y1="122.686" x2="439.3588" y2="122.686" xlink:href="#Degradado_sin_nombre_7"/>
  </defs>
  <rect class="cls-7" x="56.8186" y="57.4333" width="342.4225" height="335.5741"/>
  <path class="cls-5" d="M122.6453,14.2252C62.7443,14.2252,14.1845,62.785,14.1845,122.686v213.4329c59.9015,0,108.4608-48.5592,108.4608-108.4608v-104.9722c0-59.901,48.5597-108.4608,108.4608-108.4608h-108.4608Z"/>
  <path class="cls-3" d="M14.1845,330.8573c0,59.9013,48.5597,108.4608,108.4608,108.4608h213.4329c0-59.9012-48.5592-108.4608-108.4602-108.4608h-104.9727c-59.901,0-108.4608-48.5592-108.4608-108.4608v108.4608Z"/>
  <path class="cls-2" d="M330.8985,439.3181c59.901,0,108.4602-48.5595,108.4602-108.4608V117.4244c-59.901,0-108.4602,48.5598-108.4602,108.4608v104.9722c0,59.9013-48.5597,108.4608-108.4608,108.4608h108.4608Z"/>
  <g>
    <path class="cls-4" d="M122.6453,14.2252h-5.1796c0,.0886.0123.173.0128.2611,1.7243-.0814,3.4231-.2611,5.1668-.2611Z"/>
    <path class="cls-1" d="M330.8985,14.2252h-99.7925c-41.945,0-78.2568,23.8519-96.3008,58.6938,19.3096,29.9147,52.867,49.767,91.1207,49.767h104.9727c59.901,0,108.4602,48.5592,108.4602,108.4608v-108.4608c0-59.901-48.5592-108.4608-108.4602-108.4608Z"/>
  </g>
  <g>
    <g>
      <path class="cls-6" d="M104.8291,149.4438c-2.669-1.01-5.0532-2.2881-7.1502-3.8326-2.097-1.5446-3.7941-3.3936-5.0901-5.5487-1.2971-2.154-1.9451-4.6996-1.9451-7.6362,0-2.9746.648-5.6532,1.9451-8.0368,1.296-2.383,3.0031-4.4047,5.1191-6.0637,2.116-1.6585,4.5091-2.9361,7.1793-3.8326,2.6679-.8955,5.3761-1.344,8.1222-1.344,2.211,0,4.3661.229,6.4643.6865,2.0959.4575,4.0611,1.1351,5.8911,2.0306,1.8311.8966,3.4891,2.0021,4.9772,3.3176,1.487,1.3155,2.726,2.8512,3.7181,4.6046.419.6865.5139,1.3831.286,2.0881-.229.7061-.5541,1.268-.9731,1.6876-.534.496-1.2301.7916-2.0881.8865-.858.0955-1.687-.162-2.4881-.772-2.2121-2.7076-4.5761-4.6052-7.0933-5.6917-2.516-1.0871-5.3761-1.6306-8.5803-1.6306-1.792,0-3.5841.2575-5.3761.7726-1.7931.5145-3.4232,1.268-4.8912,2.2596-1.468.9921-2.6702,2.2406-3.6042,3.7466-.934,1.5066-1.401,3.2517-1.401,5.2336,0,2.0981.5519,3.8427,1.6591,5.2342,1.1049,1.3926,2.5071,2.5651,4.2041,3.5181,1.6959.9536,3.555,1.7256,5.5772,2.3166,2.0211.5916,3.9472,1.1155,5.7772,1.5731,2.8221.8776,5.5772,1.8686,8.2663,2.9746,2.688,1.1061,5.0711,2.4596,7.1502,4.0611,2.078,1.6015,3.7461,3.5092,5.0052,5.7202,1.258,2.2121,1.887,4.8622,1.887,7.9513,0,3.3176-.658,6.3207-1.973,9.0093-1.3161,2.688-3.0891,4.9962-5.3202,6.9212-2.2311,1.9261-4.8242,3.4131-7.7792,4.4616-2.9562,1.0485-6.0542,1.5731-9.2953,1.5731-2.7082,0-5.3202-.3625-7.8362-1.0865-2.5171-.724-4.8342-1.7066-6.9502-2.9461-2.1171-1.239-3.9673-2.707-5.5493-4.4047-1.582-1.6965-2.7931-3.5176-3.6321-5.4627-.572-1.22-.658-2.24-.257-3.0601.4-.82.9809-1.439,1.744-1.8591.877-.4955,1.7071-.6011,2.4892-.3151.7809.286,1.5909.9636,2.4311,2.0311.724,1.5256,1.706,2.8981,2.945,4.1181,1.239,1.2211,2.6411,2.2596,4.2052,3.1176,1.563.858,3.2601,1.5161,5.0901,1.9736,1.8311.4575,3.7181.6865,5.6632.6865,2.0211,0,4.0332-.305,6.0352-.9156,2.0021-.6094,3.8041-1.5245,5.4051-2.7456,1.6021-1.22,2.8981-2.7355,3.8902-4.5477.991-1.8105,1.487-3.8986,1.487-6.2632,0-2.1741-.496-3.9946-1.487-5.4632-.9921-1.4675-2.3082-2.726-3.9472-3.7751-1.6401-1.0485-3.4891-1.9451-5.5481-2.6886-2.0602-.7435-4.1382-1.4585-6.2352-2.1451-2.7461-.648-5.4543-1.4775-8.1233-2.4881Z"/>
      <path class="cls-6" d="M155.8516,183.3929c0,.9921-.353,1.8306-1.058,2.5171-.7061.6865-1.5541,1.0295-2.545,1.0295-.9921,0-1.8412-.343-2.5462-1.0295-.7061-.6865-1.058-1.525-1.058-2.5171v-66.1251c0-1.0295.3519-1.8781,1.058-2.5456.705-.667,1.5541-1.001,2.5462-1.001.991,0,1.839.334,2.545,1.001.705.6675,1.058,1.5161,1.058,2.5456v66.1251Z"/>
      <path class="cls-6" d="M177.9301,128.1931l-6.0062-8.5803c-.381-.4949-.5999-1.077-.658-1.7445-.057-.667.029-1.296.2581-1.8875.229-.591.581-1.096,1.058-1.5161.4759-.419,1.058-.629,1.7451-.629h.286c.3799.0765.7619.191,1.144.343h.114c.076.0771.1519.1246.229.143.076.0196.1519.067.229.143l.2279.1145c.1151.0771.219.1715.3151.286.095.1145.2.229.3151.343l.1709.286,40.0419,57.0304v-55.1998c0-.991.3519-1.8395,1.058-2.5456.7061-.705,1.5731-1.058,2.6031-1.058s1.8781.353,2.545,1.058c.667.7061,1.001,1.5546,1.001,2.5456v66.0682c0,.8776-.2771,1.6401-.829,2.2881-.553.6491-1.2491,1.0496-2.0881,1.2016-.1531.038-.381.057-.686.057-1.0681,0-1.9652-.362-2.6892-1.0871l-.2279-.343-.1721-.1715-39.9849-57.1449v55.1998c0,.9921-.353,1.8306-1.058,2.5171-.7061.6865-1.5541,1.0295-2.545,1.0295-.9921,0-1.8412-.343-2.5462-1.0295-.7061-.6865-1.058-1.525-1.058-2.5171v-66.0106c0-.9915.3519-1.8306,1.058-2.5171.705-.6865,1.5541-1.0295,2.5462-1.0295h.286c.419.0765.7999.191,1.144.343h.114c.076.0771.1519.1246.229.143.076.0196.1519.067.229.143.076,0,.1519.0385.2279.1145.4201.3056.753.7061,1.001,1.201.248.496.372,1.0301.372,1.6021v10.8108Z"/>
      <path class="cls-6" d="M296.9106,126.763c0,.9536-.3441,1.7931-1.0301,2.5171-.7251.6865-1.5932,1.0396-2.6031,1.058-1.01.0196-1.8401-.3145-2.4881-1.001-3.0132-2.9746-6.3492-5.2051-10.0103-6.6927-3.6611-1.487-7.4552-2.2305-11.3834-2.2305-4.1181,0-7.9993.7821-11.6404,2.3451-3.6421,1.5641-6.8162,3.6997-9.5243,6.4067-2.7082,2.7082-4.8432,5.8917-6.4062,9.5528-1.5641,3.6606-2.3451,7.5703-2.3451,11.7264,0,4.0041.7519,7.8178,2.259,11.4404,1.506,3.6232,3.5841,6.8067,6.2352,9.5528,2.6501,2.7456,5.7962,4.9292,9.4383,6.5492,3.641,1.6217,7.5982,2.4311,11.8694,2.4311,3.927.0385,7.7021-.629,11.3264-2.0021,3.622-1.3725,6.9581-3.5841,10.0103-6.6352.724-.6865,1.582-1.0385,2.5741-1.058.991-.019,1.83.2955,2.516.9435.724.6865,1.077,1.5446,1.0591,2.5741-.0201,1.0295-.353,1.8691-1.001,2.5171-3.7382,3.7377-7.8753,6.4922-12.4135,8.2658-4.5382,1.773-9.2294,2.6596-14.0714,2.6596-3.3941,0-6.6743-.4486-9.8383-1.344-3.1662-.8955-6.1213-2.1451-8.8663-3.7466-2.7461-1.6021-5.2442-3.5371-7.4943-5.8062-2.2501-2.2685-4.1751-4.7851-5.7772-7.5508-1.601-2.7646-2.8411-5.7291-3.7181-8.8948-.877-3.1651-1.315-6.4637-1.315-9.8958,0-3.2411.419-6.4257,1.258-9.5528.8379-3.1266,2.0311-6.0632,3.5751-8.8093,1.544-2.7456,3.4221-5.2811,5.6342-7.6077,2.211-2.3255,4.7002-4.3276,7.4653-6.0062,2.764-1.6775,5.7571-2.9835,8.9802-3.9181,3.2221-.934,6.6441-1.4016,10.2684-1.4016,4.8041,0,9.4852.9351,14.0424,2.8031,4.5572,1.8686,8.6663,4.6331,12.3274,8.2943.724.7245,1.0871,1.5641,1.0871,2.5165Z"/>
      <path class="cls-6" d="M353.4533,116.1237c4.5181,1.9445,8.4652,4.6046,11.8403,7.9798,3.3751,3.3746,6.0442,7.3128,8.0083,11.8118,1.9641,4.5002,2.9461,9.3238,2.9461,14.472,0,3.4321-.4491,6.7413-1.344,9.9249-.8971,3.1846-2.1451,6.1492-3.7472,8.8948-1.6021,2.7456-3.5461,5.2627-5.8341,7.5508-2.2881,2.2881-4.8052,4.2326-7.5513,5.8347-2.745,1.6015-5.7112,2.8512-8.8942,3.7466-3.1852.8955-6.4933,1.344-9.9254,1.344s-6.7402-.4486-9.9243-1.344-6.1492-2.1451-8.8942-3.7466c-2.7461-1.6021-5.2442-3.5466-7.4943-5.8347-2.2501-2.2881-4.1751-4.8052-5.7772-7.5508-1.601-2.7456-2.8411-5.7101-3.7181-8.8948-.877-3.1835-1.315-6.4927-1.315-9.9249s.438-6.7302,1.315-9.8958c.877-3.1645,2.1171-6.1207,3.7181-8.8663,1.6021-2.7456,3.5271-5.2526,5.7772-7.5217,2.2501-2.2685,4.7482-4.2136,7.4943-5.8347,2.745-1.6205,5.7101-2.869,8.8942-3.7466,3.1841-.877,6.4922-1.3161,9.9243-1.3161,5.1482,0,9.9824.9725,14.5016,2.9176ZM327.2544,122.8164c-3.6421,1.5641-6.8072,3.6991-9.4953,6.4062-2.6892,2.7082-4.8152,5.8732-6.3782,9.4958-1.5641,3.6232-2.3451,7.5128-2.3451,11.6688,0,4.1957.7809,8.1138,2.3451,11.7554,1.563,3.6421,3.6891,6.8167,6.3782,9.5238,2.688,2.7082,5.8531,4.8437,9.4953,6.4067,3.641,1.5641,7.5591,2.3451,11.7554,2.3451,4.1561,0,8.0552-.7809,11.6973-2.3451,3.641-1.563,6.8162-3.6986,9.5243-6.4067,2.707-2.707,4.842-5.8816,6.4062-9.5238,1.563-3.6416,2.3451-7.5597,2.3451-11.7554,0-4.1561-.7821-8.0457-2.3451-11.6688-1.5641-3.6226-3.6991-6.7877-6.4062-9.4958-2.7082-2.707-5.8833-4.842-9.5243-6.4062-3.6421-1.5636-7.5413-2.3456-11.6973-2.3456-4.1963,0-8.1144.7821-11.7554,2.3456Z"/>
    </g>
    <g>
      <path class="cls-6" d="M144.3757,338.5878c-1.6079,0-2.9834-.5567-4.1265-1.6692-1.1441-1.1125-1.7147-2.4711-1.7147-4.079v-107.1854c0-1.6692.5706-3.0437,1.7147-4.1265,1.1431-1.0808,2.5186-1.6227,4.1265-1.6227h31.9883c4.2649,0,8.252.8207,11.9611,2.4573,3.7092,1.6385,6.9536,3.8476,9.7352,6.6293,2.7816,2.7816,4.9611,6.0429,6.5373,9.7827,1.5762,3.7408,2.3643,7.7417,2.3643,12.0066,0,5.0698-1.1283,9.7214-3.3838,13.9547-2.2575,4.2352-5.2706,7.7427-9.0411,10.5243,2.657,1.422,5.0679,3.1525,7.2325,5.1925,2.1626,2.039,4.0177,4.3272,5.5633,6.8606,1.5446,2.5354,2.75,5.2854,3.6162,8.2529.8652,2.9666,1.2984,6.0884,1.2984,9.3644,0,4.8216-.9127,9.2883-2.7352,13.3979-1.8244,4.1116-4.3124,7.6656-7.4648,10.6628-3.1525,2.9992-6.8606,5.3477-11.1265,7.0465-4.2649,1.7008-8.8403,2.5502-13.7223,2.5502h-32.8229ZM150.2168,231.5883v39.4057h25.3126c2.8429,0,5.4703-.5557,7.8811-1.6682s4.4973-2.5967,6.2594-4.4508c1.7611-1.8541,3.1366-3.9712,4.1255-6.3514.9879-2.3792,1.4833-4.8365,1.4833-7.3709s-.4954-4.9759-1.4833-7.3254c-.9889-2.3485-2.3643-4.435-4.1255-6.2584-1.7621-1.8225-3.818-3.2761-6.1665-4.3579-2.3495-1.0808-4.9136-1.6227-7.6952-1.6227h-25.5914ZM150.2168,281.5647v45.3398h26.611c3.3987,0,6.5511-.617,9.4574-1.8541,2.9052-1.2361,5.408-2.8884,7.5103-4.9601,2.1013-2.0707,3.7557-4.4815,4.9611-7.2325,1.2054-2.75,1.8076-5.6701,1.8076-8.7622,0-3.1525-.6022-6.1032-1.8076-8.8552-1.2054-2.749-2.8746-5.146-5.0075-7.186-2.132-2.039-4.6674-3.6301-7.6033-4.7742-2.9359-1.1431-6.1042-1.7157-9.5038-1.7157h-26.425Z"/>
      <path class="cls-6" d="M256.9385,219.905c5.5633,0,10.9248.6962,16.0866,2.0865,5.1608,1.3913,9.9676,3.37,14.4184,5.9341,4.4498,2.5661,8.5298,5.6414,12.239,9.226,3.7082,3.5856,6.8606,7.5726,9.4574,11.9611,2.5957,4.3895,4.6199,9.133,6.0735,14.2325,1.4516,5.0995,2.1784,10.4304,2.1784,15.9937,0,8.3449-1.592,16.1193-4.7752,23.3201-3.1841,7.2018-7.5103,13.4761-12.9806,18.8218-5.4703,5.3477-11.8682,9.5355-19.1936,12.5633-7.3244,3.0298-15.1591,4.5438-23.504,4.5438h-19.9352c-1.6079,0-2.9834-.5567-4.1265-1.6692-1.1441-1.1125-1.7147-2.4711-1.7147-4.079v-107.1854c0-1.6692.5706-3.0437,1.7147-4.1265,1.1431-1.0808,2.5186-1.6227,4.1265-1.6227h19.9352ZM257.2164,231.6812h-14.372v95.2233h14.186c6.737,0,13.0578-1.2044,18.9622-3.6152,5.9015-2.4108,11.0474-5.7492,15.4379-10.0141,4.3875-4.2649,7.8485-9.2863,10.3839-15.0671,2.5344-5.7788,3.8021-12.0679,3.8021-18.8692,0-6.6757-1.2677-12.9183-3.8021-18.7288-2.5354-5.8095-5.9806-10.8487-10.3384-15.1136-4.3579-4.2649-9.489-7.6339-15.3915-10.107-5.9034-2.4711-12.1925-3.7082-18.8683-3.7082Z"/>
    </g>
  </g>
</svg>