<?xml version="1.0" encoding="UTF-8"?>
<svg id="RE" xmlns="http://www.w3.org/2000/svg" xmlns:xlink="http://www.w3.org/1999/xlink" viewBox="0 0 453.5433 453.5433">
  <defs>
    <style>
      .cls-1 {
        fill: url(#Degradado_sin_nombre_65-4);
      }

      .cls-1, .cls-2, .cls-3, .cls-4, .cls-5, .cls-6, .cls-7 {
        stroke-width: 0px;
      }

      .cls-2 {
        fill: url(#Degradado_sin_nombre_85);
      }

      .cls-3 {
        fill: url(#Degradado_sin_nombre_65);
      }

      .cls-4 {
        fill: url(#Degradado_sin_nombre_65-3);
      }

      .cls-5 {
        fill: url(#Degradado_sin_nombre_65-2);
      }

      .cls-6 {
        fill: #fff;
      }

      .cls-7 {
        fill: url(#Degradado_sin_nombre_65-5);
      }
    </style>
    <linearGradient id="Degradado_sin_nombre_65" data-name="Degradado sin nombre 65" x1="56.7178" y1="226.7717" x2="396.8255" y2="226.7717" gradientUnits="userSpaceOnUse">
      <stop offset="0" stop-color="#0f666b"/>
      <stop offset="1" stop-color="#1d8d97"/>
    </linearGradient>
    <linearGradient id="Degradado_sin_nombre_65-2" data-name="Degradado sin nombre 65" x1="14.4541" y1="175.1721" x2="234.3511" y2="175.1721" xlink:href="#Degradado_sin_nombre_65"/>
    <linearGradient id="Degradado_sin_nombre_65-3" data-name="Degradado sin nombre 65" x1="-183.6698" y1="584.0135" x2="38.5922" y2="584.0135" gradientTransform="translate(-408.8167 255.6483) rotate(-90)" xlink:href="#Degradado_sin_nombre_65"/>
    <linearGradient id="Degradado_sin_nombre_85" data-name="Degradado sin nombre 85" x1="-639.6099" y1="364.2109" x2="-418.3791" y2="364.2109" gradientTransform="translate(-200.5208 642.5821) rotate(-180)" gradientUnits="userSpaceOnUse">
      <stop offset="0" stop-color="#0f666b"/>
      <stop offset="1" stop-color="#1d8d97"/>
    </linearGradient>
    <linearGradient id="Degradado_sin_nombre_65-4" data-name="Degradado sin nombre 65" x1="117.6042" y1="14.3582" x2="122.7773" y2="14.3582" xlink:href="#Degradado_sin_nombre_65"/>
    <linearGradient id="Degradado_sin_nombre_65-5" data-name="Degradado sin nombre 65" x1="134.9218" y1="124.7371" x2="439.0892" y2="124.7371" xlink:href="#Degradado_sin_nombre_65"/>
  </defs>
  <g>
    <rect class="cls-3" x="56.7178" y="60.2733" width="340.1077" height="332.9967"/>
    <path class="cls-5" d="M124.4026,14.2252C63.6799,14.2252,14.4541,62.785,14.4541,122.686v213.4329c60.7232,0,109.9485-48.5592,109.9485-108.4608v-104.9722c0-59.901,49.2258-108.4608,109.9485-108.4608h-109.9485Z"/>
    <path class="cls-4" d="M14.4541,328.1871c0,61.376,48.4982,111.131,108.3232,111.131h213.1623c0-61.3759-48.4977-111.131-108.3227-111.131h-104.8396c-59.825,0-108.3232-49.7547-108.3232-111.131v111.131Z"/>
    <path class="cls-2" d="M328.4739,439.3181c61.0911,0,110.6151-48.5595,110.6151-108.4608V117.4244c-61.0911,0-110.6151,48.5598-110.6151,108.4608v104.9722c0,59.9013-49.5245,108.4608-110.6156,108.4608h110.6156Z"/>
    <g>
      <path class="cls-1" d="M122.7773,14.2252h-5.1731c0,.0902.0123.1763.0128.266,1.7221-.0829,3.4187-.266,5.1603-.266Z"/>
      <path class="cls-7" d="M330.7665,14.2252h-99.666c-41.8918,0-78.1576,24.3029-96.1787,59.8038,19.2851,30.4804,52.7999,50.7082,91.0051,50.7082h104.8396c59.825,0,108.3227,49.4776,108.3227,110.5119v-110.5119c0-61.0338-48.4977-110.5119-108.3227-110.5119Z"/>
    </g>
  </g>
  <g>
    <path class="cls-6" d="M116.9839,282.8737c-4.0202-1.5193-7.6082-3.4419-10.7653-5.7647-3.1581-2.3233-5.7138-5.1051-7.665-8.3464-1.9523-3.2397-2.9279-7.0687-2.9279-11.4868,0-4.4738.9756-8.5034,2.9279-12.0887,1.9512-3.5842,4.5216-6.6254,7.7081-9.1205s6.7882-4.4166,10.8084-5.7647c4.0181-1.347,8.095-2.0224,12.2287-2.0224,3.3295,0,6.5738.3445,9.7318,1.0325,3.157.6885,6.1154,1.7078,8.8708,3.0549,2.7565,1.3481,5.2533,3.0113,7.4926,4.9906,2.2393,1.9788,4.1043,4.2885,5.5982,6.9263.6308,1.0325.7748,2.0796.431,3.1405-.3448,1.0619-.8337,1.9074-1.4645,2.5381-.8053.7463-1.8513,1.1911-3.1434,1.3339-1.292.1439-2.541-.2437-3.7468-1.1617-3.3305-4.0721-6.8891-6.9263-10.6791-8.5612-3.7889-1.6348-8.095-2.4525-12.9183-2.4525-2.6987,0-5.3974.3876-8.095,1.1617-2.6997.7746-5.1545,1.9079-7.3633,3.3988-2.2109,1.492-4.0202,3.3705-5.4257,5.6355-1.4077,2.2666-2.11,4.8913-2.11,7.8732,0,3.1552.8316,5.7794,2.4968,7.8727,1.6653,2.0943,3.7752,3.8584,6.3299,5.2915,2.5546,1.4347,5.3532,2.5964,8.3978,3.485,3.0425.8896,5.9419,1.6779,8.6984,2.3658,4.2472,1.3203,8.3967,2.8112,12.4442,4.4744,4.0475,1.6642,7.6356,3.6998,10.7653,6.1092,3.1287,2.4089,5.6413,5.2779,7.5357,8.6042,1.8944,3.3274,2.8417,7.3134,2.8417,11.9595,0,4.9906-.9903,9.508-2.971,13.5518-1.9806,4.0443-4.6509,7.5156-8.0088,10.4113-3.3589,2.8973-7.2645,5.134-11.7135,6.711-4.4501,1.5771-9.1147,2.3664-13.9949,2.3664-4.0769,0-8.0088-.5456-11.7987-1.6348-3.7889-1.0892-7.2771-2.5665-10.4635-4.4313-3.1865-1.8633-5.9724-4.0721-8.3536-6.6249-2.3833-2.5518-4.2062-5.292-5.4688-8.2172-.861-1.8354-.9903-3.3694-.3879-4.6036.6034-1.2326,1.4781-2.1642,2.6272-2.796,1.3204-.7452,2.5683-.9038,3.7458-.4737,1.1764.4306,2.397,1.4494,3.6606,3.0549,1.0902,2.295,2.5683,4.3599,4.4354,6.1948,1.865,1.8365,3.9749,3.3988,6.3299,4.6897,2.3539,1.2903,4.9085,2.2797,7.665,2.9682,2.7554.6885,5.5982,1.0325,8.526,1.0325,3.0425,0,6.0712-.4585,9.0853-1.3764,3.0151-.9169,5.7275-2.2939,8.1391-4.1304,2.4117-1.8349,4.3629-4.1152,5.8557-6.8402,1.4928-2.724,2.2393-5.8645,2.2393-9.4214,0-3.2697-.7464-6.0084-2.2393-8.2172-1.4928-2.2078-3.4735-4.1005-5.9419-5.6791-2.4695-1.5765-5.2533-2.9251-8.3536-4.0437-3.1003-1.1186-6.231-2.1941-9.3881-3.2266-4.1337-.9747-8.2106-2.2225-12.2287-3.7428Z"/>
    <path class="cls-6" d="M249.8677,260.6316c0,3.9014-.6455,7.5586-1.9375,10.9706-1.292,3.4135-3.0866,6.4532-5.3826,9.1205-2.2971,2.6673-5.0241,4.9192-8.1812,6.7541-3.1581,1.8365-6.6032,3.0979-10.3353,3.7859l24.9756,39.9238c.8032,1.4925.9472,2.9551.431,4.3882-.5172,1.4342-1.4645,2.4667-2.8427,3.0974-1.3204.6885-2.6556.8177-4.0044.387-1.3499-.4301-2.398-1.2756-3.1434-2.5381l-27.4725-44.656h-18.1716v42.0748c0,1.4925-.532,2.7534-1.5938,3.7859-1.0629,1.0325-2.3402,1.5487-3.832,1.5487-1.4939,0-2.7712-.5162-3.833-1.5487-1.0629-1.0325-1.5927-2.2934-1.5927-3.7859v-99.4649c0-1.5487.5299-2.8248,1.5927-3.8289,1.0618-1.0031,2.3391-1.5056,3.833-1.5056h28.9369c4.5342,0,8.7846.804,12.7459,2.4089,3.9613,1.607,7.4064,3.8158,10.3342,6.6254,2.9289,2.8112,5.2386,6.1386,6.9333,9.9807,1.6926,3.8437,2.5399,8.0024,2.5399,12.4762ZM193.8032,239.8095v41.2141h23.5974c3.1003,0,5.9703-.5593,8.6122-1.6779,2.6398-1.1181,4.9222-2.6242,6.846-4.5169,1.9228-1.8932,3.4304-4.0873,4.5216-6.5824,1.0902-2.495,1.6369-5.1193,1.6369-7.8727,0-2.9257-.5603-5.636-1.68-8.1311-1.1196-2.4956-2.6419-4.6598-4.5647-6.4962-1.9239-1.8349-4.2199-3.2833-6.8891-4.3452-2.6703-1.0608-5.555-1.5918-8.6553-1.5918h-23.425Z"/>
    <path class="cls-6" d="M279.4922,255.2108l-10.5067,79.1591c-.2302,1.4925-.9346,2.6673-2.11,3.528-1.1775.8602-2.5126,1.2042-4.0054,1.0325-1.4928-.2867-2.684-1.0031-3.5734-2.1511-.8915-1.147-1.2206-2.4656-.9903-3.9581l13.0907-98.4325c.1714-1.3187.717-2.3795,1.6358-3.1835.4594-.4585,1.0902-.8886,1.8944-1.2908,1.3204-.5724,2.684-.5871,4.0906-.0431,1.4066.5462,2.4253,1.5062,3.0582,2.8826l35.5685,87.2471,35.5685-87.2471c.573-1.3187,1.5202-2.2655,2.8417-2.8395,1.3204-.5724,2.6976-.5724,4.1337,0l.9472.5162c.6897.46,1.2626,1.0193,1.7231,1.6779.4584.6601.7454,1.42.861,2.2802l12.4873,98.6047c.1724,1.492-.2018,2.8112-1.1196,3.9576-.9188,1.1485-2.1247,1.8071-3.6165,1.9793-1.4939.1717-2.829-.1859-4.0054-1.0755-1.1775-.8891-1.8513-2.0786-2.0237-3.5711l-9.9905-78.6423-32.8982,80.5355c-.5162,1.148-1.2637,2.0082-2.2393,2.5812-.9767.573-2.0101.8024-3.1003.6885-.9767-.0578-1.8808-.3576-2.7123-.9038-.8337-.5441-1.4792-1.3334-1.9386-2.3658l-33.0706-80.9662Z"/>
  </g>
  <g>
    <path class="cls-6" d="M108.3729,148.9293c-2.6359-.9965-4.9904-2.2575-7.0614-3.7815s-3.7469-3.3483-5.0268-5.4747c-1.281-2.1253-1.9209-4.6369-1.9209-7.5343,0-2.9349.6399-5.5777,1.9209-7.9295,1.2799-2.3512,2.9658-4.3459,5.0555-5.9828,2.0897-1.6364,4.4531-2.8969,7.0901-3.7815,2.6348-.8835,5.3093-1.3261,8.0213-1.3261,2.1835,0,4.3119.226,6.3839.6774,2.0699.4514,4.0106,1.12,5.8179,2.0035,1.8084.8846,3.4457,1.9754,4.9154,3.2733,1.4685,1.298,2.6922,2.8131,3.6719,4.5432.4138.6774.5075,1.3647.2825,2.0602-.2262.6967-.5473,1.2511-.961,1.6651-.5274.4894-1.2148.781-2.0621.8747-.8474.0942-1.666-.1598-2.4571-.7617-2.1846-2.6715-4.5193-4.5438-7.0051-5.6158-2.4847-1.0726-5.3093-1.6088-8.4737-1.6088-1.7698,0-3.5395.2541-5.3093.7623-1.7709.5076-3.3806,1.2511-4.8304,2.2294-1.4498.9789-2.637,2.2107-3.5594,3.6966-.9224,1.4865-1.3836,3.2083-1.3836,5.1638,0,2.0702.5451,3.7914,1.6385,5.1644,1.0912,1.374,2.4759,2.5309,4.1519,3.4712,1.6749.9408,3.5108,1.7025,5.5079,2.2857,1.9959.5837,3.8981,1.1007,5.7054,1.5521,2.787.8659,5.5079,1.8436,8.1636,2.9349,2.6546,1.0913,5.0081,2.4268,7.0614,4.0069,2.0522,1.5802,3.6995,3.4624,4.943,5.6439,1.2424,2.1826,1.8635,4.7973,1.8635,7.8452,0,3.2733-.6499,6.2364-1.9485,8.8891-1.2997,2.6522-3.0507,4.9296-5.2541,6.8289-2.2034,1.9004-4.7642,3.3676-7.6826,4.4021-2.9194,1.0345-5.979,1.5521-9.1798,1.5521-2.6745,0-5.2541-.3577-7.7388-1.072-2.4858-.7143-4.7742-1.6838-6.8639-2.9068-2.0908-1.2225-3.918-2.6709-5.4803-4.3459-1.5623-1.6739-2.7584-3.4706-3.587-5.3898-.5649-1.2037-.6499-2.2101-.2538-3.0193.395-.8091.9687-1.4198,1.7223-1.8343.8661-.4889,1.6859-.593,2.4582-.3109.7712.2822,1.5712.9507,2.4009,2.004.715,1.5052,1.6848,2.8594,2.9084,4.0631,1.2236,1.2048,2.6083,2.2294,4.153,3.076,1.5436.8466,3.2195,1.4958,5.0268,1.9472,1.8084.4514,3.6719.6774,5.5928.6774,1.9959,0,3.9831-.3009,5.9602-.9033,1.9772-.6013,3.7569-1.5041,5.338-2.7089,1.5822-1.2037,2.8621-2.699,3.8418-4.487.9787-1.7863,1.4685-3.8465,1.4685-6.1796,0-2.1451-.4899-3.9413-1.4685-5.3903-.9798-1.4479-2.2795-2.6897-3.8981-3.7247-1.6197-1.0345-3.4457-1.9191-5.4792-2.6527-2.0346-.7336-4.0868-1.4391-6.1577-2.1165-2.712-.6393-5.3865-1.4578-8.0224-2.4549Z"/>
    <path class="cls-6" d="M158.7614,182.4254c0,.9789-.3487,1.8061-1.0449,2.4835-.6973.6774-1.5347,1.0158-2.5134,1.0158-.9798,0-1.8183-.3384-2.5145-1.0158-.6973-.6774-1.0449-1.5047-1.0449-2.4835v-65.2429c0-1.0158.3476-1.853,1.0449-2.5116.6962-.6581,1.5347-.9877,2.5145-.9877.9787,0,1.8161.3296,2.5134.9877.6962.6586,1.0449,1.4958,1.0449,2.5116v65.2429Z"/>
    <path class="cls-6" d="M180.5656,127.9621l-5.9316-8.4658c-.3762-.4883-.5925-1.0626-.6499-1.7213-.0563-.6581.0287-1.2787.2549-1.8624.2262-.5831.5737-1.0814,1.0449-1.4958.47-.4134,1.0449-.6206,1.7234-.6206h.2825c.3751.0755.7525.1885,1.1298.3384h.1125c.075.0761.1501.1229.2262.1411.075.0193.1501.0661.2262.1411l.2251.113c.1136.0761.2163.1692.3111.2822.0938.113.1975.226.3111.3384l.1688.2822,39.5443,56.2695v-54.4633c0-.9778.3476-1.815,1.0449-2.5116.6973-.6956,1.5535-1.0439,2.5708-1.0439s1.8547.3483,2.5134,1.0439c.6587.6967.9886,1.5339.9886,2.5116v65.1867c0,.8659-.2736,1.6182-.8187,2.2575-.5462.6404-1.2335,1.0356-2.0621,1.1855-.1512.0375-.3762.0562-.6775.0562-1.0548,0-1.9408-.3572-2.6557-1.0726l-.2251-.3384-.1699-.1692-39.488-56.3825v54.4633c0,.9789-.3487,1.8061-1.0449,2.4835-.6973.6774-1.5347,1.0158-2.5134,1.0158-.9798,0-1.8183-.3384-2.5145-1.0158-.6973-.6774-1.0449-1.5047-1.0449-2.4835v-65.1299c0-.9783.3476-1.8061,1.0449-2.4835.6962-.6774,1.5347-1.0158,2.5145-1.0158h.2825c.4138.0755.79.1885,1.1298.3384h.1125c.075.0761.1501.1229.2262.1411.075.0193.1501.0661.2262.1411.075,0,.1501.038.2251.113.4149.3015.7437.6967.9886,1.185.2449.4894.3674,1.0163.3674,1.5807v10.6666Z"/>
    <path class="cls-6" d="M298.0675,126.5511c0,.9408-.3398,1.7692-1.0173,2.4835-.7161.6774-1.5734,1.0257-2.5708,1.0439-.9974.0193-1.8172-.3103-2.4571-.9877-2.9757-2.9349-6.2703-5.1357-9.8859-6.6034-3.6156-1.4672-7.3626-2.2008-11.2419-2.2008-4.0669,0-7.8999.7716-11.4957,2.3138-3.5969,1.5432-6.7315,3.6503-9.406,6.3212-2.6745,2.672-4.783,5.8131-6.3266,9.4254-1.5447,3.6117-2.3159,7.4693-2.3159,11.5699,0,3.9507.7425,7.7135,2.231,11.2877,1.4873,3.5748,3.5395,6.7159,6.1577,9.4254,2.6171,2.7089,5.7241,4.8634,9.321,6.4618,3.5958,1.6,7.5038,2.3986,11.7219,2.3986,3.8782.038,7.6064-.6206,11.1857-1.9754,3.577-1.3542,6.8716-3.5362,9.8859-6.5467.715-.6774,1.5623-1.0246,2.5421-1.0439.9787-.0187,1.8073.2916,2.4847.9309.715.6774,1.0636,1.524,1.046,2.5397-.0199,1.0158-.3487,1.8442-.9886,2.4835-3.6918,3.6878-7.7774,6.4056-12.2592,8.1555-4.4818,1.7494-9.1147,2.6241-13.8966,2.6241-3.3519,0-6.5914-.4426-9.716-1.3261-3.1269-.8835-6.0452-2.1165-8.7561-3.6966-2.712-1.5807-5.1791-3.4899-7.4012-5.7287-2.2221-2.2383-4.1232-4.7212-5.7054-7.45-1.5811-2.7277-2.8058-5.6527-3.6719-8.7761-.8661-3.1229-1.2986-6.3775-1.2986-9.7638,0-3.1978.4138-6.34,1.2424-9.4254.8275-3.0848,2.0059-5.9823,3.5307-8.6918,1.5248-2.7089,3.3795-5.2107,5.5641-7.5062,2.1835-2.2945,4.6418-4.2698,7.3725-5.9261,2.7297-1.6551,5.6855-2.9437,8.8687-3.8658,3.182-.9215,6.5616-1.3829,10.1408-1.3829,4.7444,0,9.3674.9226,13.8679,2.7657,4.5005,1.8436,8.5586,4.5713,12.1743,8.1836.715.7149,1.0736,1.5432,1.0736,2.483Z"/>
    <path class="cls-6" d="M353.9076,116.0538c4.4619,1.9186,8.36,4.5432,11.6932,7.8733,3.3332,3.3296,5.9691,7.2152,7.9087,11.6543,1.9397,4.4401,2.9095,9.1994,2.9095,14.2789,0,3.3863-.4435,6.6514-1.3273,9.7924-.886,3.1422-2.1184,6.0672-3.7006,8.7761s-3.502,5.1925-5.7616,7.45c-2.2596,2.2575-4.7455,4.1761-7.4575,5.7569-2.7109,1.5802-5.6403,2.8131-8.7837,3.6966-3.1456.8835-6.4126,1.3261-9.8021,1.3261s-6.6565-.4426-9.801-1.3261c-3.1445-.8835-6.0728-2.1165-8.7837-3.6966-2.712-1.5807-5.1791-3.4993-7.4012-5.7569s-4.1232-4.7411-5.7054-7.45c-1.5811-2.7089-2.8058-5.6339-3.6719-8.7761-.8661-3.1411-1.2986-6.4061-1.2986-9.7924s.4325-6.6404,1.2986-9.7638c.8661-3.1223,2.0908-6.0391,3.6719-8.748,1.5822-2.7089,3.4832-5.1826,5.7054-7.4214,2.2221-2.2383,4.6892-4.1574,7.4012-5.7569,2.7109-1.5989,5.6392-2.8308,8.7837-3.6966,3.1445-.8653,6.4115-1.2985,9.801-1.2985,5.0842,0,9.8583.9596,14.3214,2.8787ZM328.0343,122.6572c-3.5969,1.5432-6.7227,3.6498-9.3773,6.3207-2.6557,2.672-4.7554,5.7949-6.299,9.3692-1.5447,3.5748-2.3159,7.4125-2.3159,11.5132,0,4.1398.7712,8.0056,2.3159,11.5986,1.5436,3.5936,3.6432,6.7258,6.299,9.3967,2.6546,2.672,5.7804,4.7791,9.3773,6.3212,3.5958,1.5432,7.4652,2.3138,11.6094,2.3138,4.1044,0,7.9551-.7705,11.552-2.3138,3.5958-1.5421,6.7315-3.6492,9.406-6.3212,2.6734-2.6709,4.7819-5.8032,6.3266-9.3967,1.5436-3.593,2.3159-7.4588,2.3159-11.5986,0-4.1006-.7723-7.9383-2.3159-11.5132-1.5447-3.5743-3.6532-6.6971-6.3266-9.3692-2.6745-2.6709-5.8102-4.7774-9.406-6.3207-3.5969-1.5427-7.4476-2.3143-11.552-2.3143-4.1441,0-8.0136.7716-11.6094,2.3143Z"/>
  </g>
</svg>