<?xml version="1.0" encoding="UTF-8"?>
<svg id="Interno_-_GB" data-name="Interno - GB" xmlns="http://www.w3.org/2000/svg" xmlns:xlink="http://www.w3.org/1999/xlink" viewBox="0 0 453.5433 453.5433">
  <defs>
    <style>
      .cls-1 {
        fill: url(#Degradado_sin_nombre_37);
      }

      .cls-1, .cls-2, .cls-3, .cls-4, .cls-5, .cls-6, .cls-7 {
        stroke-width: 0px;
      }

      .cls-2 {
        fill: url(#Degradado_sin_nombre_16);
      }

      .cls-3 {
        fill: url(#Degradado_sin_nombre_37-2);
      }

      .cls-4 {
        fill: #fff;
      }

      .cls-5 {
        fill: url(#Degradado_sin_nombre_37-4);
      }

      .cls-6 {
        fill: url(#Degradado_sin_nombre_37-3);
      }

      .cls-7 {
        fill: url(#Degradado_sin_nombre_6);
      }
    </style>
    <linearGradient id="Degradado_sin_nombre_6" data-name="Degradado sin nombre 6" x1="226.7717" y1="393.0119" x2="226.7717" y2="58.2619" gradientUnits="userSpaceOnUse">
      <stop offset=".6282" stop-color="#c58d38"/>
      <stop offset=".7805" stop-color="#cc933c"/>
      <stop offset="1" stop-color="#e0a449"/>
    </linearGradient>
    <linearGradient id="Degradado_sin_nombre_37" data-name="Degradado sin nombre 37" x1="14.7065" y1="175.7115" x2="231.0954" y2="175.7115" gradientUnits="userSpaceOnUse">
      <stop offset="0" stop-color="#c58d38"/>
      <stop offset="1" stop-color="#e0a449"/>
    </linearGradient>
    <linearGradient id="Degradado_sin_nombre_37-2" data-name="Degradado sin nombre 37" x1="1913.9344" y1="-1513.4202" x2="2130.3233" y2="-1513.4202" gradientTransform="translate(1688.6784 2353.1434) rotate(-90)" xlink:href="#Degradado_sin_nombre_37"/>
    <linearGradient id="Degradado_sin_nombre_37-3" data-name="Degradado sin nombre 37" x1="3555.6325" y1="363.9248" x2="3772.0208" y2="363.9248" gradientTransform="translate(3994.4693 642.5821) rotate(-180)" xlink:href="#Degradado_sin_nombre_37"/>
    <linearGradient id="Degradado_sin_nombre_16" data-name="Degradado sin nombre 16" x1="117.734" y1="15.2901" x2="122.901" y2="15.2901" gradientUnits="userSpaceOnUse">
      <stop offset="0" stop-color="#a75c35"/>
      <stop offset="1" stop-color="#be6749"/>
    </linearGradient>
    <linearGradient id="Degradado_sin_nombre_37-4" data-name="Degradado sin nombre 37" x1="135.031" y1="123.3543" x2="438.8368" y2="123.3543" xlink:href="#Degradado_sin_nombre_37"/>
  </defs>
  <g>
    <rect class="cls-7" x="55.9808" y="58.2619" width="341.5817" height="334.7501"/>
    <g>
      <path class="cls-1" d="M122.901,15.1599C63.147,15.1599,14.7065,63.6004,14.7065,123.3543v212.9088c59.7544,0,108.1944-48.44,108.1944-108.1944v-104.7144c0-59.7539,48.4405-108.1944,108.1944-108.1944h-108.1944Z"/>
      <path class="cls-3" d="M14.7065,331.0145c0,59.7542,48.4405,108.1944,108.1944,108.1944h212.9088c0-59.7541-48.44-108.1944-108.1939-108.1944h-104.7149c-59.7539,0-108.1944-48.44-108.1944-108.1944v108.1944Z"/>
      <path class="cls-6" d="M330.6429,439.209c59.7539,0,108.1939-48.4402,108.1939-108.1944V118.1057c-59.7539,0-108.1939,48.4405-108.1939,108.1944v104.7144c0,59.7542-48.4405,108.1944-108.1944,108.1944h108.1944Z"/>
      <g>
        <path class="cls-2" d="M122.901,15.1599h-5.1669c0,.0884.0123.1726.0128.2605,1.7201-.0812,3.4147-.2605,5.1542-.2605Z"/>
        <path class="cls-5" d="M330.6429,15.1599h-99.5475c-41.842,0-78.0647,23.7933-96.0643,58.5496,19.2622,29.8412,52.7371,49.6448,90.8969,49.6448h104.7149c59.7539,0,108.1939,48.44,108.1939,108.1944v-108.1944c0-59.7539-48.44-108.1944-108.1939-108.1944Z"/>
      </g>
    </g>
  </g>
  <g>
    <g>
      <path class="cls-4" d="M106.5469,149.7753c-2.6644-1.0082-5.0444-2.2841-7.1377-3.8259-2.0934-1.5419-3.7874-3.3876-5.0812-5.539-1.2948-2.1502-1.9417-4.6914-1.9417-7.6229,0-2.9694.6469-5.6433,1.9417-8.0227,1.2937-2.3789,2.9978-4.3969,5.1102-6.0531,2.1123-1.6556,4.5012-2.9309,7.1667-3.8259,2.6633-.8939,5.3667-1.3417,8.108-1.3417,2.2071,0,4.3585.2286,6.4529.6853,2.0922.4567,4.054,1.1331,5.8808,2.027,1.8279.895,3.483,1.9986,4.9685,3.3118,1.4844,1.3132,2.7213,2.8462,3.7116,4.5966.4182.6853.513,1.3807.2855,2.0844-.2286.7048-.5532,1.2658-.9714,1.6846-.5331.4952-1.2279.7902-2.0844.885-.8565.0954-1.6841-.1617-2.4837-.7706-2.2082-2.7029-4.5681-4.5971-7.0808-5.6817-2.5116-1.0852-5.3667-1.6277-8.5653-1.6277-1.7889,0-3.5778.2571-5.3667.7712-1.79.5136-3.4172,1.2658-4.8826,2.2556-1.4655.9904-2.6655,2.2367-3.5979,3.74-.9324,1.5039-1.3985,3.246-1.3985,5.2245,0,2.0945.5509,3.836,1.6562,5.225,1.103,1.3902,2.5027,2.5607,4.1968,3.512,1.693.9519,3.5488,1.7225,5.5674,2.3125,2.0175.5905,3.9402,1.1136,5.767,1.5703,2.8172.876,5.5674,1.8653,8.2519,2.9694,2.6833,1.1041,5.0622,2.4553,7.1377,4.054,2.0744,1.5987,3.7395,3.5031,4.9964,5.7102,1.2558,2.2082,1.8837,4.8536,1.8837,7.9374,0,3.3118-.6569,6.3096-1.9696,8.9935-1.3138,2.6833-3.0837,4.9875-5.3109,6.9091-2.2272,1.9227-4.8157,3.4071-7.7656,4.4538-2.951,1.0467-6.0436,1.5703-9.279,1.5703-2.7034,0-5.3109-.3619-7.8225-1.0846-2.5127-.7227-4.8258-1.7036-6.9381-2.941-2.1134-1.2368-3.9603-2.7023-5.5395-4.3969-1.5792-1.6935-2.7882-3.5114-3.6257-5.4531-.571-1.2179-.6569-2.2361-.2565-3.0547.3993-.8186.9792-1.4365,1.7409-1.8558.8755-.4946,1.7041-.6,2.4848-.3145.7796.2855,1.5881.9619,2.4268,2.0276.7227,1.5229,1.703,2.893,2.9398,4.1109,1.2368,1.219,2.6365,2.2556,4.1979,3.1122,1.5603.8565,3.2544,1.5134,5.0812,1.9701,1.8279.4567,3.7116.6853,5.6533.6853,2.0175,0,4.0261-.3045,6.0247-.914,1.9986-.6084,3.7975-1.5218,5.3957-2.7408,1.5993-1.2179,2.893-2.7307,3.8834-4.5397.9892-1.8073,1.4844-3.8917,1.4844-6.2522,0-2.1703-.4952-3.9876-1.4844-5.4537-.9904-1.4649-2.3041-2.7213-3.9402-3.7685-1.6372-1.0467-3.483-1.9417-5.5384-2.6839-2.0566-.7422-4.131-1.456-6.2243-2.1413-2.7413-.6469-5.4447-1.4749-8.1091-2.4837Z"/>
      <path class="cls-4" d="M157.48,183.665c0,.9904-.3524,1.8274-1.0562,2.5127-.7048.6853-1.5513,1.0277-2.5406,1.0277-.9904,0-1.838-.3424-2.5417-1.0277-.7048-.6853-1.0562-1.5223-1.0562-2.5127v-66.0093c0-1.0277.3513-1.8748,1.0562-2.5411.7037-.6658,1.5513-.9993,2.5417-.9993.9892,0,1.8357.3335,2.5406.9993.7037.6664,1.0562,1.5134,1.0562,2.5411v66.0093Z"/>
      <path class="cls-4" d="M179.5199,128.5618l-5.9957-8.5653c-.3803-.4941-.5989-1.0751-.6569-1.7415-.0569-.6658.029-1.2937.2576-1.8842.2286-.59.5799-1.0941,1.0562-1.5134.4751-.4182,1.0562-.6279,1.742-.6279h.2855c.3792.0764.7606.1907,1.142.3424h.1138c.0758.077.1517.1244.2286.1428.0758.0195.1517.0669.2286.1428l.2275.1143c.1149.077.2186.1712.3145.2855.0948.1143.1996.2286.3145.3424l.1706.2855,39.9717,56.9305v-55.1031c0-.9892.3513-1.8363,1.0562-2.5411.7048-.7037,1.5703-1.0562,2.5986-1.0562s1.8748.3524,2.5406,1.0562c.6658.7048.9993,1.5519.9993,2.5411v65.9525c0,.876-.2766,1.6372-.8275,2.2841-.5521.648-1.2469,1.0478-2.0844,1.1995-.1528.0379-.3803.0569-.6848.0569-1.0662,0-1.9618-.3613-2.6844-1.0852l-.2275-.3424-.1718-.1712-39.9149-57.0448v55.1031c0,.9904-.3524,1.8274-1.0562,2.5127-.7048.6853-1.5513,1.0277-2.5406,1.0277-.9904,0-1.838-.3424-2.5417-1.0277-.7048-.6853-1.0562-1.5223-1.0562-2.5127v-65.895c0-.9898.3513-1.8274,1.0562-2.5127.7037-.6853,1.5513-1.0277,2.5417-1.0277h.2855c.4182.0764.7985.1907,1.142.3424h.1138c.0758.077.1517.1244.2286.1428.0758.0195.1517.0669.2286.1428.0758,0,.1517.0385.2275.1143.4193.305.7517.7048.9993,1.1989.2476.4952.3714,1.0283.3714,1.5993v10.7919Z"/>
      <path class="cls-4" d="M298.292,127.1343c0,.9519-.3435,1.79-1.0283,2.5127-.7238.6853-1.5904,1.0378-2.5986,1.0562-1.0082.0195-1.8368-.3139-2.4837-.9993-3.0079-2.9694-6.3381-5.196-9.9928-6.681-3.6547-1.4844-7.4422-2.2266-11.3635-2.2266-4.1109,0-7.9853.7807-11.62,2.3409-3.6358,1.5614-6.8042,3.6932-9.5077,6.3955-2.7034,2.7034-4.8347,5.8814-6.3949,9.5361-1.5614,3.6542-2.3409,7.5571-2.3409,11.7058,0,3.9971.7506,7.8041,2.2551,11.4203,1.5034,3.6168,3.5778,6.7948,6.2243,9.5361,2.6454,2.7408,5.786,4.9206,9.4218,6.5377,3.6347,1.6188,7.5849,2.4268,11.8486,2.4268,3.9202.0385,7.6887-.6279,11.3066-1.9986,3.6157-1.3701,6.9459-3.5778,9.9928-6.6236.7227-.6853,1.5792-1.0366,2.5696-1.0562.9892-.019,1.8268.295,2.5116.9418.7227.6853,1.0751,1.5419,1.0573,2.5696-.0201,1.0277-.3524,1.8658-.9993,2.5127-3.7317,3.7311-7.8615,6.4808-12.3917,8.2513-4.5302,1.7699-9.2132,2.6549-14.0468,2.6549-3.3882,0-6.6626-.4478-9.821-1.3417-3.1607-.8939-6.1106-2.1413-8.8508-3.74-2.7413-1.5993-5.2351-3.5309-7.4812-5.796-2.2461-2.2646-4.1678-4.7767-5.767-7.5375-1.5982-2.7597-2.8361-5.7191-3.7116-8.8792-.8755-3.1596-1.3127-6.4524-1.3127-9.8785,0-3.2354.4182-6.4145,1.2558-9.5361.8365-3.1211,2.0276-6.0526,3.5689-8.7939,1.5413-2.7408,3.4161-5.2719,5.6243-7.5944,2.2071-2.3214,4.6919-4.32,7.4522-5.9957,2.7592-1.6746,5.747-2.9783,8.9645-3.9112,3.2164-.9324,6.6325-1.3991,10.2504-1.3991,4.7957,0,9.4686.9335,14.0178,2.7982,4.5492,1.8653,8.6511,4.625,12.3059,8.2797.7227.7233,1.0852,1.5614,1.0852,2.5121Z"/>
      <path class="cls-4" d="M354.7357,116.5136c4.5101,1.9411,8.4504,4.5966,11.8196,7.9658,3.3692,3.3687,6.0336,7.3,7.9942,11.7912,1.9606,4.4923,2.941,9.3075,2.941,14.4466,0,3.4261-.4483,6.7295-1.3417,9.9075-.8956,3.1791-2.1413,6.1384-3.7406,8.8792s-3.5399,5.2535-5.8239,7.5375-4.7968,4.2252-7.5381,5.8245c-2.7402,1.5987-5.7012,2.8462-8.8786,3.74-3.1796.8939-6.4819,1.3417-9.908,1.3417s-6.7284-.4478-9.9069-1.3417c-3.1785-.8939-6.1384-2.1413-8.8786-3.74-2.7413-1.5993-5.2351-3.5404-7.4812-5.8245-2.2461-2.2841-4.1678-4.7968-5.767-7.5375-1.5982-2.7408-2.8361-5.7001-3.7116-8.8792-.8755-3.178-1.3127-6.4814-1.3127-9.9075s.4372-6.7184,1.3127-9.8785c.8755-3.159,2.1134-6.11,3.7116-8.8508,1.5993-2.7408,3.5209-5.2434,5.767-7.5085,2.2461-2.2646,4.7399-4.2062,7.4812-5.8245,2.7402-1.6177,5.7001-2.864,8.8786-3.74,3.1785-.8755,6.4808-1.3138,9.9069-1.3138,5.1392,0,9.9649.9708,14.4762,2.9125ZM328.5827,123.1946c-3.6358,1.5614-6.7953,3.6927-9.4787,6.3949-2.6844,2.7034-4.8068,5.863-6.3671,9.4792-1.5614,3.6168-2.3409,7.4996-2.3409,11.6484,0,4.1884.7796,8.0996,2.3409,11.7348,1.5603,3.6358,3.6826,6.8048,6.3671,9.5071,2.6833,2.7034,5.8429,4.8352,9.4787,6.3955,3.6347,1.5614,7.5459,2.3409,11.7348,2.3409,4.1488,0,8.0411-.7796,11.6769-2.3409,3.6347-1.5603,6.8042-3.6921,9.5077-6.3955,2.7023-2.7023,4.8336-5.8713,6.3949-9.5071,1.5603-3.6352,2.3409-7.5465,2.3409-11.7348,0-4.1488-.7807-8.0316-2.3409-11.6484-1.5614-3.6163-3.6927-6.7758-6.3949-9.4792-2.7034-2.7023-5.873-4.8336-9.5077-6.3949-3.6358-1.5608-7.5281-2.3415-11.6769-2.3415-4.1889,0-8.1002.7807-11.7348,2.3415Z"/>
    </g>
    <g>
      <path class="cls-4" d="M134.6386,278.4762c0,6.7894,1.2645,13.1297,3.7955,19.0208,2.529,5.8941,5.9701,11.0311,10.3203,15.4109,4.3502,4.3828,9.4714,7.8377,15.3645,10.3667,5.8921,2.531,12.2324,3.7955,19.0208,3.7955,5.4913,0,10.5819-.7709,15.2717-2.3138,4.6888-1.5419,8.8703-3.7491,12.5423-6.6186,3.6701-2.8696,6.7568-6.3245,9.2552-10.3667,2.4994-4.0403,4.3344-8.5613,5.5071-13.5591h-28.508c-1.6051,0-2.9614-.5706-4.0719-1.7127-1.1115-1.1411-1.6663-2.5132-1.6663-4.1192,0-1.5409.5548-2.8834,1.6663-4.0255,1.1105-1.1411,2.4668-1.7127,4.0719-1.7127h35.0802c1.7265.0622,3.1933.6179,4.3966,1.6663,1.2033,1.0493,1.7729,2.4382,1.7117,4.1647-.6791,7.1586-2.5448,13.8068-5.5999,19.9467-3.0541,6.1409-7.0194,11.4624-11.8938,15.9657-4.8744,4.5052-10.5365,8.0381-16.9844,10.5987-6.4479,2.5606-13.4061,3.8409-20.8716,3.8409-5.5535,0-10.9077-.7097-16.0584-2.1292-5.1528-1.4185-9.9502-3.4391-14.3932-6.0619-4.443-2.6228-8.4853-5.7697-12.1248-9.4408-3.6415-3.6711-6.7568-7.7439-9.349-12.2186-2.5912-4.4726-4.597-9.27-6.0155-14.3922-1.4205-5.1212-2.1292-10.4595-2.1292-16.013,0-5.4292.6939-10.7043,2.0828-15.8275,1.3879-5.1212,3.3621-9.9176,5.9237-14.3922,2.5596-4.4736,5.6601-8.5623,9.3016-12.264,3.6405-3.7027,7.6827-6.8802,12.1258-9.5336,4.442-2.6524,9.2394-4.7046,14.3922-6.1557,5.1518-1.4491,10.5355-2.1746,16.1512-2.1746,8.0835,0,15.7653,1.4965,23.0473,4.4884,7.28,2.9939,13.9144,7.4833,19.9003,13.4673,1.2339,1.1737,1.8351,2.531,1.8045,4.0729-.0316,1.5429-.6012,2.9011-1.7117,4.0729-1.1115,1.1105-2.4688,1.6821-4.0729,1.7117-1.6051.0326-2.9939-.539-4.1656-1.7117-4.8122-4.751-10.2275-8.3303-16.244-10.7369-6.0155-2.4066-12.1712-3.6099-18.465-3.6099-6.5406,0-12.7427,1.2349-18.6042,3.7027-5.8625,2.4688-10.9995,5.8773-15.4109,10.2275-4.4124,4.3502-7.9137,9.4872-10.5049,15.4109-2.5922,5.9237-3.8883,12.3104-3.8883,19.159Z"/>
      <path class="cls-4" d="M261.7212,337.6214c-1.6051,0-2.9781-.5557-4.1192-1.6663-1.1421-1.1105-1.7117-2.4668-1.7117-4.0719v-106.9978c0-1.6663.5696-3.0384,1.7117-4.1192,1.1411-1.0789,2.5142-1.6199,4.1192-1.6199h31.9323c4.2574,0,8.2375.8193,11.9402,2.453,3.7027,1.6357,6.9414,3.8409,9.7182,6.6176s4.9524,6.0323,6.5258,9.7656c1.5735,3.7343,2.3602,7.7282,2.3602,11.9856,0,5.061-1.1263,9.7044-3.3779,13.9302-2.2536,4.2278-5.2613,7.7291-9.0252,10.5059,2.6524,1.4195,5.059,3.1469,7.2198,5.1834,2.1588,2.0354,4.0107,4.3196,5.5535,6.8486,1.5419,2.531,2.7452,5.2762,3.6099,8.2385.8637,2.9614,1.2961,6.0777,1.2961,9.348,0,4.8132-.9111,9.272-2.7304,13.3745-1.8212,4.1044-4.3048,7.6521-7.4518,10.6441-3.1469,2.9939-6.8486,5.3383-11.1071,7.0342-4.2574,1.6978-8.8248,2.5458-13.6982,2.5458h-32.7654ZM267.5522,230.8092v39.3367h25.2683c2.838,0,5.4607-.5548,7.8673-1.6653s4.4894-2.5922,6.2485-4.443c1.7581-1.8508,3.1311-3.9643,4.1183-6.3403.9861-2.375,1.4807-4.828,1.4807-7.358s-.4945-4.9672-1.4807-7.3126c-.9871-2.3444-2.3602-4.4272-4.1183-6.2475-1.759-1.8193-3.8113-3.2703-6.1557-4.3502-2.3454-1.0789-4.905-1.6199-7.6818-1.6199h-25.5466ZM267.5522,280.6982v45.2604h26.5644c3.3927,0,6.5397-.616,9.4408-1.8508,2.9002-1.2339,5.3986-2.8834,7.4972-4.9514,2.0976-2.067,3.7491-4.4736,4.9524-7.2198,1.2033-2.7452,1.8045-5.6601,1.8045-8.7469,0-3.1469-.6012-6.0925-1.8045-8.8396-1.2033-2.7442-2.8696-5.137-4.9988-7.1734-2.1282-2.0354-4.6592-3.6237-7.59-4.7658-2.9308-1.1411-6.0935-1.7127-9.4872-1.7127h-26.3788Z"/>
    </g>
  </g>
</svg>