<?xml version="1.0" encoding="UTF-8"?>
<svg id="RE" xmlns="http://www.w3.org/2000/svg" xmlns:xlink="http://www.w3.org/1999/xlink" viewBox="0 0 453.5433 453.5433">
  <defs>
    <style>
      .cls-1 {
        fill: url(#Degradado_sin_nombre_127-5);
      }

      .cls-1, .cls-2, .cls-3, .cls-4, .cls-5, .cls-6, .cls-7 {
        stroke-width: 0px;
      }

      .cls-2 {
        fill: url(#Degradado_sin_nombre_127-4);
      }

      .cls-3 {
        fill: url(#Degradado_sin_nombre_127);
      }

      .cls-4 {
        fill: url(#Degradado_sin_nombre_127-2);
      }

      .cls-5 {
        fill: url(#Degradado_sin_nombre_130);
      }

      .cls-6 {
        fill: #fff;
      }

      .cls-7 {
        fill: url(#Degradado_sin_nombre_127-3);
      }
    </style>
    <linearGradient id="Degradado_sin_nombre_127" data-name="Degradado sin nombre 127" x1="56.7178" y1="226.7717" x2="396.8255" y2="226.7717" gradientUnits="userSpaceOnUse">
      <stop offset=".0045" stop-color="#143e6c"/>
      <stop offset="1" stop-color="#136aa4"/>
    </linearGradient>
    <linearGradient id="Degradado_sin_nombre_127-2" data-name="Degradado sin nombre 127" x1="14.4541" y1="175.1242" x2="234.3511" y2="175.1242" xlink:href="#Degradado_sin_nombre_127"/>
    <linearGradient id="Degradado_sin_nombre_127-3" data-name="Degradado sin nombre 127" x1="-2075.7818" y1="570.2263" x2="-1853.3137" y2="570.2263" gradientTransform="translate(-395.0294 -1636.2666) rotate(-90)" xlink:href="#Degradado_sin_nombre_127"/>
    <linearGradient id="Degradado_sin_nombre_130" data-name="Degradado sin nombre 130" x1="-2517.7376" y1="-1541.5391" x2="-2296.5068" y2="-1541.5391" gradientTransform="translate(-2078.6485 -1263.12) rotate(-180)" gradientUnits="userSpaceOnUse">
      <stop offset="0" stop-color="#143e6c"/>
      <stop offset="1" stop-color="#136aa4"/>
    </linearGradient>
    <linearGradient id="Degradado_sin_nombre_127-4" data-name="Degradado sin nombre 127" x1="117.6042" y1="14.1612" x2="122.7773" y2="14.1612" xlink:href="#Degradado_sin_nombre_127"/>
    <linearGradient id="Degradado_sin_nombre_127-5" data-name="Degradado sin nombre 127" x1="134.9218" y1="124.6425" x2="439.0892" y2="124.6425" xlink:href="#Degradado_sin_nombre_127"/>
  </defs>
  <g>
    <rect class="cls-3" x="56.7178" y="60.1189" width="340.1077" height="333.3056"/>
    <path class="cls-4" d="M124.4026,14.0281C63.6799,14.0281,14.4541,62.6329,14.4541,122.5894v213.6309c60.7232,0,109.9485-48.6043,109.9485-108.5614v-105.0695c0-59.9566,49.2258-108.5614,109.9485-108.5614h-109.9485Z"/>
    <path class="cls-7" d="M14.4541,328.2812c0,61.4329,48.4982,111.234,108.3232,111.234h213.1623c0-61.4329-48.4977-111.234-108.3227-111.234h-104.8396c-59.825,0-108.3232-49.8009-108.3232-111.234v111.234Z"/>
    <path class="cls-5" d="M328.4739,439.5152c61.0911,0,110.6151-48.6045,110.6151-108.5614V117.323c-61.0911,0-110.6151,48.6048-110.6151,108.5614v105.0695c0,59.9568-49.5245,108.5614-110.6156,108.5614h110.6156Z"/>
    <g>
      <path class="cls-2" d="M122.7773,14.0281h-5.1731c0,.0903.0123.1765.0128.2663,1.7221-.083,3.4187-.2663,5.1603-.2663Z"/>
      <path class="cls-1" d="M330.7665,14.0281h-99.666c-41.8918,0-78.1576,24.3255-96.1787,59.8592,19.2851,30.5087,52.7999,50.7552,91.0051,50.7552h104.8396c59.825,0,108.3227,49.5235,108.3227,110.6144v-110.6144c0-61.0904-48.4977-110.6144-108.3227-110.6144Z"/>
    </g>
  </g>
  <g>
    <path class="cls-6" d="M153.4041,222.6886c1.5768,0,2.9115.5458,4.0031,1.6373s1.6368,2.4563,1.6368,4.0936-.5452,3.0015-1.6368,4.0936c-1.0915,1.0915-2.4263,1.6373-4.0031,1.6373h-46.7556v40.8437h33.9302c1.5757,0,2.9249.5613,4.0475,1.6828,1.1215,1.1226,1.6834,2.4718,1.6834,4.0481,0,1.5774-.5619,2.881-1.6834,3.9115-1.1226,1.0316-2.4718,1.5463-4.0475,1.5463h-33.9302v47.3024c0,1.6373-.5619,2.9876-1.6834,4.0481-1.1226,1.0616-2.4718,1.5918-4.0475,1.5918-1.6379,0-3.0026-.5458-4.0941-1.6373-1.0915-1.0915-1.6368-2.4246-1.6368-4.0025v-105.2478c0-.6057.1044-1.242.3176-1.9105.2121-.6663.5463-1.2731,1.0005-1.8189.4553-.5458,1.0471-.9849,1.7745-1.3192.7273-.3326,1.6057-.5002,2.6384-.5002h52.4865Z"/>
    <path class="cls-6" d="M164.5916,304.9217c0-3.6983.4997-7.0951,1.5002-10.1882,1.0005-3.0925,2.3652-5.913,4.0941-8.4598,1.7278-2.5473,3.7432-4.8215,6.0485-6.8225,2.3041-2.0015,4.7904-3.7593,7.4598-5.2762l-2.4563-2.3652-.4553-.3637c-1.2737-1.2126-2.5329-2.6067-3.7743-4.1846-1.2437-1.5762-2.3652-3.2885-3.3657-5.1396-1.0016-1.8489-1.8056-3.8049-2.4107-5.8669-.6074-2.0609-.9094-4.1846-.9094-6.3677,0-3.8804.7273-7.5187,2.1831-10.916,1.4547-3.3957,3.4246-6.3677,5.9119-8.9145,2.4862-2.5473,5.4266-4.5483,8.8245-6.0041,3.3957-1.4552,7.0334-2.1831,10.9155-2.1831,3.8798,0,7.5043.7279,10.87,2.1831,3.3668,1.4558,6.2917,3.4273,8.779,5.913,2.4851,2.4874,4.4417,5.4283,5.8675,8.8234,1.4236,3.3973,2.1376,7.0357,2.1376,10.916,0,6.5498-1.8966,12.1442-5.6854,16.7835-3.791,4.6394-9.3853,8.2932-16.7841,10.961l28.6545,26.6535,13.4628-15.7375c1.0305-1.212,2.3341-1.8944,3.912-2.0465,1.5768-.1505,2.9704.3181,4.1841,1.4097,1.2126.9711,1.8655,2.2742,1.9566,3.912.0911,1.6373-.4097,3.0626-1.5013,4.2751l-13.736,15.828,19.0116,17.6474c1.5157,1.3347,2.3652,2.6695,2.5473,4.0025.1821,1.3347-.1521,2.4874-1.0005,3.4568-1.1526,1.3958-2.4563,2.1831-3.912,2.3652-1.4547.1821-2.7894-.2732-4.002-1.3647l-19.649-18.0111-6.4582,7.4593c-1.699,1.9416-3.5933,3.7155-5.6854,5.3212-2.092,1.6079-4.2907,2.9882-6.5948,4.1391-2.3064,1.1526-4.7004,2.0326-7.1867,2.6384-2.4874.6052-4.9436.9094-7.3688.9094-4.9114,0-9.5052-.9411-13.7804-2.8199-4.2762-1.8788-8.0206-4.4262-11.2353-7.6414-3.2147-3.2136-5.7465-6.9585-7.5953-11.2342-1.85-4.2751-2.7738-8.8379-2.7738-13.6904ZM224.9921,312.1988l-33.4749-30.8371c-4.8526,2.1231-8.7779,5.1096-11.7805,8.96-3.0015,3.8515-4.5028,8.4753-4.5028,13.872,0,3.3363.6374,6.5043,1.911,9.5063,1.2725,3.0015,3.0015,5.6398,5.1846,7.914,2.1831,2.2742,4.7448,4.0791,7.6864,5.4122,2.9415,1.3347,6.1096,2.0015,9.5063,2.0015,1.7578,0,3.5023-.2415,5.2301-.7279,1.7289-.4847,3.3957-1.1215,5.0036-1.9105,1.6057-.7873,3.107-1.6967,4.5028-2.7289,1.3947-1.0305,2.6384-2.092,3.7299-3.1836l.4542-.5458,6.5493-7.7324ZM194.7918,269.4453l2.8205-.8189h.181c2.9115-.7873,5.4722-1.8333,7.6875-3.1381,2.2131-1.3036,4.0475-2.775,5.5033-4.4123,1.4547-1.6373,2.5473-3.3957,3.2746-5.2756.7273-1.8794,1.0915-3.821,1.0915-5.822,0-2.3652-.4097-4.5783-1.2281-6.6409-.8184-2.0609-1.9866-3.8659-3.5023-5.4122-1.5168-1.5463-3.3057-2.7589-5.3667-3.6389-2.0621-.8783-4.3362-1.3186-6.8225-1.3186-2.3652,0-4.5638.4403-6.5948,1.3186-2.0332.88-3.791,2.0782-5.2767,3.5933-1.4869,1.5168-2.6539,3.3063-3.5023,5.3672-.8495,2.0621-1.2737,4.2751-1.2737,6.6403,0,1.4552.2732,2.911.8195,4.3662.5452,1.4558,1.2281,2.8516,2.0465,4.1846.8184,1.3347,1.7278,2.5784,2.7294,3.7294,1.0005,1.1532,1.9244,2.1237,2.7738,2.911l4.6394,4.3667Z"/>
    <path class="cls-6" d="M372.3566,243.4286c0,1.5168-.5452,2.8516-1.6368,4.0025-1.1526,1.0915-2.5329,1.6534-4.1397,1.6828-1.6068.0316-2.926-.5002-3.9564-1.5918-4.7915-4.7304-10.0971-8.2777-15.9191-10.6429-5.822-2.3652-11.8571-3.5478-18.1022-3.5478-6.5504,0-12.721,1.2437-18.5119,3.7299-5.792,2.4874-10.8411,5.8825-15.1462,10.1882-4.3062,4.3062-7.7019,9.3692-10.1882,15.1912-2.4874,5.822-3.7299,12.0387-3.7299,18.6479,0,6.3677,1.197,12.4323,3.5933,18.1932,2.3952,5.762,5.6998,10.825,9.9161,15.1912,4.2141,4.3667,9.2165,7.839,15.0085,10.4158,5.7909,2.5784,12.0836,3.8659,18.8761,3.8659,6.245.0611,12.2491-1.0005,18.0111-3.1836,5.7609-2.1831,11.0665-5.6998,15.9191-10.5524,1.1515-1.0915,2.5162-1.6512,4.093-1.6828,1.5768-.0294,2.9115.4708,4.0031,1.5013,1.1515,1.0915,1.7123,2.4557,1.6823,4.0936-.0311,1.6373-.5608,2.9715-1.5912,4.002-5.9441,5.9441-12.5234,10.3247-19.74,13.1447-7.2178,2.8199-14.6765,4.2302-22.3773,4.2302-5.3989,0-10.6134-.7134-15.6459-2.1376-5.0347-1.4241-9.734-3.4112-14.1002-5.9585-4.3662-2.5468-8.3393-5.6243-11.9171-9.2332-3.5789-3.6072-6.6403-7.6097-9.1865-12.007-2.5473-4.3967-4.5194-9.111-5.913-14.1457-1.3958-5.033-2.092-10.2792-2.092-15.7369,0-5.1535.6663-10.2181,2.001-15.1912,1.3325-4.9719,3.2291-9.6424,5.6854-14.0091,2.4563-4.3662,5.4422-8.3987,8.96-12.0981,3.5167-3.6983,7.4732-6.8824,11.8704-9.5513,4.3973-2.6684,9.1566-4.7448,14.2823-6.2317,5.1235-1.4852,10.5657-2.2286,16.3288-2.2286,7.6408,0,15.084,1.4869,22.3318,4.4578,7.2455,2.9721,13.7815,7.3682,19.6034,13.1896,1.1504,1.1532,1.7278,2.4874,1.7278,4.0025Z"/>
  </g>
  <g>
    <path class="cls-6" d="M107.7935,149.4229c-2.6359-.9974-4.9904-2.2596-7.0614-3.785s-3.7469-3.3514-5.0268-5.4797c-1.281-2.1272-1.9209-4.6412-1.9209-7.5413,0-2.9376.6399-5.5829,1.9209-7.9369,1.2799-2.3534,2.9658-4.3499,5.0555-5.9884,2.0897-1.6379,4.4531-2.8996,7.0901-3.785,2.6348-.8843,5.3093-1.3273,8.0213-1.3273,2.1835,0,4.3119.2262,6.3839.678,2.0699.4518,4.0106,1.121,5.8179,2.0053,1.8084.8854,3.4457,1.9772,4.9154,3.2764,1.4685,1.2992,2.6922,2.8157,3.6719,4.5474.4138.678.5075,1.3659.2825,2.0621-.2262.6973-.5473,1.2523-.961,1.6666-.5274.4899-1.2148.7817-2.0621.8755-.8474.0943-1.666-.16-2.4571-.7624-2.1846-2.6739-4.5193-4.548-7.0051-5.621-2.4847-1.0736-5.3093-1.6103-8.4737-1.6103-1.7698,0-3.5395.2543-5.3093.763-1.7709.5081-3.3806,1.2523-4.8304,2.2315-1.4498.9798-2.637,2.2127-3.5594,3.7001-.9224,1.4879-1.3836,3.2113-1.3836,5.1686,0,2.0721.5451,3.7949,1.6385,5.1692,1.0912,1.3753,2.4759,2.5333,4.1519,3.4744,1.6749.9417,3.5108,1.7041,5.5079,2.2878,1.9959.5842,3.8981,1.1017,5.7054,1.5535,2.787.8667,5.5079,1.8453,8.1636,2.9376,2.6546,1.0923,5.0081,2.429,7.0614,4.0106,2.0522,1.5816,3.6995,3.4656,4.943,5.6491,1.2424,2.1846,1.8635,4.8017,1.8635,7.8525,0,3.2764-.6499,6.2422-1.9485,8.8973-1.2997,2.6546-3.0507,4.9341-5.2541,6.8352-2.2034,1.9022-4.7642,3.3707-7.6826,4.4062-2.9194,1.0355-5.979,1.5535-9.1798,1.5535-2.6745,0-5.2541-.358-7.7388-1.073-2.4858-.715-4.7742-1.6854-6.8639-2.9095-2.0908-1.2236-3.918-2.6734-5.4803-4.3499-1.5623-1.6754-2.7584-3.4739-3.587-5.3948-.5649-1.2048-.6499-2.2122-.2538-3.0221.395-.8099.9687-1.4211,1.7223-1.836.8661-.4893,1.6859-.5936,2.4582-.3111.7712.2825,1.5712.9516,2.4009,2.0059.715,1.5066,1.6848,2.8621,2.9084,4.0669,1.2236,1.206,2.6083,2.2315,4.153,3.0789,1.5436.8474,3.2195,1.4972,5.0268,1.9491,1.8084.4518,3.6719.678,5.5928.678,1.9959,0,3.9831-.3012,5.9602-.9042,1.9772-.6019,3.7569-1.5055,5.338-2.7115,1.5822-1.2048,2.8621-2.7015,3.8418-4.4911.9787-1.788,1.4685-3.8501,1.4685-6.1853,0-2.1471-.4899-3.945-1.4685-5.3953-.9798-1.4492-2.2795-2.6922-3.8981-3.7282-1.6197-1.0355-3.4457-1.9209-5.4792-2.6552-2.0346-.7343-4.0868-1.4404-6.1577-2.1184-2.712-.6399-5.3865-1.4592-8.0224-2.4571Z"/>
    <path class="cls-6" d="M158.1819,182.9502c0,.9798-.3487,1.8078-1.0449,2.4858-.6973.678-1.5347,1.0167-2.5134,1.0167-.9798,0-1.8183-.3387-2.5145-1.0167-.6973-.678-1.0449-1.5061-1.0449-2.4858v-65.3034c0-1.0167.3476-1.8547,1.0449-2.514.6962-.6587,1.5347-.9886,2.5145-.9886.9787,0,1.8161.3299,2.5134.9886.6962.6592,1.0449,1.4972,1.0449,2.514v65.3034Z"/>
    <path class="cls-6" d="M179.9861,128.4363l-5.9316-8.4737c-.3762-.4888-.5925-1.0636-.6499-1.7229-.0563-.6587.0287-1.2799.2549-1.8641.2262-.5837.5737-1.0824,1.0449-1.4972.47-.4138,1.0449-.6212,1.7234-.6212h.2825c.3751.0756.7525.1887,1.1298.3387h.1125c.075.0761.1501.123.2262.1412.075.0193.1501.0662.2262.1412l.2251.1131c.1136.0761.2163.1694.3111.2825.0938.1131.1975.2262.3111.3387l.1688.2825,39.5443,56.3217v-54.5139c0-.9787.3476-1.8167,1.0449-2.514.6973-.6962,1.5535-1.0449,2.5708-1.0449s1.8547.3487,2.5134,1.0449c.6587.6973.9886,1.5353.9886,2.514v65.2472c0,.8667-.2736,1.6197-.8187,2.2596-.5462.641-1.2335,1.0366-2.0621,1.1866-.1512.0375-.3762.0563-.6775.0563-1.0548,0-1.9408-.3575-2.6557-1.0736l-.2251-.3387-.1699-.1694-39.488-56.4348v54.5139c0,.9798-.3487,1.8078-1.0449,2.4858-.6973.678-1.5347,1.0167-2.5134,1.0167-.9798,0-1.8183-.3387-2.5145-1.0167-.6973-.678-1.0449-1.5061-1.0449-2.4858v-65.1903c0-.9792.3476-1.8078,1.0449-2.4858.6962-.678,1.5347-1.0167,2.5145-1.0167h.2825c.4138.0756.79.1887,1.1298.3387h.1125c.075.0761.1501.123.2262.1412.075.0193.1501.0662.2262.1412.075,0,.1501.0381.2251.1131.4149.3018.7437.6973.9886,1.1861.2449.4899.3674,1.0173.3674,1.5822v10.6765Z"/>
    <path class="cls-6" d="M297.4881,127.024c0,.9417-.3398,1.7709-1.0173,2.4858-.7161.678-1.5734,1.0267-2.5708,1.0449-.9974.0193-1.8172-.3106-2.4571-.9886-2.9757-2.9376-6.2703-5.1405-9.8859-6.6096-3.6156-1.4685-7.3626-2.2028-11.2419-2.2028-4.0669,0-7.8999.7723-11.4957,2.3159-3.5969,1.5447-6.7315,3.6537-9.406,6.3271-2.6745,2.6745-4.783,5.8185-6.3266,9.4341-1.5447,3.6151-2.3159,7.4762-2.3159,11.5807,0,3.9544.7425,7.7206,2.231,11.2982,1.4873,3.5781,3.5395,6.7221,6.1577,9.4341,2.6171,2.7115,5.7241,4.8679,9.321,6.4678,3.5958,1.6015,7.5038,2.4009,11.7219,2.4009,3.8782.0381,7.6064-.6212,11.1857-1.9772,3.577-1.3555,6.8716-3.5395,9.8859-6.5527.715-.678,1.5623-1.0256,2.5421-1.0449.9787-.0188,1.8073.2918,2.4847.9318.715.678,1.0636,1.5254,1.046,2.5421-.0199,1.0167-.3487,1.8459-.9886,2.4858-3.6918,3.6912-7.7774,6.4115-12.2592,8.1631-4.4818,1.751-9.1147,2.6265-13.8966,2.6265-3.3519,0-6.5914-.443-9.716-1.3273-3.1269-.8843-6.0452-2.1184-8.7561-3.7001-2.712-1.5822-5.1791-3.4932-7.4012-5.7341-2.2221-2.2403-4.1232-4.7256-5.7054-7.4569-1.5811-2.7302-2.8058-5.6579-3.6719-8.7842-.8661-3.1258-1.2986-6.3834-1.2986-9.7728,0-3.2008.4138-6.3459,1.2424-9.4341.8275-3.0877,2.0059-5.9878,3.5307-8.6998,1.5248-2.7115,3.3795-5.2155,5.5641-7.5132,2.1835-2.2966,4.6418-4.2738,7.3725-5.9316,2.7297-1.6567,5.6855-2.9465,8.8687-3.8694,3.182-.9224,6.5616-1.3841,10.1408-1.3841,4.7444,0,9.3674.9235,13.8679,2.7683,4.5005,1.8453,8.5586,4.5756,12.1743,8.1912.715.7155,1.0736,1.5447,1.0736,2.4853Z"/>
    <path class="cls-6" d="M353.3282,116.5169c4.4619,1.9204,8.36,4.5474,11.6932,7.8806,3.3332,3.3326,5.9691,7.2219,7.9087,11.6651,1.9397,4.4443,2.9095,9.2079,2.9095,14.2921,0,3.3895-.4435,6.6576-1.3273,9.8015-.886,3.1451-2.1184,6.0728-3.7006,8.7842-1.5822,2.7115-3.502,5.1973-5.7616,7.4569-2.2596,2.2596-4.7455,4.18-7.4575,5.7622-2.7109,1.5816-5.6403,2.8157-8.7837,3.7001-3.1456.8843-6.4126,1.3273-9.8021,1.3273s-6.6565-.443-9.801-1.3273c-3.1445-.8843-6.0728-2.1184-8.7837-3.7001-2.712-1.5822-5.1791-3.5026-7.4012-5.7622-2.2221-2.2596-4.1232-4.7455-5.7054-7.4569-1.5811-2.7115-2.8058-5.6392-3.6719-8.7842-.8661-3.144-1.2986-6.4121-1.2986-9.8015s.4325-6.6465,1.2986-9.7728c.8661-3.1252,2.0908-6.0447,3.6719-8.7561,1.5822-2.7115,3.4832-5.1874,5.7054-7.4282,2.2221-2.2403,4.6892-4.1612,7.4012-5.7622,2.7109-1.6004,5.6392-2.8334,8.7837-3.7001,3.1445-.8661,6.4115-1.2997,9.801-1.2997,5.0842,0,9.8583.9605,14.3214,2.8814ZM327.4548,123.1265c-3.5969,1.5447-6.7227,3.6532-9.3773,6.3266-2.6557,2.6745-4.7554,5.8003-6.299,9.3778-1.5447,3.5781-2.3159,7.4194-2.3159,11.5238,0,4.1436.7712,8.013,2.3159,11.6094,1.5436,3.5969,3.6432,6.732,6.299,9.4054,2.6546,2.6745,5.7804,4.7835,9.3773,6.3271,3.5958,1.5447,7.4652,2.3159,11.6094,2.3159,4.1044,0,7.9551-.7712,11.552-2.3159,3.5958-1.5436,6.7315-3.6526,9.406-6.3271,2.6734-2.6734,4.7819-5.8085,6.3266-9.4054,1.5436-3.5963,2.3159-7.4658,2.3159-11.6094,0-4.1044-.7723-7.9457-2.3159-11.5238-1.5447-3.5776-3.6532-6.7033-6.3266-9.3778-2.6745-2.6734-5.8102-4.7819-9.406-6.3266-3.5969-1.5441-7.4476-2.3165-11.552-2.3165-4.1441,0-8.0136.7723-11.6094,2.3165Z"/>
  </g>
</svg>