<?xml version="1.0" encoding="UTF-8"?>
<svg id="RE" xmlns="http://www.w3.org/2000/svg" xmlns:xlink="http://www.w3.org/1999/xlink" viewBox="0 0 453.5433 453.5433">
  <defs>
    <style>
      .cls-1 {
        fill: url(#Degradado_sin_nombre_90);
      }

      .cls-1, .cls-2, .cls-3, .cls-4, .cls-5, .cls-6, .cls-7 {
        stroke-width: 0px;
      }

      .cls-2 {
        fill: url(#Degradado_sin_nombre_94);
      }

      .cls-3 {
        fill: url(#Degradado_sin_nombre_86);
      }

      .cls-4 {
        fill: url(#Degradado_sin_nombre_86-3);
      }

      .cls-5 {
        fill: url(#Degradado_sin_nombre_98);
      }

      .cls-6 {
        fill: #fff;
      }

      .cls-7 {
        fill: url(#Degradado_sin_nombre_86-2);
      }
    </style>
    <linearGradient id="Degradado_sin_nombre_86" data-name="Degradado sin nombre 86" x1="56.7178" y1="226.7717" x2="396.8255" y2="226.7717" gradientUnits="userSpaceOnUse">
      <stop offset=".0045" stop-color="#586b30"/>
      <stop offset="1" stop-color="#6a843c"/>
    </linearGradient>
    <linearGradient id="Degradado_sin_nombre_98" data-name="Degradado sin nombre 98" x1="14.4541" y1="175.1242" x2="234.3511" y2="175.1242" gradientUnits="userSpaceOnUse">
      <stop offset="0" stop-color="#586b30"/>
      <stop offset=".9911" stop-color="#6a843c"/>
    </linearGradient>
    <linearGradient id="Degradado_sin_nombre_94" data-name="Degradado sin nombre 94" x1="-659.7818" y1="-845.7737" x2="-437.3137" y2="-845.7737" gradientTransform="translate(1020.9706 -220.2666) rotate(-90)" gradientUnits="userSpaceOnUse">
      <stop offset="0" stop-color="#586b30"/>
      <stop offset="1" stop-color="#6a843c"/>
    </linearGradient>
    <linearGradient id="Degradado_sin_nombre_90" data-name="Degradado sin nombre 90" x1="314.2624" y1="-1541.5391" x2="535.4932" y2="-1541.5391" gradientTransform="translate(753.3515 -1263.12) rotate(-180)" gradientUnits="userSpaceOnUse">
      <stop offset="0" stop-color="#586b30"/>
      <stop offset="1" stop-color="#6a843c"/>
    </linearGradient>
    <linearGradient id="Degradado_sin_nombre_86-2" data-name="Degradado sin nombre 86" x1="117.6042" y1="14.1612" x2="122.7773" y2="14.1612" xlink:href="#Degradado_sin_nombre_86"/>
    <linearGradient id="Degradado_sin_nombre_86-3" data-name="Degradado sin nombre 86" x1="134.9218" y1="124.6425" x2="439.0892" y2="124.6425" xlink:href="#Degradado_sin_nombre_86"/>
  </defs>
  <g>
    <rect class="cls-3" x="56.7178" y="60.1189" width="340.1077" height="333.3056"/>
    <path class="cls-5" d="M124.4026,14.0281C63.6799,14.0281,14.4541,62.6329,14.4541,122.5894v213.6309c60.7232,0,109.9485-48.6043,109.9485-108.5614v-105.0695c0-59.9566,49.2258-108.5614,109.9485-108.5614h-109.9485Z"/>
    <path class="cls-2" d="M14.4541,328.2812c0,61.4329,48.4982,111.234,108.3232,111.234h213.1623c0-61.4329-48.4977-111.234-108.3227-111.234h-104.8396c-59.825,0-108.3232-49.8009-108.3232-111.234v111.234Z"/>
    <path class="cls-1" d="M328.4739,439.5152c61.0911,0,110.6151-48.6045,110.6151-108.5614V117.323c-61.0911,0-110.6151,48.6048-110.6151,108.5614v105.0695c0,59.9568-49.5245,108.5614-110.6156,108.5614h110.6156Z"/>
    <g>
      <path class="cls-7" d="M122.7773,14.0281h-5.1731c0,.0903.0123.1765.0128.2663,1.7221-.083,3.4187-.2663,5.1603-.2663Z"/>
      <path class="cls-4" d="M330.7665,14.0281h-99.666c-41.8918,0-78.1576,24.3255-96.1787,59.8592,19.2851,30.5087,52.7999,50.7552,91.0051,50.7552h104.8396c59.825,0,108.3227,49.5235,108.3227,110.6144v-110.6144c0-61.0904-48.4977-110.6144-108.3227-110.6144Z"/>
    </g>
  </g>
  <g>
    <path class="cls-6" d="M131.795,278.2558c-4.309-1.6299-8.1548-3.6926-11.5386-6.1845-3.385-2.4925-6.1243-5.4769-8.2156-8.9543-2.0925-3.4757-3.1382-7.5835-3.1382-12.3235,0-4.7997,1.0457-9.1227,3.1382-12.9691,2.0914-3.8453,4.8464-7.108,8.2618-9.7847,3.4154-2.6768,7.2759-4.7383,11.5848-6.1845,4.3067-1.4451,8.6765-2.1697,13.1072-2.1697,3.5686,0,7.046.3696,10.431,1.1077,3.3838.7386,6.5547,1.8322,9.5081,3.2774,2.9545,1.4463,5.6307,3.2306,8.0308,5.3541,2.4001,2.1229,4.3991,4.6008,6.0003,7.4308.6761,1.1077.8305,2.2311.462,3.3692-.3696,1.1392-.8936,2.0463-1.5697,2.723-.8631.8006-1.9843,1.2778-3.3692,1.4311-1.3849.1544-2.7235-.2614-4.016-1.2463-3.5698-4.3687-7.384-7.4308-11.4462-9.1847-4.0611-1.7539-8.6765-2.6311-13.8463-2.6311-2.8925,0-5.7851.4158-8.6765,1.2463-2.8937.831-5.5248,2.0469-7.8922,3.6464-2.3697,1.6006-4.309,3.616-5.8155,6.0459-1.5088,2.4317-2.2615,5.2476-2.2615,8.4466,0,3.385.8913,6.2003,2.6762,8.4461,1.7849,2.2469,4.0464,4.1394,6.7846,5.6769,2.7382,1.5392,5.7378,2.7855,9.001,3.7388,3.261.9544,6.3688,1.8001,9.3233,2.5382,4.5523,1.4164,8.9999,3.0159,13.3382,4.8002,4.3383,1.7854,8.1841,3.9692,11.5386,6.5541,3.3534,2.5844,6.0465,5.6623,8.077,9.2309,2.0305,3.5698,3.0458,7.846,3.0458,12.8305,0,5.3541-1.0615,10.2005-3.1844,14.5388-2.1229,4.3388-4.985,8.063-8.5841,11.1696-3.6002,3.1083-7.7863,5.5079-12.555,7.1998-4.7698,1.6919-9.7695,2.5387-15.0002,2.5387-4.3698,0-8.5841-.5854-12.6463-1.7539-4.0611-1.1685-7.7998-2.7534-11.2152-4.754-3.4154-1.999-6.4015-4.3687-8.9537-7.1074-2.5545-2.7376-4.5084-5.6775-5.8617-8.8157-.9229-1.9691-1.0615-3.6148-.4158-4.9388.6468-1.3223,1.5843-2.3218,2.8159-2.9996,1.4153-.7995,2.7528-.9696,4.0149-.5082,1.2609.462,2.5691,1.555,3.9236,3.2774,1.1685,2.4621,2.7528,4.6774,4.754,6.646,1.999,1.9702,4.2605,3.6464,6.7846,5.0312,2.5229,1.3843,5.2611,2.4458,8.2156,3.1844,2.9534.7386,6.0003,1.1077,9.1385,1.1077,3.261,0,6.5074-.4919,9.738-1.4767,3.2317-.9837,6.1389-2.461,8.7238-4.4312,2.5849-1.9686,4.6763-4.4149,6.2764-7.3384,1.6001-2.9224,2.4001-6.2916,2.4001-10.1076,0-3.5078-.8-6.446-2.4001-8.8157-1.6001-2.3686-3.723-4.3991-6.3688-6.0927-2.6469-1.6914-5.6307-3.1382-8.9537-4.3383s-6.6787-2.3539-10.0625-3.4616c-4.4307-1.0457-8.8005-2.3843-13.1072-4.0154Z"/>
    <path class="cls-6" d="M222.994,278.2558c-4.309-1.6299-8.1548-3.6926-11.5386-6.1845-3.385-2.4925-6.1243-5.4769-8.2156-8.9543-2.0925-3.4757-3.1382-7.5835-3.1382-12.3235,0-4.7997,1.0457-9.1227,3.1382-12.9691,2.0914-3.8453,4.8464-7.108,8.2618-9.7847,3.4154-2.6768,7.2759-4.7383,11.5848-6.1845,4.3067-1.4451,8.6765-2.1697,13.1072-2.1697,3.5686,0,7.046.3696,10.431,1.1077,3.3838.7386,6.5547,1.8322,9.5081,3.2774,2.9545,1.4463,5.6307,3.2306,8.0308,5.3541,2.4001,2.1229,4.3991,4.6008,6.0003,7.4308.6761,1.1077.8305,2.2311.462,3.3692-.3696,1.1392-.8936,2.0463-1.5697,2.723-.8631.8006-1.9843,1.2778-3.3692,1.4311-1.3849.1544-2.7235-.2614-4.016-1.2463-3.5698-4.3687-7.384-7.4308-11.4462-9.1847-4.0611-1.7539-8.6765-2.6311-13.8463-2.6311-2.8925,0-5.7851.4158-8.6765,1.2463-2.8937.831-5.5248,2.0469-7.8922,3.6464-2.3697,1.6006-4.309,3.616-5.8155,6.0459-1.5088,2.4317-2.2615,5.2476-2.2615,8.4466,0,3.385.8913,6.2003,2.6762,8.4461,1.7849,2.2469,4.0464,4.1394,6.7846,5.6769,2.7382,1.5392,5.7378,2.7855,9.001,3.7388,3.261.9544,6.3688,1.8001,9.3233,2.5382,4.5523,1.4164,8.9999,3.0159,13.3382,4.8002,4.3383,1.7854,8.1841,3.9692,11.5386,6.5541,3.3534,2.5844,6.0465,5.6623,8.077,9.2309,2.0305,3.5698,3.0458,7.846,3.0458,12.8305,0,5.3541-1.0615,10.2005-3.1844,14.5388-2.1229,4.3388-4.985,8.063-8.5841,11.1696-3.6002,3.1083-7.7863,5.5079-12.555,7.1998-4.7698,1.6919-9.7695,2.5387-15.0002,2.5387-4.3698,0-8.5841-.5854-12.6463-1.7539-4.0611-1.1685-7.7998-2.7534-11.2152-4.754-3.4154-1.999-6.4015-4.3687-8.9537-7.1074-2.5545-2.7376-4.5084-5.6775-5.8617-8.8157-.9229-1.9691-1.0615-3.6148-.4158-4.9388.6468-1.3223,1.5843-2.3218,2.8159-2.9996,1.4153-.7995,2.7528-.9696,4.0149-.5082,1.2609.462,2.5691,1.555,3.9236,3.2774,1.1685,2.4621,2.7528,4.6774,4.754,6.646,1.999,1.9702,4.2605,3.6464,6.7846,5.0312,2.5229,1.3843,5.2611,2.4458,8.2156,3.1844,2.9534.7386,6.0003,1.1077,9.1385,1.1077,3.261,0,6.5074-.4919,9.738-1.4767,3.2317-.9837,6.1389-2.461,8.7238-4.4312,2.5849-1.9686,4.6763-4.4149,6.2764-7.3384,1.6001-2.9224,2.4001-6.2916,2.4001-10.1076,0-3.5078-.8-6.446-2.4001-8.8157-1.6001-2.3686-3.723-4.3991-6.3688-6.0927-2.6469-1.6914-5.6307-3.1382-8.9537-4.3383s-6.6787-2.3539-10.0625-3.4616c-4.4307-1.0457-8.8005-2.3843-13.1072-4.0154Z"/>
    <path class="cls-6" d="M328.7775,232.1475v100.8013c0,1.6012-.5533,2.9697-1.6609,4.1078-1.1077,1.1392-2.4925,1.7077-4.1546,1.7077-1.6012,0-2.923-.5685-3.9687-1.7077-1.0479-1.1381-1.5697-2.5066-1.5697-4.1078v-100.8013h-28.708c-1.6012,0-2.9545-.5685-4.0622-1.7077-1.1077-1.1381-1.6609-2.5072-1.6609-4.1078,0-1.5995.5533-2.954,1.6609-4.0616,1.1077-1.1077,2.461-1.6615,4.0622-1.6615h69.6013c1.599,0,2.9534.5696,4.0611,1.7077,1.1077,1.1392,1.6621,2.5083,1.6621,4.1078,0,1.6615-.5544,3.0317-1.6621,4.1078-1.1077,1.0772-2.4621,1.6153-4.0611,1.6153h-29.5396Z"/>
  </g>
  <g>
    <path class="cls-6" d="M108.7935,148.4229c-2.6359-.9974-4.9904-2.2596-7.0614-3.785-2.071-1.5254-3.7469-3.3514-5.0268-5.4797-1.281-2.1272-1.9209-4.6412-1.9209-7.5413,0-2.9376.6399-5.5829,1.9209-7.9369,1.2799-2.3534,2.9658-4.3499,5.0555-5.9884,2.0897-1.6379,4.4531-2.8996,7.0901-3.785,2.6348-.8843,5.3093-1.3273,8.0213-1.3273,2.1835,0,4.3119.2262,6.3839.678,2.0699.4518,4.0106,1.121,5.8179,2.0053,1.8084.8854,3.4457,1.9772,4.9154,3.2764,1.4685,1.2992,2.6922,2.8157,3.6719,4.5474.4138.678.5075,1.3659.2825,2.0621-.2262.6973-.5473,1.2523-.961,1.6666-.5274.4899-1.2148.7817-2.0621.8755-.8474.0943-1.666-.16-2.4571-.7624-2.1846-2.6739-4.5193-4.548-7.0051-5.621-2.4847-1.0736-5.3093-1.6103-8.4737-1.6103-1.7698,0-3.5395.2543-5.3093.763-1.7709.5081-3.3806,1.2523-4.8304,2.2315-1.4498.9798-2.637,2.2127-3.5594,3.7001-.9224,1.4879-1.3836,3.2113-1.3836,5.1686,0,2.0721.5451,3.7949,1.6385,5.1692,1.0912,1.3753,2.4759,2.5333,4.1519,3.4744,1.6749.9417,3.5108,1.7041,5.5079,2.2878,1.9959.5842,3.8981,1.1017,5.7054,1.5535,2.787.8667,5.5079,1.8453,8.1636,2.9376,2.6546,1.0923,5.0081,2.429,7.0614,4.0106,2.0522,1.5816,3.6995,3.4656,4.943,5.6491,1.2424,2.1846,1.8635,4.8017,1.8635,7.8525,0,3.2764-.6499,6.2422-1.9485,8.8973-1.2997,2.6546-3.0507,4.9341-5.2541,6.8352-2.2034,1.9022-4.7642,3.3707-7.6826,4.4062-2.9194,1.0355-5.979,1.5535-9.1798,1.5535-2.6745,0-5.2541-.358-7.7388-1.073-2.4858-.715-4.7742-1.6854-6.8639-2.9095-2.0908-1.2236-3.918-2.6734-5.4803-4.3499-1.5623-1.6754-2.7584-3.4739-3.587-5.3948-.5649-1.2048-.6499-2.2122-.2538-3.0221.395-.8099.9687-1.4211,1.7223-1.836.8661-.4893,1.6859-.5936,2.4582-.3111.7712.2825,1.5712.9516,2.4009,2.0059.715,1.5066,1.6848,2.8621,2.9084,4.0669,1.2236,1.206,2.6083,2.2315,4.153,3.0789,1.5436.8474,3.2195,1.4972,5.0268,1.9491,1.8084.4518,3.6719.678,5.5928.678,1.9959,0,3.9831-.3012,5.9602-.9042,1.9772-.6019,3.7569-1.5055,5.338-2.7115,1.5822-1.2048,2.8621-2.7015,3.8418-4.4911.9787-1.788,1.4685-3.8501,1.4685-6.1853,0-2.1471-.4899-3.945-1.4685-5.3953-.9798-1.4492-2.2795-2.6922-3.8981-3.7282-1.6197-1.0355-3.4457-1.9209-5.4792-2.6552-2.0346-.7343-4.0868-1.4404-6.1577-2.1184-2.712-.6399-5.3865-1.4592-8.0224-2.4571Z"/>
    <path class="cls-6" d="M159.1819,181.9502c0,.9798-.3487,1.8078-1.0449,2.4858-.6973.678-1.5347,1.0167-2.5134,1.0167-.9798,0-1.8183-.3387-2.5145-1.0167-.6973-.678-1.0449-1.5061-1.0449-2.4858v-65.3034c0-1.0167.3476-1.8547,1.0449-2.514.6962-.6587,1.5347-.9886,2.5145-.9886.9787,0,1.8161.3299,2.5134.9886.6962.6592,1.0449,1.4972,1.0449,2.514v65.3034Z"/>
    <path class="cls-6" d="M180.9861,127.4363l-5.9316-8.4737c-.3762-.4888-.5925-1.0636-.6499-1.7229-.0563-.6587.0287-1.2799.2549-1.8641.2262-.5837.5737-1.0824,1.0449-1.4972.47-.4138,1.0449-.6212,1.7234-.6212h.2825c.3751.0756.7525.1887,1.1298.3387h.1125c.075.0761.1501.123.2262.1412.075.0193.1501.0662.2262.1412l.2251.1131c.1136.0761.2163.1694.3111.2825.0938.1131.1975.2262.3111.3387l.1688.2825,39.5443,56.3217v-54.5139c0-.9787.3476-1.8167,1.0449-2.514.6973-.6962,1.5535-1.0449,2.5708-1.0449s1.8547.3487,2.5134,1.0449c.6587.6973.9886,1.5353.9886,2.514v65.2472c0,.8667-.2736,1.6197-.8187,2.2596-.5462.641-1.2335,1.0366-2.0621,1.1866-.1512.0375-.3762.0563-.6775.0563-1.0548,0-1.9408-.3575-2.6557-1.0736l-.2251-.3387-.1699-.1694-39.488-56.4348v54.5139c0,.9798-.3487,1.8078-1.0449,2.4858-.6973.678-1.5347,1.0167-2.5134,1.0167-.9798,0-1.8183-.3387-2.5145-1.0167-.6973-.678-1.0449-1.5061-1.0449-2.4858v-65.1903c0-.9792.3476-1.8078,1.0449-2.4858.6962-.678,1.5347-1.0167,2.5145-1.0167h.2825c.4138.0756.79.1887,1.1298.3387h.1125c.075.0761.1501.123.2262.1412.075.0193.1501.0662.2262.1412.075,0,.1501.0381.2251.1131.4149.3018.7437.6973.9886,1.1861.2449.4899.3674,1.0173.3674,1.5822v10.6765Z"/>
    <path class="cls-6" d="M298.4881,126.024c0,.9417-.3398,1.7709-1.0173,2.4858-.7161.678-1.5734,1.0267-2.5708,1.0449-.9974.0193-1.8172-.3106-2.4571-.9886-2.9757-2.9376-6.2703-5.1405-9.8859-6.6096-3.6156-1.4685-7.3626-2.2028-11.2419-2.2028-4.0669,0-7.8999.7723-11.4957,2.3159-3.5969,1.5447-6.7315,3.6537-9.406,6.3271-2.6745,2.6745-4.783,5.8185-6.3266,9.4341-1.5447,3.6151-2.3159,7.4762-2.3159,11.5807,0,3.9544.7425,7.7206,2.231,11.2982,1.4873,3.5781,3.5395,6.7221,6.1577,9.4341,2.6171,2.7115,5.7241,4.8679,9.321,6.4678,3.5958,1.6015,7.5038,2.4009,11.7219,2.4009,3.8782.0381,7.6064-.6212,11.1857-1.9772,3.577-1.3555,6.8716-3.5395,9.8859-6.5527.715-.678,1.5623-1.0256,2.5421-1.0449.9787-.0188,1.8073.2918,2.4847.9318.715.678,1.0636,1.5254,1.046,2.5421-.0199,1.0167-.3487,1.8459-.9886,2.4858-3.6918,3.6912-7.7774,6.4115-12.2592,8.1631-4.4818,1.751-9.1147,2.6265-13.8966,2.6265-3.3519,0-6.5914-.443-9.716-1.3273-3.1269-.8843-6.0452-2.1184-8.7561-3.7001-2.712-1.5822-5.1791-3.4932-7.4012-5.7341-2.2221-2.2403-4.1232-4.7256-5.7054-7.4569-1.5811-2.7302-2.8058-5.6579-3.6719-8.7842-.8661-3.1258-1.2986-6.3834-1.2986-9.7728,0-3.2008.4138-6.3459,1.2424-9.4341.8275-3.0877,2.0059-5.9878,3.5307-8.6998,1.5248-2.7115,3.3795-5.2155,5.5641-7.5132,2.1835-2.2966,4.6418-4.2738,7.3725-5.9316,2.7297-1.6567,5.6855-2.9465,8.8687-3.8694,3.182-.9224,6.5616-1.3841,10.1408-1.3841,4.7444,0,9.3674.9235,13.8679,2.7683,4.5005,1.8453,8.5586,4.5756,12.1743,8.1912.715.7155,1.0736,1.5447,1.0736,2.4853Z"/>
    <path class="cls-6" d="M354.3282,115.5169c4.4619,1.9204,8.36,4.5474,11.6932,7.8806,3.3332,3.3326,5.9691,7.2219,7.9087,11.6651,1.9397,4.4443,2.9095,9.2079,2.9095,14.2921,0,3.3895-.4435,6.6576-1.3273,9.8015-.886,3.1451-2.1184,6.0728-3.7006,8.7842-1.5822,2.7115-3.502,5.1973-5.7616,7.4569-2.2596,2.2596-4.7455,4.18-7.4575,5.7622-2.7109,1.5816-5.6403,2.8157-8.7837,3.7001-3.1456.8843-6.4126,1.3273-9.8021,1.3273s-6.6565-.443-9.801-1.3273c-3.1445-.8843-6.0728-2.1184-8.7837-3.7001-2.712-1.5822-5.1791-3.5026-7.4012-5.7622-2.2221-2.2596-4.1232-4.7455-5.7054-7.4569-1.5811-2.7115-2.8058-5.6392-3.6719-8.7842-.8661-3.144-1.2986-6.4121-1.2986-9.8015s.4325-6.6465,1.2986-9.7728c.8661-3.1252,2.0908-6.0447,3.6719-8.7561,1.5822-2.7115,3.4832-5.1874,5.7054-7.4282,2.2221-2.2403,4.6892-4.1612,7.4012-5.7622,2.7109-1.6004,5.6392-2.8334,8.7837-3.7001,3.1445-.8661,6.4115-1.2997,9.801-1.2997,5.0842,0,9.8583.9605,14.3214,2.8814ZM328.4548,122.1265c-3.5969,1.5447-6.7227,3.6532-9.3773,6.3266-2.6557,2.6745-4.7554,5.8003-6.299,9.3778-1.5447,3.5781-2.3159,7.4194-2.3159,11.5238,0,4.1436.7712,8.013,2.3159,11.6094,1.5436,3.5969,3.6432,6.732,6.299,9.4054,2.6546,2.6745,5.7804,4.7835,9.3773,6.3271,3.5958,1.5447,7.4652,2.3159,11.6094,2.3159,4.1044,0,7.9551-.7712,11.552-2.3159,3.5958-1.5436,6.7315-3.6526,9.406-6.3271s4.7819-5.8085,6.3266-9.4054c1.5436-3.5963,2.3159-7.4658,2.3159-11.6094,0-4.1044-.7723-7.9457-2.3159-11.5238-1.5447-3.5776-3.6532-6.7033-6.3266-9.3778-2.6745-2.6734-5.8102-4.7819-9.406-6.3266-3.5969-1.5441-7.4476-2.3165-11.552-2.3165-4.1441,0-8.0136.7723-11.6094,2.3165Z"/>
  </g>
</svg>