<?xml version="1.0" encoding="UTF-8"?>
<svg id="RE" xmlns="http://www.w3.org/2000/svg" xmlns:xlink="http://www.w3.org/1999/xlink" viewBox="0 0 453.5433 453.5433">
  <defs>
    <style>
      .cls-1 {
        fill: url(#Degradado_sin_nombre_48);
      }

      .cls-1, .cls-2, .cls-3, .cls-4, .cls-5, .cls-6, .cls-7 {
        stroke-width: 0px;
      }

      .cls-2 {
        fill: url(#Degradado_sin_nombre_48-3);
      }

      .cls-3 {
        fill: url(#Degradado_sin_nombre_48-4);
      }

      .cls-4 {
        fill: url(#Degradado_sin_nombre_51);
      }

      .cls-5 {
        fill: url(#Degradado_sin_nombre_48-5);
      }

      .cls-6 {
        fill: #fff;
      }

      .cls-7 {
        fill: url(#Degradado_sin_nombre_48-2);
      }
    </style>
    <linearGradient id="Degradado_sin_nombre_51" data-name="Degradado sin nombre 51" x1="226.7717" y1="393.4244" x2="226.7717" y2="60.1189" gradientUnits="userSpaceOnUse">
      <stop offset=".3815" stop-color="#e0c961"/>
      <stop offset=".9138" stop-color="#c7b35c"/>
    </linearGradient>
    <linearGradient id="Degradado_sin_nombre_48" data-name="Degradado sin nombre 48" x1="14.4541" y1="175.1242" x2="234.3511" y2="175.1242" gradientUnits="userSpaceOnUse">
      <stop offset=".1846" stop-color="#c7b35c"/>
      <stop offset=".7538" stop-color="#e0c961"/>
    </linearGradient>
    <linearGradient id="Degradado_sin_nombre_48-2" data-name="Degradado sin nombre 48" x1="-1124.4626" y1="574.822" x2="-901.9945" y2="574.822" gradientTransform="translate(-399.6252 -684.9474) rotate(-90)" xlink:href="#Degradado_sin_nombre_48"/>
    <linearGradient id="Degradado_sin_nombre_48-3" data-name="Degradado sin nombre 48" x1="-1571.0142" y1="-585.6242" x2="-1349.7834" y2="-585.6242" gradientTransform="translate(-1131.9251 -307.2051) rotate(-180)" xlink:href="#Degradado_sin_nombre_48"/>
    <linearGradient id="Degradado_sin_nombre_48-4" data-name="Degradado sin nombre 48" x1="117.6042" y1="14.1612" x2="122.7773" y2="14.1612" xlink:href="#Degradado_sin_nombre_48"/>
    <linearGradient id="Degradado_sin_nombre_48-5" data-name="Degradado sin nombre 48" x1="134.9218" y1="124.6425" x2="439.0892" y2="124.6425" xlink:href="#Degradado_sin_nombre_48"/>
  </defs>
  <g>
    <rect class="cls-4" x="56.7178" y="60.1189" width="340.1077" height="333.3056"/>
    <path class="cls-1" d="M124.4026,14.0281C63.6799,14.0281,14.4541,62.6329,14.4541,122.5894v213.6309c60.7232,0,109.9485-48.6043,109.9485-108.5614v-105.0695c0-59.9566,49.2258-108.5614,109.9485-108.5614h-109.9485Z"/>
    <path class="cls-7" d="M14.4541,328.2812c0,61.4329,48.4982,111.234,108.3232,111.234h213.1623c0-61.4329-48.4977-111.234-108.3227-111.234h-104.8396c-59.825,0-108.3232-49.8009-108.3232-111.234v111.234Z"/>
    <path class="cls-2" d="M328.4739,439.5152c61.0911,0,110.6151-48.6045,110.6151-108.5614V117.323c-61.0911,0-110.6151,48.6048-110.6151,108.5614v105.0695c0,59.9568-49.5245,108.5614-110.6156,108.5614h110.6156Z"/>
    <g>
      <path class="cls-3" d="M122.7773,14.0281h-5.1731c0,.0903.0123.1765.0128.2663,1.7221-.083,3.4187-.2663,5.1603-.2663Z"/>
      <path class="cls-5" d="M330.7665,14.0281h-99.666c-41.8918,0-78.1576,24.3255-96.1787,59.8592,19.2851,30.5087,52.7999,50.7552,91.0051,50.7552h104.8396c59.825,0,108.3227,49.5235,108.3227,110.6144v-110.6144c0-61.0904-48.4977-110.6144-108.3227-110.6144Z"/>
    </g>
  </g>
  <g>
    <path class="cls-6" d="M112.4353,254.2639l-10.2898,81.0671c-.2255,1.5285-.9153,2.7316-2.0664,3.6131-1.1531.8809-2.4607,1.2332-3.9228,1.0574-1.462-.2936-2.6286-1.0272-3.4996-2.2029-.8731-1.1746-1.1954-2.5251-.9699-4.0535l12.8205-100.805c.1678-1.3505.7022-2.4369,1.602-3.2603.4499-.4695,1.0677-.91,1.8553-1.322,1.2932-.5862,2.6286-.6013,4.0062-.0441,1.3776.5593,2.3753,1.5425,2.9951,2.9521l34.8343,89.35,34.8343-89.35c.5611-1.3505,1.4888-2.3202,2.783-2.908,1.2932-.5862,2.6419-.5862,4.0484,0l.9277.5287c.6754.4711,1.2365,1.0439,1.6875,1.7183.4489.676.73,1.4543.8432,2.3352l12.2295,100.9814c.1689,1.5279-.1977,2.8789-1.0965,4.053-.8999,1.1762-2.0808,1.8506-3.5418,2.027-1.4631.1759-2.7706-.1904-3.9228-1.1015-1.1531-.9105-1.8131-2.1287-1.982-3.6572l-9.7842-80.5378-32.2191,82.4767c-.5055,1.1757-1.2376,2.0566-2.193,2.6434-.9565.5868-1.9686.8218-3.0363.7051-.9565-.0592-1.8419-.3663-2.6564-.9256-.8165-.5572-1.4486-1.3655-1.8986-2.4229l-32.3879-82.9177Z"/>
    <path class="cls-6" d="M212.3832,307.2218c0-3.5824.4633-6.8728,1.391-9.869.9277-2.9957,2.193-5.7278,3.7961-8.1947,1.602-2.4675,3.4708-4.6704,5.6082-6.6087,2.1364-1.9388,4.4417-3.6416,6.9168-5.1109l-2.2775-2.2911-.4221-.3523c-1.1809-1.1746-2.3485-2.5251-3.4996-4.0535-1.1531-1.5269-2.193-3.1855-3.1207-4.9786-.9287-1.7909-1.6741-3.6857-2.2352-5.6831-.5632-1.9964-.8432-4.0535-.8432-6.1682,0-3.7588.6744-7.2831,2.0242-10.5741,1.3488-3.2893,3.1753-6.1682,5.4816-8.6352,2.3053-2.4675,5.0316-4.4058,8.1822-5.816,3.1485-1.4096,6.5215-2.1147,10.1209-2.1147,3.5974,0,6.958.7051,10.0787,2.1147,3.1217,1.4102,5.8337,3.32,8.14,5.7278,2.3042,2.4094,4.1184,5.2583,5.4404,8.547,1.3199,3.2909,1.982,6.8152,1.982,10.5741,0,6.3446-1.7585,11.7637-5.2715,16.2577-3.515,4.494-8.7021,8.0334-15.5623,10.6176l26.5687,25.8185,12.4828-15.2445c.9555-1.1741,2.1642-1.835,3.6273-1.9824,1.462-.1457,2.7542.3082,3.8795,1.3655,1.1243.9406,1.7297,2.2029,1.8141,3.7895.0844,1.586-.3799,2.9666-1.392,4.1412l-12.7361,15.3321,17.6277,17.0946c1.4054,1.2929,2.193,2.5858,2.3619,3.8771.1689,1.2929-.1411,2.4094-.9277,3.3485-1.0687,1.3521-2.2775,2.1147-3.6273,2.2911-1.3488.1764-2.5863-.2646-3.7107-1.322l-18.2187-17.4468-5.9881,7.2256c-1.5753,1.8808-3.3318,3.5991-5.2715,5.1545-1.9398,1.5575-3.9784,2.8945-6.1148,4.0094-2.1385,1.1165-4.3583,1.969-6.6635,2.5557-2.3063.5862-4.5838.8809-6.8324.8809-4.5539,0-8.8133-.9116-12.7773-2.7316-3.965-1.82-7.4368-4.2875-10.4174-7.402-2.9807-3.1129-5.3282-6.7405-7.0424-10.8822-1.7153-4.1412-2.5719-8.561-2.5719-13.2615ZM268.3869,314.271l-31.0382-29.871c-4.4993,2.0566-8.1389,4.9495-10.923,8.6793-2.783,3.7308-4.175,8.2098-4.175,13.4374,0,3.2318.591,6.3005,1.7719,9.2085,1.1799,2.9074,2.783,5.4632,4.8072,7.6661,2.0242,2.2029,4.3995,3.9514,7.1269,5.2427,2.7274,1.2929,5.6648,1.9388,8.8144,1.9388,1.6298,0,3.2473-.234,4.8494-.7051,1.6031-.4695,3.1485-1.0864,4.6394-1.8506,1.4888-.7626,2.8808-1.6436,4.175-2.6434,1.2932-.9982,2.4463-2.0265,3.4584-3.0839l.4211-.5287,6.0725-7.4902ZM240.385,272.8568l2.6152-.7933h.1678c2.6996-.7626,5.0738-1.7759,7.1279-3.0398,2.052-1.2628,3.7529-2.688,5.1027-4.274,1.3488-1.586,2.3619-3.2893,3.0363-5.1104.6744-1.8205,1.0121-3.7013,1.0121-5.6396,0-2.2911-.3799-4.4349-1.1387-6.4329-.7588-1.9964-1.8419-3.7448-3.2473-5.2427-1.4064-1.4978-3.0651-2.6724-4.976-3.5249-1.912-.8508-4.0206-1.2773-6.3258-1.2773-2.193,0-4.2316.4265-6.1148,1.2773-1.8852.8524-3.515,2.0131-4.8926,3.4808-1.3786,1.4693-2.4607,3.2027-3.2473,5.1991-.7876,1.9975-1.1809,4.1412-1.1809,6.4323,0,1.4096.2533,2.8198.7598,4.2294.5055,1.4102,1.1387,2.7622,1.8975,4.0535.7588,1.2929,1.602,2.4976,2.5307,3.6125.9277,1.117,1.7843,2.0572,2.5719,2.8198l4.3016,4.2299Z"/>
    <path class="cls-6" d="M321.9454,340.3536c-1.4631-.1172-2.644-.7185-3.5428-1.8065-.8999-1.0864-1.3488-2.3928-1.3488-3.9212v-101.5096c0-1.6441.5333-2.9811,1.602-4.0094,1.0677-1.0272,2.3619-1.5419,3.8795-1.5419h48.1613c1.461,0,2.6986.5287,3.7107,1.586s1.5187,2.3793,1.5187,3.9653c0,1.5279-.5066,2.8348-1.5187,3.9212-1.0121,1.0875-2.2497,1.6301-3.7107,1.6301h-43.0154v39.9164h31.7125c1.5187-.0575,2.784.4561,3.7961,1.5419,1.0121,1.088,1.5176,2.3944,1.5176,3.9212,0,1.5285-.5055,2.8063-1.5176,3.833-1.0121,1.0288-2.2775,1.5419-3.7961,1.5419h-31.7125v39.9169h43.0154c1.461,0,2.6986.5287,3.7107,1.586s1.5187,2.3503,1.5187,3.8771c0,1.586-.5066,2.923-1.5187,4.0094-1.0121,1.0875-2.2497,1.6-3.7107,1.5419h-48.7513Z"/>
  </g>
  <g>
    <path class="cls-6" d="M108.3729,149.6899c-2.6359-.9974-4.9904-2.2596-7.0614-3.785-2.071-1.5254-3.7469-3.3514-5.0268-5.4797-1.281-2.1272-1.9209-4.6412-1.9209-7.5413,0-2.9376.6399-5.5829,1.9209-7.9369,1.2799-2.3534,2.9658-4.3499,5.0555-5.9884,2.0897-1.6379,4.4531-2.8996,7.0901-3.785,2.6348-.8843,5.3093-1.3273,8.0213-1.3273,2.1835,0,4.3119.2262,6.3839.678,2.0699.4518,4.0106,1.121,5.8179,2.0053,1.8084.8854,3.4457,1.9772,4.9154,3.2764,1.4685,1.2992,2.6922,2.8157,3.6719,4.5474.4138.678.5075,1.3659.2825,2.0621-.2262.6973-.5473,1.2523-.961,1.6666-.5274.4899-1.2148.7817-2.0621.8755-.8474.0943-1.666-.16-2.4571-.7624-2.1846-2.6739-4.5193-4.548-7.0051-5.621-2.4847-1.0736-5.3093-1.6103-8.4737-1.6103-1.7698,0-3.5395.2543-5.3093.763-1.7709.5081-3.3806,1.2523-4.8304,2.2315-1.4498.9798-2.637,2.2127-3.5594,3.7001-.9224,1.4879-1.3836,3.2113-1.3836,5.1686,0,2.0721.5451,3.7949,1.6385,5.1692,1.0912,1.3753,2.4759,2.5333,4.1519,3.4744,1.6749.9417,3.5108,1.7041,5.5079,2.2878,1.9959.5842,3.8981,1.1017,5.7054,1.5535,2.787.8667,5.5079,1.8453,8.1636,2.9376,2.6546,1.0923,5.0081,2.429,7.0614,4.0106,2.0522,1.5816,3.6995,3.4656,4.943,5.6491,1.2424,2.1846,1.8635,4.8017,1.8635,7.8525,0,3.2764-.6499,6.2422-1.9485,8.8973-1.2997,2.6546-3.0507,4.9341-5.2541,6.8352-2.2034,1.9022-4.7642,3.3707-7.6826,4.4062-2.9194,1.0355-5.979,1.5535-9.1798,1.5535-2.6745,0-5.2541-.358-7.7388-1.073-2.4858-.715-4.7742-1.6854-6.8639-2.9095-2.0908-1.2236-3.918-2.6734-5.4803-4.3499-1.5623-1.6754-2.7584-3.4739-3.587-5.3948-.5649-1.2048-.6499-2.2122-.2538-3.0221.395-.8099.9687-1.4211,1.7223-1.836.8661-.4893,1.6859-.5936,2.4582-.3111.7712.2825,1.5712.9516,2.4009,2.0059.715,1.5066,1.6848,2.8621,2.9084,4.0669,1.2236,1.206,2.6083,2.2315,4.153,3.0789,1.5436.8474,3.2195,1.4972,5.0268,1.9491,1.8084.4518,3.6719.678,5.5928.678,1.9959,0,3.9831-.3012,5.9602-.9042,1.9772-.6019,3.7569-1.5055,5.338-2.7115,1.5822-1.2048,2.8621-2.7015,3.8418-4.4911.9787-1.788,1.4685-3.8501,1.4685-6.1853,0-2.1471-.4899-3.945-1.4685-5.3953-.9798-1.4492-2.2795-2.6922-3.8981-3.7282-1.6197-1.0355-3.4457-1.9209-5.4792-2.6552-2.0346-.7343-4.0868-1.4404-6.1577-2.1184-2.712-.6399-5.3865-1.4592-8.0224-2.4571Z"/>
    <path class="cls-6" d="M158.7614,183.2171c0,.9798-.3487,1.8078-1.0449,2.4858-.6973.678-1.5347,1.0167-2.5134,1.0167-.9798,0-1.8183-.3387-2.5145-1.0167-.6973-.678-1.0449-1.5061-1.0449-2.4858v-65.3034c0-1.0167.3476-1.8547,1.0449-2.514.6962-.6587,1.5347-.9886,2.5145-.9886.9787,0,1.8161.3299,2.5134.9886.6962.6592,1.0449,1.4972,1.0449,2.514v65.3034Z"/>
    <path class="cls-6" d="M180.5656,128.7033l-5.9316-8.4737c-.3762-.4888-.5925-1.0636-.6499-1.7229-.0563-.6587.0287-1.2799.2549-1.8641.2262-.5837.5737-1.0824,1.0449-1.4972.47-.4138,1.0449-.6212,1.7234-.6212h.2825c.3751.0756.7525.1887,1.1298.3387h.1125c.075.0761.1501.123.2262.1412.075.0193.1501.0662.2262.1412l.2251.1131c.1136.0761.2163.1694.3111.2825.0938.1131.1975.2262.3111.3387l.1688.2825,39.5443,56.3217v-54.5139c0-.9787.3476-1.8167,1.0449-2.514.6973-.6962,1.5535-1.0449,2.5708-1.0449s1.8547.3487,2.5134,1.0449c.6587.6973.9886,1.5353.9886,2.514v65.2472c0,.8667-.2736,1.6197-.8187,2.2596-.5462.641-1.2335,1.0366-2.0621,1.1866-.1512.0375-.3762.0563-.6775.0563-1.0548,0-1.9408-.3575-2.6557-1.0736l-.2251-.3387-.1699-.1694-39.488-56.4348v54.5139c0,.9798-.3487,1.8078-1.0449,2.4858-.6973.678-1.5347,1.0167-2.5134,1.0167-.9798,0-1.8183-.3387-2.5145-1.0167-.6973-.678-1.0449-1.5061-1.0449-2.4858v-65.1903c0-.9792.3476-1.8078,1.0449-2.4858.6962-.678,1.5347-1.0167,2.5145-1.0167h.2825c.4138.0756.79.1887,1.1298.3387h.1125c.075.0761.1501.123.2262.1412.075.0193.1501.0662.2262.1412.075,0,.1501.0381.2251.1131.4149.3018.7437.6973.9886,1.1861.2449.4899.3674,1.0173.3674,1.5822v10.6765Z"/>
    <path class="cls-6" d="M298.0675,127.291c0,.9417-.3398,1.7709-1.0173,2.4858-.7161.678-1.5734,1.0267-2.5708,1.0449-.9974.0193-1.8172-.3106-2.4571-.9886-2.9757-2.9376-6.2703-5.1405-9.8859-6.6096-3.6156-1.4685-7.3626-2.2028-11.2419-2.2028-4.0669,0-7.8999.7723-11.4957,2.3159-3.5969,1.5447-6.7315,3.6537-9.406,6.3271-2.6745,2.6745-4.783,5.8185-6.3266,9.4341-1.5447,3.6151-2.3159,7.4762-2.3159,11.5807,0,3.9544.7425,7.7206,2.231,11.2982,1.4873,3.5781,3.5395,6.7221,6.1577,9.4341,2.6171,2.7115,5.7241,4.8679,9.321,6.4678,3.5958,1.6015,7.5038,2.4009,11.7219,2.4009,3.8782.0381,7.6064-.6212,11.1857-1.9772,3.577-1.3555,6.8716-3.5395,9.8859-6.5527.715-.678,1.5623-1.0256,2.5421-1.0449.9787-.0188,1.8073.2918,2.4847.9318.715.678,1.0636,1.5254,1.046,2.5421-.0199,1.0167-.3487,1.8459-.9886,2.4858-3.6918,3.6912-7.7774,6.4115-12.2592,8.1631-4.4818,1.751-9.1147,2.6265-13.8966,2.6265-3.3519,0-6.5914-.443-9.716-1.3273-3.1269-.8843-6.0452-2.1184-8.7561-3.7001-2.712-1.5822-5.1791-3.4932-7.4012-5.7341-2.2221-2.2403-4.1232-4.7256-5.7054-7.4569-1.5811-2.7302-2.8058-5.6579-3.6719-8.7842-.8661-3.1258-1.2986-6.3834-1.2986-9.7728,0-3.2008.4138-6.3459,1.2424-9.4341.8275-3.0877,2.0059-5.9878,3.5307-8.6998,1.5248-2.7115,3.3795-5.2155,5.5641-7.5132,2.1835-2.2966,4.6418-4.2738,7.3725-5.9316,2.7297-1.6567,5.6855-2.9465,8.8687-3.8694,3.182-.9224,6.5616-1.3841,10.1408-1.3841,4.7444,0,9.3674.9235,13.8679,2.7683,4.5005,1.8453,8.5586,4.5756,12.1743,8.1912.715.7155,1.0736,1.5447,1.0736,2.4853Z"/>
    <path class="cls-6" d="M353.9076,116.7839c4.4619,1.9204,8.36,4.5474,11.6932,7.8806,3.3332,3.3326,5.9691,7.2219,7.9087,11.6651,1.9397,4.4443,2.9095,9.2079,2.9095,14.2921,0,3.3895-.4435,6.6576-1.3273,9.8015-.886,3.1451-2.1184,6.0728-3.7006,8.7842s-3.502,5.1973-5.7616,7.4569-4.7455,4.18-7.4575,5.7622c-2.7109,1.5816-5.6403,2.8157-8.7837,3.7001-3.1456.8843-6.4126,1.3273-9.8021,1.3273s-6.6565-.443-9.801-1.3273-6.0728-2.1184-8.7837-3.7001c-2.712-1.5822-5.1791-3.5026-7.4012-5.7622-2.2221-2.2596-4.1232-4.7455-5.7054-7.4569-1.5811-2.7115-2.8058-5.6392-3.6719-8.7842-.8661-3.144-1.2986-6.4121-1.2986-9.8015s.4325-6.6465,1.2986-9.7728c.8661-3.1252,2.0908-6.0447,3.6719-8.7561,1.5822-2.7115,3.4832-5.1874,5.7054-7.4282,2.2221-2.2403,4.6892-4.1612,7.4012-5.7622,2.7109-1.6004,5.6392-2.8334,8.7837-3.7001,3.1445-.8661,6.4115-1.2997,9.801-1.2997,5.0842,0,9.8583.9605,14.3214,2.8814ZM328.0343,123.3934c-3.5969,1.5447-6.7227,3.6532-9.3773,6.3266-2.6557,2.6745-4.7554,5.8003-6.299,9.3778-1.5447,3.5781-2.3159,7.4194-2.3159,11.5238,0,4.1436.7712,8.013,2.3159,11.6094,1.5436,3.5969,3.6432,6.732,6.299,9.4054,2.6546,2.6745,5.7804,4.7835,9.3773,6.3271,3.5958,1.5447,7.4652,2.3159,11.6094,2.3159,4.1044,0,7.9551-.7712,11.552-2.3159,3.5958-1.5436,6.7315-3.6526,9.406-6.3271,2.6734-2.6734,4.7819-5.8085,6.3266-9.4054,1.5436-3.5963,2.3159-7.4658,2.3159-11.6094,0-4.1044-.7723-7.9457-2.3159-11.5238-1.5447-3.5776-3.6532-6.7033-6.3266-9.3778-2.6745-2.6734-5.8102-4.7819-9.406-6.3266-3.5969-1.5441-7.4476-2.3165-11.552-2.3165-4.1441,0-8.0136.7723-11.6094,2.3165Z"/>
  </g>
</svg>