<?xml version="1.0" encoding="UTF-8"?>
<svg id="RE" xmlns="http://www.w3.org/2000/svg" xmlns:xlink="http://www.w3.org/1999/xlink" viewBox="0 0 453.5433 453.5433">
  <defs>
    <style>
      .cls-1 {
        fill: url(#Degradado_sin_nombre_124);
      }

      .cls-1, .cls-2, .cls-3, .cls-4, .cls-5, .cls-6, .cls-7 {
        stroke-width: 0px;
      }

      .cls-2 {
        fill: url(#Degradado_sin_nombre_120);
      }

      .cls-3 {
        fill: url(#Degradado_sin_nombre_114);
      }

      .cls-4 {
        fill: url(#Degradado_sin_nombre_111);
      }

      .cls-5 {
        fill: url(#Degradado_sin_nombre_111-2);
      }

      .cls-6 {
        fill: #fff;
      }

      .cls-7 {
        fill: url(#Degradado_sin_nombre_117);
      }
    </style>
    <linearGradient id="Degradado_sin_nombre_124" data-name="Degradado sin nombre 124" x1="56.7178" y1="226.7717" x2="396.8255" y2="226.7717" gradientUnits="userSpaceOnUse">
      <stop offset=".0045" stop-color="#517946"/>
      <stop offset="1" stop-color="#649957"/>
    </linearGradient>
    <linearGradient id="Degradado_sin_nombre_120" data-name="Degradado sin nombre 120" x1="14.4541" y1="175.1242" x2="234.3511" y2="175.1242" gradientUnits="userSpaceOnUse">
      <stop offset=".0045" stop-color="#517946"/>
      <stop offset="1" stop-color="#649957"/>
    </linearGradient>
    <linearGradient id="Degradado_sin_nombre_117" data-name="Degradado sin nombre 117" x1="-1136.718" y1="-368.8376" x2="-914.2499" y2="-368.8376" gradientTransform="translate(544.0344 -697.2027) rotate(-90)" gradientUnits="userSpaceOnUse">
      <stop offset="0" stop-color="#517946"/>
      <stop offset="1" stop-color="#649957"/>
    </linearGradient>
    <linearGradient id="Degradado_sin_nombre_114" data-name="Degradado sin nombre 114" x1="-639.6099" y1="-1541.5391" x2="-418.3791" y2="-1541.5391" gradientTransform="translate(-200.5208 -1263.12) rotate(-180)" gradientUnits="userSpaceOnUse">
      <stop offset="0" stop-color="#517946"/>
      <stop offset="1" stop-color="#649957"/>
    </linearGradient>
    <linearGradient id="Degradado_sin_nombre_111" data-name="Degradado sin nombre 111" x1="117.6042" y1="14.1612" x2="122.7773" y2="14.1612" gradientUnits="userSpaceOnUse">
      <stop offset=".0045" stop-color="#517946"/>
      <stop offset="1" stop-color="#649957"/>
    </linearGradient>
    <linearGradient id="Degradado_sin_nombre_111-2" data-name="Degradado sin nombre 111" x1="134.9218" y1="124.6425" x2="439.0892" y2="124.6425" xlink:href="#Degradado_sin_nombre_111"/>
  </defs>
  <g>
    <rect class="cls-1" x="56.7178" y="60.1189" width="340.1077" height="333.3056"/>
    <path class="cls-2" d="M124.4026,14.0281C63.6799,14.0281,14.4541,62.6329,14.4541,122.5894v213.6309c60.7232,0,109.9485-48.6043,109.9485-108.5614v-105.0695c0-59.9566,49.2258-108.5614,109.9485-108.5614h-109.9485Z"/>
    <path class="cls-7" d="M14.4541,328.2812c0,61.4329,48.4982,111.234,108.3232,111.234h213.1623c0-61.4329-48.4977-111.234-108.3227-111.234h-104.8396c-59.825,0-108.3232-49.8009-108.3232-111.234v111.234Z"/>
    <path class="cls-3" d="M328.4739,439.5152c61.0911,0,110.6151-48.6045,110.6151-108.5614V117.323c-61.0911,0-110.6151,48.6048-110.6151,108.5614v105.0695c0,59.9568-49.5245,108.5614-110.6156,108.5614h110.6156Z"/>
    <g>
      <path class="cls-4" d="M122.7773,14.0281h-5.1731c0,.0903.0123.1765.0128.2663,1.7221-.083,3.4187-.2663,5.1603-.2663Z"/>
      <path class="cls-5" d="M330.7665,14.0281h-99.666c-41.8918,0-78.1576,24.3255-96.1787,59.8592,19.2851,30.5087,52.7999,50.7552,91.0051,50.7552h104.8396c59.825,0,108.3227,49.5235,108.3227,110.6144v-110.6144c0-61.0904-48.4977-110.6144-108.3227-110.6144Z"/>
    </g>
  </g>
  <g>
    <path class="cls-6" d="M115.8957,283.4311c-3.987-1.5082-7.5456-3.4167-10.6766-5.7225-3.1321-2.3063-5.6667-5.0677-7.6019-8.2853-1.9362-3.216-2.9037-7.0169-2.9037-11.4028,0-4.4411.9676-8.4412,2.9037-12.0002,1.9351-3.558,4.4844-6.577,7.6446-9.0537s6.7323-4.3843,10.7194-5.7225c3.985-1.3372,8.0283-2.0076,12.128-2.0076,3.302,0,6.5196.342,9.6517,1.0249,3.131.6834,6.065,1.6953,8.7978,3.0325,2.7338,1.3382,5.2101,2.9892,7.4309,4.9541,2.2208,1.9643,4.0705,4.2571,5.552,6.8757.6256,1.0249.7684,2.0644.4275,3.1175-.342,1.0541-.8268,1.8934-1.4524,2.5195-.7987.7408-1.8361,1.1824-3.1175,1.3241-1.2814.1428-2.5201-.2419-3.716-1.1532-3.3031-4.0423-6.8324-6.8757-10.5911-8.4985-3.7577-1.6229-8.0283-2.4346-12.8119-2.4346-2.6764,0-5.3529.3847-8.0283,1.1532-2.6775.7689-5.112,1.894-7.3026,3.374-2.1927,1.4811-3.987,3.3458-5.381,5.5943-1.3961,2.25-2.0926,4.8556-2.0926,7.8156,0,3.1321.8247,5.7371,2.4763,7.8151,1.6515,2.079,3.7441,3.8301,6.2777,5.2528,2.5336,1.4242,5.3091,2.5774,8.3286,3.4595,3.0174.8831,5.893,1.6656,8.6268,2.3485,4.2123,1.3106,8.3275,2.7906,12.3417,4.4416,4.0142,1.6521,7.5727,3.6727,10.6766,6.0645,3.1029,2.3913,5.5948,5.2393,7.4736,8.5413,1.8788,3.3031,2.8182,7.2599,2.8182,11.872,0,4.9541-.9822,9.4385-2.9465,13.4526-1.9643,4.0147-4.6126,7.4606-7.9428,10.3351-3.3312,2.8761-7.2046,5.0964-11.6171,6.6619-4.4135,1.5655-9.0397,2.3491-13.8796,2.3491-4.0433,0-7.9428-.5416-11.7015-1.6229-3.7577-1.0812-7.2171-2.5477-10.3774-4.3989-3.1602-1.8496-5.9232-4.0423-8.2848-6.5764-2.3637-2.5331-4.1716-5.2533-5.4238-8.1571-.8539-1.822-.9822-3.3448-.3847-4.5699.5985-1.2235,1.4659-2.1484,2.6055-2.7755,1.3096-.7398,2.5472-.8972,3.7149-.4702,1.1667.4275,2.3772,1.4388,3.6305,3.0325,1.0812,2.2782,2.5472,4.328,4.3989,6.1495,1.8496,1.8231,3.9422,3.374,6.2777,4.6554,2.3345,1.2809,4.8681,2.263,7.6019,2.9465,2.7328.6834,5.552,1.0249,8.4558,1.0249,3.0174,0,6.0212-.4551,9.0105-1.3664,2.9903-.9102,5.6803-2.2771,8.0721-4.1002,2.3918-1.8215,4.3269-4.0851,5.8075-6.7902,1.4805-2.7041,2.2208-5.8216,2.2208-9.3525,0-3.2457-.7403-5.9644-2.2208-8.1571-1.4805-2.1916-3.4449-4.0705-5.893-5.6375-2.4492-1.565-5.2101-2.9037-8.2848-4.0142-3.0747-1.1104-6.1797-2.1781-9.3107-3.203-4.0996-.9676-8.143-2.2062-12.128-3.7154Z"/>
    <path class="cls-6" d="M184.6503,284.8402c0,6.2647,1.1667,12.1154,3.5022,17.5523,2.3345,5.4384,5.5093,10.1787,9.5234,14.2216,4.0152,4.0439,8.7404,7.2317,14.1788,9.5662,5.4374,2.3355,11.2876,3.5017,17.5528,3.5017,5.0672,0,9.7643-.7111,14.0923-2.1353,4.3269-1.4227,8.1857-3.4589,11.5743-6.1067,3.3865-2.6478,6.235-5.8362,8.5413-9.5662,2.3053-3.729,3.9996-7.9011,5.0818-12.5132h-26.3078c-1.4805,0-2.7328-.526-3.7577-1.5801-1.0249-1.0531-1.5379-2.3193-1.5379-3.8009,0-1.4227.513-2.6613,1.5379-3.7154,1.0249-1.0531,2.2771-1.5801,3.7577-1.5801h32.3718c1.5931.0573,2.9465.5698,4.0569,1.5374,1.1104.9691,1.6369,2.25,1.5806,3.8437-.6277,6.6061-2.3491,12.741-5.1673,18.4062-2.8193,5.6667-6.4779,10.5781-10.9758,14.734-4.499,4.157-9.7236,7.4173-15.6729,9.7799-5.9514,2.3631-12.3719,3.5444-19.2606,3.5444-5.1256,0-10.0656-.6553-14.819-1.9643-4.7555-1.3096-9.1825-3.1738-13.2822-5.5948-4.0996-2.4194-7.8302-5.3237-11.1896-8.7123-3.3604-3.387-6.235-7.1452-8.6257-11.274-2.3918-4.1283-4.2435-8.5548-5.552-13.2822-1.3106-4.7258-1.9643-9.6517-1.9643-14.7763,0-5.0099.6402-9.8785,1.9216-14.6058,1.2814-4.7258,3.1029-9.1523,5.4665-13.2816,2.3616-4.1278,5.2236-7.9006,8.584-11.3168,3.3583-3.4167,7.0889-6.3486,11.1885-8.7978,4.0996-2.4476,8.5267-4.3415,13.2822-5.6798,4.7534-1.3372,9.7215-2.0076,14.9045-2.0076,7.459,0,14.5479,1.3815,21.2677,4.1429,6.7177,2.7625,12.8401,6.9049,18.364,12.4272,1.1375,1.0828,1.6932,2.3355,1.6651,3.7582-.0292,1.4242-.5547,2.6775-1.5796,3.7582-1.026,1.0249-2.2782,1.5525-3.7587,1.5801-1.4816.0297-2.763-.4979-3.8432-1.5801-4.4416-4.3838-9.439-7.6868-14.99-9.9077-5.552-2.2208-11.2323-3.3312-17.0398-3.3312-6.0369,0-11.7589,1.1396-17.1681,3.4167-5.4102,2.2782-10.1511,5.4238-14.2216,9.4379-4.0715,4.0142-7.3026,8.755-9.6944,14.221-2.3918,5.4665-3.5877,11.3601-3.5877,17.6805Z"/>
    <path class="cls-6" d="M320.2859,230.0908c5.1256,0,10.0646.6407,14.819,1.9216,4.7544,1.2814,9.1825,3.1045,13.2822,5.4665,4.0996,2.3637,7.8584,5.197,11.274,8.4985,3.4167,3.3031,6.3215,6.9758,8.7123,11.0181,2.3918,4.0439,4.256,8.4136,5.5948,13.1112,1.3377,4.6976,2.0071,9.6089,2.0071,14.7335,0,7.6874-1.467,14.8487-4.3989,21.4814-2.9329,6.6343-6.9179,12.4142-11.957,17.3391-5.0401,4.9254-10.9331,8.7837-17.681,11.5733-6.7479,2.7906-13.9651,4.1851-21.6524,4.1851h-18.3629c-1.4816,0-2.7484-.5125-3.8015-1.5374-1.0541-1.0249-1.5796-2.2766-1.5796-3.7582v-98.7372c0-1.5374.5255-2.8042,1.5796-3.8009,1.0531-.9957,2.3199-1.4946,3.8015-1.4946h18.3629ZM320.5424,240.9379h-13.2384v87.7191h13.0674c6.2058,0,12.0289-1.1104,17.4673-3.3312,5.4374-2.2203,10.1772-5.2956,14.2216-9.2242,4.0423-3.9292,7.2307-8.5548,9.5662-13.8796,2.3334-5.3237,3.5012-11.1171,3.5012-17.3818,0-6.1495-1.1678-11.9001-3.5012-17.253-2.3355-5.3519-5.5093-9.9937-9.5234-13.9223-4.0152-3.9292-8.7415-7.0321-14.1788-9.3102-5.4384-2.2766-11.2323-3.4167-17.3818-3.4167Z"/>
  </g>
  <g>
    <path class="cls-6" d="M107.7935,148.4229c-2.6359-.9974-4.9904-2.2596-7.0614-3.785s-3.7469-3.3514-5.0268-5.4797c-1.281-2.1272-1.9209-4.6412-1.9209-7.5413,0-2.9376.6399-5.5829,1.9209-7.9369,1.2799-2.3534,2.9658-4.3499,5.0555-5.9884,2.0897-1.6379,4.4531-2.8996,7.0901-3.785,2.6348-.8843,5.3093-1.3273,8.0213-1.3273,2.1835,0,4.3119.2262,6.3839.678,2.0699.4518,4.0106,1.121,5.8179,2.0053,1.8084.8854,3.4457,1.9772,4.9154,3.2764,1.4685,1.2992,2.6922,2.8157,3.6719,4.5474.4138.678.5075,1.3659.2825,2.0621-.2262.6973-.5473,1.2523-.961,1.6666-.5274.4899-1.2148.7817-2.0621.8755-.8474.0943-1.666-.16-2.4571-.7624-2.1846-2.6739-4.5193-4.548-7.0051-5.621-2.4847-1.0736-5.3093-1.6103-8.4737-1.6103-1.7698,0-3.5395.2543-5.3093.763-1.7709.5081-3.3806,1.2523-4.8304,2.2315-1.4498.9798-2.637,2.2127-3.5594,3.7001-.9224,1.4879-1.3836,3.2113-1.3836,5.1686,0,2.0721.5451,3.7949,1.6385,5.1692,1.0912,1.3753,2.4759,2.5333,4.1519,3.4744,1.6749.9417,3.5108,1.7041,5.5079,2.2878,1.9959.5842,3.8981,1.1017,5.7054,1.5535,2.787.8667,5.5079,1.8453,8.1636,2.9376,2.6546,1.0923,5.0081,2.429,7.0614,4.0106,2.0522,1.5816,3.6995,3.4656,4.943,5.6491,1.2424,2.1846,1.8635,4.8017,1.8635,7.8525,0,3.2764-.6499,6.2422-1.9485,8.8973-1.2997,2.6546-3.0507,4.9341-5.2541,6.8352-2.2034,1.9022-4.7642,3.3707-7.6826,4.4062-2.9194,1.0355-5.979,1.5535-9.1798,1.5535-2.6745,0-5.2541-.358-7.7388-1.073-2.4858-.715-4.7742-1.6854-6.8639-2.9095-2.0908-1.2236-3.918-2.6734-5.4803-4.3499-1.5623-1.6754-2.7584-3.4739-3.587-5.3948-.5649-1.2048-.6499-2.2122-.2538-3.0221.395-.8099.9687-1.4211,1.7223-1.836.8661-.4893,1.6859-.5936,2.4582-.3111.7712.2825,1.5712.9516,2.4009,2.0059.715,1.5066,1.6848,2.8621,2.9084,4.0669,1.2236,1.206,2.6083,2.2315,4.153,3.0789,1.5436.8474,3.2195,1.4972,5.0268,1.9491,1.8084.4518,3.6719.678,5.5928.678,1.9959,0,3.9831-.3012,5.9602-.9042,1.9772-.6019,3.7569-1.5055,5.338-2.7115,1.5822-1.2048,2.8621-2.7015,3.8418-4.4911.9787-1.788,1.4685-3.8501,1.4685-6.1853,0-2.1471-.4899-3.945-1.4685-5.3953-.9798-1.4492-2.2795-2.6922-3.8981-3.7282-1.6197-1.0355-3.4457-1.9209-5.4792-2.6552-2.0346-.7343-4.0868-1.4404-6.1577-2.1184-2.712-.6399-5.3865-1.4592-8.0224-2.4571Z"/>
    <path class="cls-6" d="M158.1819,181.9502c0,.9798-.3487,1.8078-1.0449,2.4858-.6973.678-1.5347,1.0167-2.5134,1.0167-.9798,0-1.8183-.3387-2.5145-1.0167-.6973-.678-1.0449-1.5061-1.0449-2.4858v-65.3034c0-1.0167.3476-1.8547,1.0449-2.514.6962-.6587,1.5347-.9886,2.5145-.9886.9787,0,1.8161.3299,2.5134.9886.6962.6592,1.0449,1.4972,1.0449,2.514v65.3034Z"/>
    <path class="cls-6" d="M179.9861,127.4363l-5.9316-8.4737c-.3762-.4888-.5925-1.0636-.6499-1.7229-.0563-.6587.0287-1.2799.2549-1.8641.2262-.5837.5737-1.0824,1.0449-1.4972.47-.4138,1.0449-.6212,1.7234-.6212h.2825c.3751.0756.7525.1887,1.1298.3387h.1125c.075.0761.1501.123.2262.1412.075.0193.1501.0662.2262.1412l.2251.1131c.1136.0761.2163.1694.3111.2825.0938.1131.1975.2262.3111.3387l.1688.2825,39.5443,56.3217v-54.5139c0-.9787.3476-1.8167,1.0449-2.514.6973-.6962,1.5535-1.0449,2.5708-1.0449s1.8547.3487,2.5134,1.0449c.6587.6973.9886,1.5353.9886,2.514v65.2472c0,.8667-.2736,1.6197-.8187,2.2596-.5462.641-1.2335,1.0366-2.0621,1.1866-.1512.0375-.3762.0563-.6775.0563-1.0548,0-1.9408-.3575-2.6557-1.0736l-.2251-.3387-.1699-.1694-39.488-56.4348v54.5139c0,.9798-.3487,1.8078-1.0449,2.4858-.6973.678-1.5347,1.0167-2.5134,1.0167-.9798,0-1.8183-.3387-2.5145-1.0167-.6973-.678-1.0449-1.5061-1.0449-2.4858v-65.1903c0-.9792.3476-1.8078,1.0449-2.4858.6962-.678,1.5347-1.0167,2.5145-1.0167h.2825c.4138.0756.79.1887,1.1298.3387h.1125c.075.0761.1501.123.2262.1412.075.0193.1501.0662.2262.1412.075,0,.1501.0381.2251.1131.4149.3018.7437.6973.9886,1.1861.2449.4899.3674,1.0173.3674,1.5822v10.6765Z"/>
    <path class="cls-6" d="M297.4881,126.024c0,.9417-.3398,1.7709-1.0173,2.4858-.7161.678-1.5734,1.0267-2.5708,1.0449-.9974.0193-1.8172-.3106-2.4571-.9886-2.9757-2.9376-6.2703-5.1405-9.8859-6.6096-3.6156-1.4685-7.3626-2.2028-11.2419-2.2028-4.0669,0-7.8999.7723-11.4957,2.3159-3.5969,1.5447-6.7315,3.6537-9.406,6.3271-2.6745,2.6745-4.783,5.8185-6.3266,9.4341-1.5447,3.6151-2.3159,7.4762-2.3159,11.5807,0,3.9544.7425,7.7206,2.231,11.2982,1.4873,3.5781,3.5395,6.7221,6.1577,9.4341,2.6171,2.7115,5.7241,4.8679,9.321,6.4678,3.5958,1.6015,7.5038,2.4009,11.7219,2.4009,3.8782.0381,7.6064-.6212,11.1857-1.9772,3.577-1.3555,6.8716-3.5395,9.8859-6.5527.715-.678,1.5623-1.0256,2.5421-1.0449.9787-.0188,1.8073.2918,2.4847.9318.715.678,1.0636,1.5254,1.046,2.5421-.0199,1.0167-.3487,1.8459-.9886,2.4858-3.6918,3.6912-7.7774,6.4115-12.2592,8.1631-4.4818,1.751-9.1147,2.6265-13.8966,2.6265-3.3519,0-6.5914-.443-9.716-1.3273-3.1269-.8843-6.0452-2.1184-8.7561-3.7001-2.712-1.5822-5.1791-3.4932-7.4012-5.7341-2.2221-2.2403-4.1232-4.7256-5.7054-7.4569-1.5811-2.7302-2.8058-5.6579-3.6719-8.7842-.8661-3.1258-1.2986-6.3834-1.2986-9.7728,0-3.2008.4138-6.3459,1.2424-9.4341.8275-3.0877,2.0059-5.9878,3.5307-8.6998,1.5248-2.7115,3.3795-5.2155,5.5641-7.5132,2.1835-2.2966,4.6418-4.2738,7.3725-5.9316,2.7297-1.6567,5.6855-2.9465,8.8687-3.8694,3.182-.9224,6.5616-1.3841,10.1408-1.3841,4.7444,0,9.3674.9235,13.8679,2.7683,4.5005,1.8453,8.5586,4.5756,12.1743,8.1912.715.7155,1.0736,1.5447,1.0736,2.4853Z"/>
    <path class="cls-6" d="M353.3282,115.5169c4.4619,1.9204,8.36,4.5474,11.6932,7.8806,3.3332,3.3326,5.9691,7.2219,7.9087,11.6651,1.9397,4.4443,2.9095,9.2079,2.9095,14.2921,0,3.3895-.4435,6.6576-1.3273,9.8015-.886,3.1451-2.1184,6.0728-3.7006,8.7842s-3.502,5.1973-5.7616,7.4569c-2.2596,2.2596-4.7455,4.18-7.4575,5.7622-2.7109,1.5816-5.6403,2.8157-8.7837,3.7001-3.1456.8843-6.4126,1.3273-9.8021,1.3273s-6.6565-.443-9.801-1.3273c-3.1445-.8843-6.0728-2.1184-8.7837-3.7001-2.712-1.5822-5.1791-3.5026-7.4012-5.7622-2.2221-2.2596-4.1232-4.7455-5.7054-7.4569-1.5811-2.7115-2.8058-5.6392-3.6719-8.7842-.8661-3.144-1.2986-6.4121-1.2986-9.8015s.4325-6.6465,1.2986-9.7728c.8661-3.1252,2.0908-6.0447,3.6719-8.7561,1.5822-2.7115,3.4832-5.1874,5.7054-7.4282,2.2221-2.2403,4.6892-4.1612,7.4012-5.7622,2.7109-1.6004,5.6392-2.8334,8.7837-3.7001,3.1445-.8661,6.4115-1.2997,9.801-1.2997,5.0842,0,9.8583.9605,14.3214,2.8814ZM327.4548,122.1265c-3.5969,1.5447-6.7227,3.6532-9.3773,6.3266-2.6557,2.6745-4.7554,5.8003-6.299,9.3778-1.5447,3.5781-2.3159,7.4194-2.3159,11.5238,0,4.1436.7712,8.013,2.3159,11.6094,1.5436,3.5969,3.6432,6.732,6.299,9.4054,2.6546,2.6745,5.7804,4.7835,9.3773,6.3271,3.5958,1.5447,7.4652,2.3159,11.6094,2.3159,4.1044,0,7.9551-.7712,11.552-2.3159,3.5958-1.5436,6.7315-3.6526,9.406-6.3271,2.6734-2.6734,4.7819-5.8085,6.3266-9.4054,1.5436-3.5963,2.3159-7.4658,2.3159-11.6094,0-4.1044-.7723-7.9457-2.3159-11.5238-1.5447-3.5776-3.6532-6.7033-6.3266-9.3778-2.6745-2.6734-5.8102-4.7819-9.406-6.3266-3.5969-1.5441-7.4476-2.3165-11.552-2.3165-4.1441,0-8.0136.7723-11.6094,2.3165Z"/>
  </g>
</svg>