<?xml version="1.0" encoding="UTF-8"?>
<svg id="Capta" xmlns="http://www.w3.org/2000/svg" viewBox="0 0 453.5433 453.5433">
  <defs>
    <style>
      .cls-1 {
        fill: #3e5c81;
      }

      .cls-1, .cls-2, .cls-3 {
        stroke-width: 0px;
      }

      .cls-2 {
        fill: #efeeee;
      }

      .cls-3 {
        fill: #eb6b4e;
      }
    </style>
  </defs>
  <path class="cls-1" d="M14.1218,379.1969V74.3446c.3136-.7035.4016-1.4551.458-2.2108.1547-2.0723.4614-4.1251.8671-6.1594,2.7367-13.7241,9.1818-25.4261,19.4994-34.8665,12.1831-11.1472,26.6017-16.8983,43.1555-16.9031,99.3761-.0291,198.7523-.0132,298.1284-.0188,3.8797-.0002,7.726.3546,11.5186,1.132,16.642,3.411,30.0258,11.9727,39.9192,25.7721,7.5717,10.5612,11.7178,22.396,11.7231,35.4557.0408,100.1498.0204,200.2996.0304,300.4494.0004,3.6794-.3752,7.3143-1.1154,10.9068-2.9498,14.317-9.886,26.3579-20.9604,35.8959-11.8573,10.2123-25.6761,15.5272-41.3557,15.5333-99.3354.0389-198.6709.0169-298.0063.0262-6.774.0006-13.3736-1.0393-19.7827-3.1991-14.3709-4.843-25.6783-13.6726-33.8908-26.4042-5.567-8.6302-8.7782-18.1079-9.7289-28.3422-.0702-.7555-.1609-1.5068-.4594-2.215ZM232.7736,201.1033h1.1325c12.6193,0,25.2387-.0072,37.858.0177.7665.0015,1.2549-.2572,1.7884-.7833,9.4554-9.3235,20.7646-13.1959,33.8843-10.943,19.6994,3.3828,33.2843,21.6197,31.1227,41.4731-.9703,8.9119-4.6309,16.5997-11.025,22.8326-8.8362,8.6134-19.49,12.2525-31.7815,10.7072-8.5329-1.0728-15.7919-4.8397-21.8717-10.882-.6325-.6286-1.2191-.9015-2.1061-.8996-12.5786.0271-25.1572.0177-37.7359.0218-.4005.0001-.8106-.0704-1.2055.088-.1197.3978.1196.7151.2533,1.0394,7.2816,17.6521,19.5138,30.6647,36.7045,38.9623,7.8052,3.7674,16.073,5.9393,24.7179,6.6545,5.7841.4786,11.5467.3496,17.2722-.6421,9.4292-1.6332,18.1214-5.1284,26.0981-10.4117.2895-.1918.5402-.4951,1.0883-.4337v1.1707c0,2.3611-.0024,4.7221.001,7.0831.002,1.3611-.0852,1.2122,1.2726,1.2237.1628.0014.3256.0002.4885.0002,10.9096,0,21.8193,0,32.7289,0q1.8132,0,1.8135-1.7965c0-45.4297,0-90.8594,0-136.2891,0-.2442.0033-.4886-.0009-.7327-.0185-1.073-.0193-1.0889-1.079-1.0892-11.3981-.0039-22.7963-.0039-34.1944.0004-1.0085.0004-1.0227.0181-1.0272,1.0031-.0096,2.1575.0021,4.315-.0107,6.4725-.0015.2531.1412.5837-.2804.76-.3147-.1991-.6567-.412-.9952-.6302-9.8646-6.3572-20.6421-10.1295-32.3367-11.0233-9.1793-.7016-18.2157.3847-26.9508,3.3509-21.422,7.2743-36.4701,21.4299-45.2751,42.248-.1698.4015-.4247.7918-.349,1.4473ZM208.4325,201.016c-8.4901-24.8375-37.5032-51.5796-77.5981-46.5033-36.7667,4.6549-65.7726,37.4076-63.1816,77.1445,2.5289,38.7859,35.3954,68.8534,74.1583,67.989,11.9858-.2673,23.2331-3.2262,33.7182-9.0195,11.0193-6.0884,19.8735-14.5006,26.6047-25.1332,2.5392-4.011,4.6956-8.2189,6.3176-12.7153-.6514-.2004-1.1431-.1303-1.6276-.1305-11.9684-.0044-23.9367-.0044-35.9051-.0017-.8944.0002-1.8823-.2055-2.6569.1063-.7692.3097-1.3149,1.1622-1.9738,1.7599-9.0903,8.2448-19.7375,11.5929-31.8619,9.7742-8.6148-1.2922-15.9701-5.2439-21.8411-11.6974-8.4173-9.2523-11.6966-20.1407-9.5793-32.4856,3.2501-18.9498,20.8487-33.2025,41.2616-31.131,9.0788.9213,16.8314,4.7612,23.2436,11.2535.6261.6339,1.2195.8981,2.1062.8961,12.5382-.0277,25.0765-.0181,37.6148-.0223.3997-.0001.809.0712,1.2005-.0839ZM118.999,226.9956c.067.8625.0829,1.8445.2273,2.8072,1.7557,11.7073,12.3204,19.4295,23.3223,18.2697,7.006-.7386,12.4168-4.1234,16.1922-10.0571.5524-.8681,1.1081-1.1681,2.1288-1.1674,39.8892.0286,79.7784.0281,119.6676.0031,1.0458-.0006,1.6346.2916,2.2396,1.2021,4.9618,7.4679,12.0135,10.8801,20.8771,9.8385,11.9321-1.4023,20.0874-12.246,18.5372-24.1842-1.5373-11.8394-13.0382-20.8536-25.9222-18.0336-6.1266,1.341-10.7764,4.8205-13.938,10.2333-.4356.7457-.9084,1.0022-1.7331.9786-1.7895-.0512-3.5814-.0157-5.3724-.0157-38.0576,0-76.1152-.0045-114.1728.0232-1.0681.0008-1.6425-.3143-2.1961-1.2539-4.9489-8.4011-15.1337-12.3284-24.4972-9.5249-8.6283,2.5833-15.3712,10.5665-15.3603,20.8809Z"/>
  <path class="cls-2" d="M232.7736,201.1033c-.0757-.6555.1792-1.0458.349-1.4473,8.805-20.8182,23.853-34.9737,45.2751-42.248,8.7351-2.9662,17.7715-4.0524,26.9508-3.3509,11.6947.8938,22.4722,4.6661,32.3367,11.0233.3385.2182.6805.431.9952.6302.4215-.1763.2789-.5068.2804-.76.0128-2.1574.0011-4.315.0107-6.4725.0044-.985.0187-1.0027,1.0272-1.0031,11.3981-.0043,22.7963-.0043,34.1944-.0004,1.0597.0004,1.0605.0162,1.079,1.0892.0042.2442.0009.4885.0009.7327,0,45.4297,0,90.8594,0,136.2891q0,1.7964-1.8135,1.7965c-10.9096,0-21.8193,0-32.7289,0-.1628,0-.3256.0012-.4885-.0002-1.3578-.0115-1.2707.1373-1.2726-1.2237-.0034-2.3611-.001-4.7221-.001-7.0831v-1.1707c-.5481-.0613-.7988.2419-1.0883.4337-7.9767,5.2834-16.6688,8.7785-26.0981,10.4117-5.7256.9917-11.4882,1.1207-17.2722.6421-8.6449-.7152-16.9127-2.8871-24.7179-6.6545-17.1907-8.2976-29.4229-21.3102-36.7045-38.9623-.1338-.3243-.373-.6416-.2533-1.0394.3948-.1584.8049-.0879,1.2055-.088,12.5786-.0042,25.1573.0052,37.7359-.0218.887-.0019,1.4737.271,2.1061.8996,6.0798,6.0423,13.3388,9.8092,21.8717,10.882,12.2914,1.5453,22.9452-2.0937,31.7815-10.7072,6.3941-6.2329,10.0547-13.9206,11.025-22.8326,2.1616-19.8534-11.4233-38.0903-31.1227-41.4731-13.1196-2.2529-24.4289,1.6195-33.8843,10.943-.5335.5261-1.0219.7849-1.7884.7833-12.6193-.0249-25.2387-.0177-37.858-.0177h-1.1325Z"/>
  <path class="cls-2" d="M208.4325,201.016c-.3914.155-.8007.0837-1.2005.0839-12.5383.0043-25.0766-.0053-37.6148.0223-.8867.002-1.4801-.2622-2.1062-.8961-6.4122-6.4923-14.1648-10.3322-23.2436-11.2535-20.4129-2.0715-38.0115,12.1812-41.2616,31.131-2.1173,12.3449,1.1621,23.2332,9.5793,32.4856,5.871,6.4535,13.2263,10.4052,21.8411,11.6974,12.1244,1.8187,22.7716-1.5294,31.8619-9.7742.6589-.5977,1.2046-1.4502,1.9738-1.7599.7746-.3119,1.7625-.1061,2.6569-.1063,11.9684-.0027,23.9367-.0028,35.9051.0017.4844.0002.9761-.07,1.6276.1305-1.622,4.4964-3.7784,8.7043-6.3176,12.7153-6.7312,10.6326-15.5854,19.0448-26.6047,25.1332-10.4851,5.7932-21.7324,8.7522-33.7182,9.0195-38.7629.8644-71.6293-29.2031-74.1583-67.989-2.5909-39.7369,26.415-72.4896,63.1816-77.1445,40.0949-5.0763,69.108,21.6658,77.5981,46.5033Z"/>
  <path class="cls-3" d="M118.999,226.9956c-.0109-10.3144,6.732-18.2975,15.3603-20.8809,9.3635-2.8035,19.5483,1.1239,24.4972,9.5249.5535.9397,1.128,1.2547,2.1961,1.2539,38.0576-.0277,76.1152-.0232,114.1728-.0232,1.791,0,3.5829-.0356,5.3724.0157.8247.0236,1.2975-.2329,1.7331-.9786,3.1615-5.4128,7.8113-8.8924,13.938-10.2333,12.884-2.82,24.3848,6.1942,25.9222,18.0336,1.5502,11.9381-6.6051,22.7819-18.5372,24.1842-8.8636,1.0416-15.9153-2.3706-20.8771-9.8385-.605-.9105-1.1938-1.2028-2.2396-1.2021-39.8892.025-79.7784.0255-119.6676-.0031-1.0208-.0007-1.5765.2992-2.1288,1.1674-3.7754,5.9337-9.1861,9.3185-16.1922,10.0571-11.0019,1.1598-21.5665-6.5624-23.3223-18.2697-.1444-.9627-.1603-1.9448-.2273-2.8072Z"/>
</svg>